<svg width="231" height="46" viewBox="0 0 231 46" fill="none" xmlns="http://www.w3.org/2000/svg">
<g clip-path="url(#clip0_1_2967)">
<path d="M4.77591 8.45591C6.90303 8.31437 9.62057 7.50154 11.222 9.57609C12.1224 10.7407 12.7506 12.0604 13.1065 13.5351C15.5207 23.556 16.2607 34.9762 16.7379 45.7371C16.7396 45.7711 16.7343 45.805 16.7224 45.8368C16.7106 45.8687 16.6924 45.8977 16.6689 45.9223C16.6455 45.9469 16.6173 45.9665 16.586 45.9798C16.5548 45.9932 16.5212 46 16.4872 46H0.303297C0.222857 46 0.145712 45.968 0.0888333 45.9112C0.0319542 45.8543 0 45.7771 0 45.6967V0.125363C0 0.0921146 0.013208 0.0602277 0.0367181 0.0367177C0.0602281 0.0132076 0.092115 0 0.125363 0H45.8059C45.8631 8.77305e-06 45.9181 0.0228941 45.9589 0.0637329C45.9997 0.104572 46.0232 0.160101 46.0243 0.218374L46.1456 7.08097C46.1483 7.21037 46.1065 7.22655 46.0202 7.12949C45.6563 6.71971 45.3125 6.30588 44.989 5.888C41.6689 1.61354 34.956 5.26927 37.5117 9.75402C38.4055 11.3231 41.127 12.3907 41.4465 14.2307C41.8186 16.374 40.1646 19.6981 38.9433 21.5543C34.5408 28.2295 29.6301 34.5017 24.2112 40.3708C23.9955 40.6054 23.8796 40.5636 23.8634 40.2454C23.3255 28.3158 22.7877 15.1365 18.3717 4.24615C18.334 4.15431 18.2656 4.07852 18.1784 4.03198C18.0912 3.98543 17.9907 3.97107 17.8945 3.99138L4.5535 6.84237C4.49224 6.85576 4.43653 6.88554 4.39337 6.92798C4.35021 6.97043 4.3215 7.02364 4.31086 7.08097C4.23267 7.50423 4.28794 7.90863 4.47666 8.29415C4.50295 8.34663 4.54544 8.39003 4.59872 8.41883C4.65201 8.44763 4.71368 8.46054 4.77591 8.45591Z" fill="white"/>
<path d="M22.4966 45.9271C22.1056 45.9244 22.0504 45.7869 22.3308 45.5146C28.3967 39.5592 33.9342 33.1577 38.9433 26.3099C41.5395 22.7633 44.0225 18.6223 45.5997 14.5137C46.1739 13.012 46.333 13.2857 46.0769 15.3346C46.0364 15.6446 46.0162 15.9412 46.0162 16.2243C45.9758 26.0673 45.9865 35.8469 46.0485 45.5632C46.0491 45.6166 46.0391 45.6696 46.0192 45.7192C45.9994 45.7687 45.97 45.8138 45.9327 45.8518C45.8955 45.8897 45.8512 45.9199 45.8023 45.9405C45.7535 45.961 45.7011 45.9716 45.6482 45.9716L22.4966 45.9271Z" fill="white"/>
<path d="M66.8192 5.54989C66.6697 5.46659 66.392 5.42174 65.9862 5.41533C65.8716 5.41325 65.7683 5.38181 65.6915 5.32562C65.2077 4.9668 66.2553 5.09815 66.438 5.09495C68.2994 5.07893 71.8012 4.68806 73.4223 5.54028C76.9273 7.38568 74.7551 10.9996 71.8524 11.682C71.7307 11.7098 71.6751 11.7674 71.6858 11.855C71.6903 11.8923 71.7125 11.9313 71.75 11.9676C71.7874 12.0039 71.8384 12.036 71.8973 12.0601C74.1303 12.9539 74.4411 15.1678 73.2749 17.0356C71.2949 20.2106 65.5441 19.2911 62.4011 19.3904C62.3528 19.3924 62.3058 19.3784 62.2691 19.3512C62.2324 19.3239 62.2087 19.2854 62.2025 19.243C62.1512 18.9141 62.3766 18.7902 62.8785 18.8714C63.4701 18.9675 63.8664 18.6663 64.0671 17.9679L67.2934 6.66802C67.4343 6.17463 67.2763 5.80193 66.8192 5.54989ZM68.1424 11.2847C73.9413 12.2875 74.8352 4.5535 69.5104 6.00483C69.4634 6.0176 69.4204 6.04261 69.3855 6.07742C69.3507 6.11223 69.3253 6.15565 69.3118 6.20347L67.9213 10.9291C67.9099 10.9667 67.9068 11.0064 67.912 11.0454C67.9172 11.0845 67.9306 11.122 67.9515 11.1556C67.9724 11.1892 68.0002 11.2181 68.0331 11.2403C68.066 11.2626 68.1032 11.2777 68.1424 11.2847ZM71.0098 16.9042C71.9005 15.7477 72.0094 13.7645 70.808 12.7905C70.0679 12.1914 68.8056 12.0985 67.8348 12.1402C67.7582 12.1438 67.6845 12.172 67.6241 12.2209C67.5637 12.2698 67.5197 12.3368 67.4984 12.4125L65.9157 17.9871C65.9006 18.0406 65.8977 18.0967 65.9073 18.1514C65.9169 18.2061 65.9388 18.2578 65.9712 18.3025C66.0037 18.3473 66.0458 18.3841 66.0945 18.4099C66.1432 18.4357 66.1971 18.45 66.2521 18.4517C68.1456 18.4965 69.7379 18.5574 71.0098 16.9042Z" fill="white"/>
<path d="M78.2408 15.5972C77.9492 17.1319 78.9713 18.0834 80.4226 18.1186C81.6529 18.1507 82.7518 17.4138 83.7674 16.7762C84.0109 16.6257 84.2736 16.7666 84.0525 17.0454C82.7966 18.6152 80.2592 20.0153 78.26 19.3361C76.3698 18.6921 75.9693 16.3469 76.6068 14.6137C77.5936 11.9246 79.4422 10.3579 82.1527 9.91366C85.1931 9.41386 85.7377 12.2428 83.6008 13.7294C82.1548 14.7375 80.4311 15.3057 78.4298 15.4338C78.3843 15.4365 78.341 15.454 78.3068 15.4836C78.2725 15.5132 78.2493 15.5532 78.2408 15.5972ZM82.7614 10.564C80.5443 10.1988 78.7822 12.8291 78.3786 14.6906C78.3754 14.7074 78.3765 14.7248 78.3818 14.741C78.3871 14.7573 78.3963 14.7721 78.4088 14.7838C78.4212 14.7956 78.4364 14.8041 78.4529 14.8085C78.4695 14.8129 78.4869 14.8131 78.5035 14.8091C80.4514 14.3798 81.6977 14.1715 82.9536 12.5376C83.4513 11.8883 83.4748 11.2806 83.0241 10.7146C82.9599 10.6361 82.8667 10.5827 82.7614 10.564Z" fill="white"/>
<path d="M103.551 13.5786C103.181 14.4372 103.288 14.5173 103.871 13.8189C104.51 12.7701 105.258 11.809 106.114 10.9354C106.375 11.07 106.512 11.2793 106.527 11.5634C104.466 13.4387 103.015 15.6995 102.173 18.3459C101.943 19.0763 101.385 19.6114 100.626 19.3551C100.516 19.317 100.424 19.2377 100.371 19.1337C100.318 19.0298 100.307 18.9093 100.341 18.7976L102.202 12.6463C102.292 12.3515 102.343 12.0386 102.356 11.7075C102.375 11.244 102.158 11.0903 101.706 11.2462C101.379 11.3615 101.1 11.5484 100.869 11.8069C100.046 12.7328 99.1361 13.6523 98.5722 14.748C97.8802 16.0936 97.3313 17.5022 96.9255 18.9738C96.9125 19.0235 96.8886 19.0691 96.8557 19.107C96.8229 19.1449 96.782 19.1739 96.7365 19.1917C96.2836 19.3668 95.9003 19.4191 95.5863 19.3486C95.539 19.338 95.4944 19.3177 95.4553 19.2891C95.4161 19.2604 95.3833 19.2239 95.3587 19.1819C95.3341 19.1399 95.3182 19.0933 95.3122 19.0448C95.3062 18.9963 95.31 18.9471 95.3236 18.9001L97.3964 11.5762C97.5609 10.9952 97.4477 10.7079 97.0568 10.7143C96.8838 10.7175 95.9804 10.6823 95.9707 10.394C95.9693 10.3646 95.9888 10.3347 96.0251 10.3102C96.0614 10.2858 96.1119 10.2688 96.1662 10.2626L98.9855 9.93261C99.0475 9.92543 99.1104 9.93372 99.1683 9.95671C99.2263 9.97971 99.2773 10.0166 99.3167 10.0641C99.3561 10.1115 99.3826 10.1678 99.3936 10.2277C99.4046 10.2877 99.3998 10.3493 99.3796 10.4068C99.0229 11.4405 98.7602 12.4498 98.5915 13.4344C98.5338 13.7868 98.8414 13.5241 98.899 13.428C99.7032 12.0567 101.315 9.58981 103.221 9.90058C104.794 10.1601 103.935 12.4284 103.551 13.5786Z" fill="white"/>
<path d="M106.527 11.5634C106.512 11.2793 106.375 11.07 106.114 10.9355C106.787 10.2114 108.35 9.36238 109.187 10.2915C110.087 11.2943 108.264 15.8085 107.553 17.7308C106.947 19.3711 108.844 17.42 109.001 17.2438C109.043 17.1979 109.088 17.1609 109.134 17.1353C109.18 17.1098 109.226 17.0965 109.267 17.0964C110.266 17.0964 107.332 19.3359 107.024 19.4384C105.406 19.9798 105.803 18.1216 106.076 17.295C106.603 15.7102 107.113 14.1222 107.604 12.531C107.86 11.6948 107.822 10.6503 106.527 11.5634Z" fill="white"/>
<path d="M112.097 18.7755C111.705 18.4325 111.41 17.9872 111.227 17.4653C111.044 16.9433 110.978 16.3549 111.033 15.7335C111.087 15.1122 111.261 14.4701 111.544 13.8439C111.828 13.2178 112.215 12.6198 112.684 12.0842C113.631 11.0024 114.853 10.2403 116.082 9.9653C117.312 9.69034 118.447 9.92513 119.239 10.618C119.63 10.9611 119.926 11.4063 120.109 11.9283C120.291 12.4502 120.357 13.0387 120.303 13.66C120.249 14.2814 120.075 14.9235 119.791 15.5496C119.508 16.1758 119.121 16.7737 118.652 17.3094C117.705 18.3911 116.483 19.1533 115.253 19.4283C114.024 19.7032 112.889 19.4684 112.097 18.7755ZM113.807 18.7834C114.384 19.0415 115.132 18.8561 115.884 18.2681C116.637 17.68 117.334 16.7374 117.821 15.6477C118.063 15.1081 118.245 14.5486 118.359 14.0011C118.473 13.4537 118.515 12.929 118.484 12.4571C118.452 11.9852 118.348 11.5752 118.176 11.2506C118.005 10.926 117.769 10.6932 117.483 10.5654C116.906 10.3072 116.159 10.4926 115.407 11.0806C114.654 11.6687 113.957 12.6113 113.47 13.701C113.228 14.2406 113.045 14.8001 112.932 15.3476C112.818 15.895 112.776 16.4197 112.807 16.8916C112.839 17.3636 112.943 17.7735 113.115 18.0981C113.286 18.4227 113.522 18.6555 113.807 18.7834Z" fill="white"/>
<path d="M125.417 11.6981C125.504 11.7718 125.597 11.7141 125.661 11.6372C126.376 10.7957 127.116 10.2553 127.881 10.0161C130.236 9.28244 131.536 11.1214 131.12 13.3064C130.447 16.821 127.32 20.6656 123.347 19.1822C123.327 19.1744 123.305 19.1707 123.283 19.1713C123.261 19.172 123.24 19.177 123.221 19.1861C123.201 19.1952 123.184 19.2081 123.171 19.224C123.157 19.2399 123.148 19.2584 123.142 19.2784L122.207 22.9628C122.195 23.0083 122.199 23.0572 122.218 23.1022C122.238 23.1473 122.272 23.186 122.316 23.2127C122.569 23.3664 123.924 23.6484 123.774 23.8919C123.753 23.9273 123.716 23.956 123.669 23.9747C123.622 23.9935 123.566 24.0014 123.508 23.9976C122.062 23.8993 120.615 23.9025 119.166 24.0072C119.019 24.0168 118.619 23.9527 118.747 23.7509C118.768 23.7173 118.803 23.6875 118.85 23.6641C118.897 23.6407 118.954 23.6243 119.016 23.6163C120.419 23.4401 120.515 22.527 120.932 21.143C121.889 17.9563 122.819 14.6926 123.722 11.3521C123.836 10.9377 123.676 10.7242 123.245 10.7113C123.091 10.7049 122.188 10.6216 122.165 10.4102C122.162 10.3724 122.181 10.3341 122.218 10.3035C122.255 10.273 122.308 10.2526 122.364 10.2468L125.497 9.91039C125.519 9.90813 125.541 9.9102 125.562 9.91643C125.583 9.92266 125.601 9.93288 125.617 9.94627C125.632 9.95966 125.643 9.97584 125.65 9.99353C125.656 10.0112 125.658 10.0299 125.654 10.0481L125.398 11.4418C125.387 11.5025 125.383 11.5601 125.386 11.6062C125.389 11.6522 125.4 11.6844 125.417 11.6981ZM128.871 11.1567C128.318 10.8256 127.795 10.7989 127.304 11.0766C124.783 12.4991 124.232 15.1454 123.588 17.7918C123.494 18.1784 123.628 18.4496 123.991 18.6056C127.394 20.0793 129.499 14.5431 129.371 11.9897C129.351 11.6244 129.185 11.3468 128.871 11.1567Z" fill="white"/>
<path d="M88.9256 14.4244C90.9216 14.1745 91.3894 13.0019 92.2063 11.3487C92.7478 10.2498 93.5199 9.61225 94.7758 10.3459C95.5276 10.7859 95.6611 11.2612 95.1763 11.7716C94.4116 12.5704 93.8157 12.4818 93.3885 11.5057C93.2326 11.1512 93.0714 11.149 92.9048 11.4993C92.3729 12.6121 91.7194 13.6437 90.944 14.5942C90.9161 14.6285 90.9012 14.6717 90.9018 14.7167C90.9024 14.7616 90.9184 14.8055 90.9472 14.8409C92.1519 16.3082 92.5331 18.1601 94.2472 19.0507C94.5334 19.2002 94.5163 19.2793 94.1959 19.2878L92.1198 19.3455C92.0333 19.3472 91.9472 19.3233 91.8714 19.2763C91.7955 19.2293 91.7328 19.1611 91.6905 19.0795C90.9312 17.6378 90.22 15.6995 88.8487 14.7544C88.8273 14.7396 88.8027 14.73 88.7769 14.7263C88.7511 14.7225 88.7248 14.7248 88.7 14.7328C88.6752 14.7409 88.6527 14.7545 88.634 14.7727C88.6153 14.7909 88.6011 14.8131 88.5924 14.8377C88.1951 15.9676 87.863 17.1092 87.596 18.2626C87.3718 19.2301 86.8784 19.6114 85.9012 19.2782C85.8508 19.2609 85.8091 19.2244 85.7847 19.1761C85.7602 19.1279 85.7549 19.0715 85.7699 19.0187L87.8844 11.5762C88.0104 11.1319 87.8406 10.9269 87.375 10.9611L86.7566 11.0027C86.706 11.0063 86.6562 10.9951 86.6151 10.9708C86.5739 10.9464 86.5437 10.9103 86.5292 10.8681C86.3177 10.253 88.9801 10.1537 89.435 10.1056C89.4881 10.0999 89.5417 10.1078 89.591 10.1287C89.6404 10.1496 89.6841 10.1829 89.7184 10.2257C89.7527 10.2686 89.7766 10.3197 89.7881 10.3746C89.7996 10.4296 89.7982 10.4868 89.7842 10.5414L88.7975 14.2834C88.7925 14.301 88.7922 14.3196 88.7966 14.3374C88.8009 14.3552 88.8098 14.3718 88.8224 14.3857C88.8351 14.3996 88.8511 14.4104 88.8691 14.4171C88.887 14.4239 88.9064 14.4264 88.9256 14.4244Z" fill="white"/>
<path d="M64.5054 36.6781C63.5254 35.6981 63.0354 34.5081 63.0354 33.1081C63.0354 31.7081 63.5254 30.5181 64.5054 29.5381C65.4854 28.5581 66.6754 28.0681 68.0754 28.0681C69.4754 28.0681 70.6654 28.5581 71.6454 29.5381C72.6254 30.5181 73.1154 31.7081 73.1154 33.1081C73.1154 34.5081 72.6254 35.6981 71.6454 36.6781C70.6654 37.6581 69.4754 38.1481 68.0754 38.1481C66.6754 38.1481 65.4854 37.6581 64.5054 36.6781ZM65.2334 36.0061C66.008 36.7807 66.9554 37.1681 68.0754 37.1681C69.1954 37.1681 70.138 36.7807 70.9034 36.0061C71.678 35.2221 72.0654 34.2561 72.0654 33.1081C72.0654 31.9601 71.678 30.9987 70.9034 30.2241C70.138 29.4401 69.1954 29.0481 68.0754 29.0481C66.9554 29.0481 66.008 29.4401 65.2334 30.2241C64.468 30.9987 64.0854 31.9601 64.0854 33.1081C64.0854 34.2561 64.468 35.2221 65.2334 36.0061ZM80.0432 36.1181L80.7432 36.7481C80.5565 36.9814 80.3092 37.2147 80.0012 37.4481C79.3479 37.9147 78.6619 38.1481 77.9432 38.1481C77.0192 38.1481 76.2259 37.8074 75.5632 37.1261C74.9099 36.4447 74.5832 35.6187 74.5832 34.6481C74.5832 33.6774 74.9099 32.8514 75.5632 32.1701C76.2259 31.4887 77.0192 31.1481 77.9432 31.1481C78.6712 31.1481 79.3432 31.3721 79.9592 31.8201C80.2112 32.0067 80.4492 32.2261 80.6732 32.4781L79.9732 33.1781C79.8239 32.9727 79.6512 32.7861 79.4552 32.6181C79.0072 32.2447 78.5032 32.0581 77.9432 32.0581C77.2992 32.0581 76.7392 32.3101 76.2632 32.8141C75.7965 33.3087 75.5632 33.9201 75.5632 34.6481C75.5632 35.3761 75.7965 35.9921 76.2632 36.4961C76.7392 36.9907 77.2992 37.2381 77.9432 37.2381C78.4752 37.2381 78.9932 37.0514 79.4972 36.6781C79.7119 36.5007 79.8939 36.3141 80.0432 36.1181ZM83.8183 38.0081V32.1981H81.4383V31.2881H87.1783V32.1981H84.7983V38.0081H83.8183ZM93.4843 36.1181L94.1143 36.7481C93.9369 36.9907 93.6989 37.2241 93.4003 37.4481C92.7469 37.9147 92.0516 38.1481 91.3143 38.1481C90.3903 38.1481 89.5969 37.8074 88.9343 37.1261C88.2809 36.4447 87.9543 35.6187 87.9543 34.6481C87.9543 33.6774 88.2809 32.8514 88.9343 32.1701C89.5876 31.4887 90.3576 31.1481 91.2443 31.1481C92.1683 31.1481 92.9336 31.4654 93.5403 32.1001C94.1563 32.7347 94.4643 33.5374 94.4643 34.5081C94.4643 34.5547 94.4503 34.6761 94.4223 34.8721L94.3943 35.0121L88.9343 34.9981C88.9716 35.6047 89.2189 36.1321 89.6763 36.5801C90.1429 37.0187 90.6889 37.2381 91.3143 37.2381C91.8836 37.2381 92.4203 37.0514 92.9243 36.6781C93.1669 36.4821 93.3536 36.2954 93.4843 36.1181ZM88.9343 34.1581H93.4843C93.4096 33.5514 93.1623 33.0521 92.7423 32.6601C92.3316 32.2587 91.8323 32.0581 91.2443 32.0581C90.6563 32.0581 90.1429 32.2634 89.7043 32.6741C89.2656 33.0847 89.0089 33.5794 88.9343 34.1581ZM96.2099 38.0081V31.2881H97.1899V34.8581L100.55 31.2881H101.74L99.1499 34.0181L102.02 38.0081H100.9L98.5199 34.7181L97.1899 36.1181V38.0081H96.2099ZM102.158 38.0081V37.0281C102.214 37.0654 102.27 37.0887 102.326 37.0981C102.448 37.1447 102.578 37.1681 102.718 37.1681C103.008 37.1681 103.232 37.0841 103.39 36.9161C103.558 36.7481 103.698 36.3701 103.81 35.7821C103.922 35.1847 103.978 34.3401 103.978 33.2481V31.2881H108.878V38.0081H107.898V32.1981H104.958V33.2481C104.958 34.2374 104.907 35.0634 104.804 35.7261C104.711 36.3794 104.566 36.8787 104.37 37.2241C104.174 37.5694 103.955 37.8121 103.712 37.9521C103.479 38.0827 103.194 38.1481 102.858 38.1481C102.69 38.1481 102.527 38.1247 102.368 38.0781C102.322 38.0687 102.252 38.0454 102.158 38.0081ZM116.152 36.1181L116.782 36.7481C116.605 36.9907 116.367 37.2241 116.068 37.4481C115.415 37.9147 114.72 38.1481 113.982 38.1481C113.058 38.1481 112.265 37.8074 111.602 37.1261C110.949 36.4447 110.622 35.6187 110.622 34.6481C110.622 33.6774 110.949 32.8514 111.602 32.1701C112.256 31.4887 113.026 31.1481 113.912 31.1481C114.836 31.1481 115.602 31.4654 116.208 32.1001C116.824 32.7347 117.132 33.5374 117.132 34.5081C117.132 34.5547 117.118 34.6761 117.09 34.8721L117.062 35.0121L111.602 34.9981C111.64 35.6047 111.887 36.1321 112.344 36.5801C112.811 37.0187 113.357 37.2381 113.982 37.2381C114.552 37.2381 115.088 37.0514 115.592 36.6781C115.835 36.4821 116.022 36.2954 116.152 36.1181ZM111.602 34.1581H116.152C116.078 33.5514 115.83 33.0521 115.41 32.6601C115 32.2587 114.5 32.0581 113.912 32.0581C113.324 32.0581 112.811 32.2634 112.372 32.6741C111.934 33.0847 111.677 33.5794 111.602 34.1581ZM118.878 38.0081V31.2881H119.858V34.1581H123.708V31.2881H124.688V38.0081H123.708V35.0681H119.858V38.0081H118.878ZM126.931 38.0081V31.2881H127.911V36.3281L131.971 31.2881H132.811V38.0081H131.831V32.9681L127.771 38.0081H126.931ZM140.092 36.1181L140.722 36.7481C140.544 36.9907 140.306 37.2241 140.008 37.4481C139.354 37.9147 138.659 38.1481 137.922 38.1481C136.998 38.1481 136.204 37.8074 135.542 37.1261C134.888 36.4447 134.562 35.6187 134.562 34.6481C134.562 33.6774 134.888 32.8514 135.542 32.1701C136.195 31.4887 136.965 31.1481 137.852 31.1481C138.776 31.1481 139.541 31.4654 140.148 32.1001C140.764 32.7347 141.072 33.5374 141.072 34.5081C141.072 34.5547 141.058 34.6761 141.03 34.8721L141.002 35.0121L135.542 34.9981C135.579 35.6047 135.826 36.1321 136.284 36.5801C136.75 37.0187 137.296 37.2381 137.922 37.2381C138.491 37.2381 139.028 37.0514 139.532 36.6781C139.774 36.4821 139.961 36.2954 140.092 36.1181ZM135.542 34.1581H140.092C140.017 33.5514 139.77 33.0521 139.35 32.6601C138.939 32.2587 138.44 32.0581 137.852 32.0581C137.264 32.0581 136.75 32.2634 136.312 32.6741C135.873 33.0847 135.616 33.5794 135.542 34.1581ZM144.987 36.9581L145.617 36.3281C145.766 36.5147 145.934 36.6687 146.121 36.7901C146.55 37.0887 147.012 37.2381 147.507 37.2381C148.039 37.2381 148.44 37.1354 148.711 36.9301C148.981 36.7247 149.117 36.4541 149.117 36.1181C149.117 35.7821 148.981 35.5114 148.711 35.3061C148.44 35.1007 148.039 34.9981 147.507 34.9981H146.737V34.0881H147.507C147.908 34.0881 148.23 33.9854 148.473 33.7801C148.715 33.5747 148.837 33.3274 148.837 33.0381C148.837 32.7487 148.725 32.5154 148.501 32.3381C148.277 32.1514 147.945 32.0581 147.507 32.0581C147.049 32.0581 146.639 32.1887 146.275 32.4501C146.097 32.5714 145.948 32.6974 145.827 32.8281L145.127 32.1281C145.267 31.9787 145.472 31.8154 145.743 31.6381C146.303 31.3114 146.891 31.1481 147.507 31.1481C148.179 31.1481 148.729 31.3394 149.159 31.7221C149.597 32.0954 149.817 32.5341 149.817 33.0381C149.817 33.5514 149.639 33.9481 149.285 34.2281C149.126 34.3587 148.953 34.4521 148.767 34.5081C149 34.5641 149.219 34.6574 149.425 34.7881C149.873 35.0867 150.097 35.5301 150.097 36.1181C150.097 36.6781 149.868 37.1587 149.411 37.5601C148.963 37.9521 148.328 38.1481 147.507 38.1481C146.825 38.1481 146.195 37.9521 145.617 37.5601C145.374 37.3827 145.164 37.1821 144.987 36.9581ZM151.923 38.0081V31.2881H152.903V36.3281L156.963 31.2881H157.803V38.0081H156.823V32.9681L152.763 38.0081H151.923ZM160.044 38.0081V31.2881H160.814L163.474 34.6481L166.134 31.2881H166.904V38.0081H165.924V33.0381L163.474 36.1181L161.024 33.0381V38.0081H160.044ZM169.149 38.0081V31.2881H170.129V34.1581H173.979V31.2881H174.959V38.0081H173.979V35.0681H170.129V38.0081H169.149ZM182.242 36.1181L182.872 36.7481C182.695 36.9907 182.457 37.2241 182.158 37.4481C181.505 37.9147 180.809 38.1481 180.072 38.1481C179.148 38.1481 178.355 37.8074 177.692 37.1261C177.039 36.4447 176.712 35.6187 176.712 34.6481C176.712 33.6774 177.039 32.8514 177.692 32.1701C178.345 31.4887 179.115 31.1481 180.002 31.1481C180.926 31.1481 181.691 31.4654 182.298 32.1001C182.914 32.7347 183.222 33.5374 183.222 34.5081C183.222 34.5547 183.208 34.6761 183.18 34.8721L183.152 35.0121L177.692 34.9981C177.729 35.6047 177.977 36.1321 178.434 36.5801C178.901 37.0187 179.447 37.2381 180.072 37.2381C180.641 37.2381 181.178 37.0514 181.682 36.6781C181.925 36.4821 182.111 36.2954 182.242 36.1181ZM177.692 34.1581H182.242C182.167 33.5514 181.92 33.0521 181.5 32.6601C181.089 32.2587 180.59 32.0581 180.002 32.0581C179.414 32.0581 178.901 32.2634 178.462 32.6741C178.023 33.0847 177.767 33.5794 177.692 34.1581ZM184.968 38.0081V31.2881H189.448V32.1981H185.948V38.0081H184.968ZM195.935 37.1401C195.273 37.8121 194.465 38.1481 193.513 38.1481C192.561 38.1481 191.749 37.8121 191.077 37.1401C190.415 36.4587 190.083 35.6281 190.083 34.6481C190.083 33.6681 190.415 32.8421 191.077 32.1701C191.749 31.4887 192.561 31.1481 193.513 31.1481C194.465 31.1481 195.273 31.4887 195.935 32.1701C196.607 32.8421 196.943 33.6681 196.943 34.6481C196.943 35.6281 196.607 36.4587 195.935 37.1401ZM191.777 36.4821C192.263 36.9861 192.841 37.2381 193.513 37.2381C194.185 37.2381 194.759 36.9907 195.235 36.4961C195.721 35.9921 195.963 35.3761 195.963 34.6481C195.963 33.9201 195.721 33.3087 195.235 32.8141C194.759 32.3101 194.185 32.0581 193.513 32.0581C192.841 32.0581 192.263 32.3101 191.777 32.8141C191.301 33.3087 191.063 33.9201 191.063 34.6481C191.063 35.3667 191.301 35.9781 191.777 36.4821ZM206.604 36.1181L207.304 36.7481C207.117 36.9814 206.87 37.2147 206.562 37.4481C205.908 37.9147 205.222 38.1481 204.504 38.1481C203.58 38.1481 202.786 37.8074 202.124 37.1261C201.47 36.4447 201.144 35.6187 201.144 34.6481C201.144 33.6774 201.47 32.8514 202.124 32.1701C202.786 31.4887 203.58 31.1481 204.504 31.1481C205.232 31.1481 205.904 31.3721 206.52 31.8201C206.772 32.0067 207.01 32.2261 207.234 32.4781L206.534 33.1781C206.384 32.9727 206.212 32.7861 206.016 32.6181C205.568 32.2447 205.064 32.0581 204.504 32.0581C203.86 32.0581 203.3 32.3101 202.824 32.8141C202.357 33.3087 202.124 33.9201 202.124 34.6481C202.124 35.3761 202.357 35.9921 202.824 36.4961C203.3 36.9907 203.86 37.2381 204.504 37.2381C205.036 37.2381 205.554 37.0514 206.058 36.6781C206.272 36.5007 206.454 36.3141 206.604 36.1181ZM212.899 38.0081V37.0981C212.759 37.2941 212.581 37.4714 212.367 37.6301C211.872 37.9754 211.326 38.1481 210.729 38.1481C210.047 38.1481 209.478 37.9521 209.021 37.5601C208.573 37.1587 208.349 36.7014 208.349 36.1881C208.349 35.0494 209.002 34.3727 210.309 34.1581L212.899 33.7381C212.899 33.2434 212.74 32.8421 212.423 32.5341C212.115 32.2167 211.713 32.0581 211.219 32.0581C210.733 32.0581 210.271 32.2214 209.833 32.5481C209.627 32.7254 209.459 32.8887 209.329 33.0381L208.699 32.4081C208.876 32.1747 209.095 31.9647 209.357 31.7781C209.926 31.3581 210.547 31.1481 211.219 31.1481C211.984 31.1481 212.619 31.3954 213.123 31.8901C213.627 32.3847 213.879 33.0007 213.879 33.7381V38.0081H212.899ZM212.899 34.9981V34.5781L210.589 34.9981C209.749 35.1474 209.329 35.5441 209.329 36.1881C209.329 36.4867 209.45 36.7387 209.693 36.9441C209.945 37.1401 210.29 37.2381 210.729 37.2381C211.373 37.2381 211.895 37.0327 212.297 36.6221C212.698 36.2114 212.899 35.6701 212.899 34.9981ZM214.992 39.6881V37.0981H215.482C215.706 36.8647 215.902 36.5567 216.07 36.1741C216.472 35.3154 216.672 34.3401 216.672 33.2481V31.2881H221.292V37.0981H222.342V39.6881H221.362V38.0081H215.972V39.6881H214.992ZM216.532 37.0981H220.312V32.1981H217.652V33.2481C217.652 34.3027 217.466 35.2687 217.092 36.1461C216.924 36.5194 216.738 36.8367 216.532 37.0981ZM227.938 38.0081V37.0981C227.798 37.2941 227.621 37.4714 227.406 37.6301C226.911 37.9754 226.365 38.1481 225.768 38.1481C225.087 38.1481 224.517 37.9521 224.06 37.5601C223.612 37.1587 223.388 36.7014 223.388 36.1881C223.388 35.0494 224.041 34.3727 225.348 34.1581L227.938 33.7381C227.938 33.2434 227.779 32.8421 227.462 32.5341C227.154 32.2167 226.753 32.0581 226.258 32.0581C225.773 32.0581 225.311 32.2214 224.872 32.5481C224.667 32.7254 224.499 32.8887 224.368 33.0381L223.738 32.4081C223.915 32.1747 224.135 31.9647 224.396 31.7781C224.965 31.3581 225.586 31.1481 226.258 31.1481C227.023 31.1481 227.658 31.3954 228.162 31.8901C228.666 32.3847 228.918 33.0007 228.918 33.7381V38.0081H227.938ZM227.938 34.9981V34.5781L225.628 34.9981C224.788 35.1474 224.368 35.5441 224.368 36.1881C224.368 36.4867 224.489 36.7387 224.732 36.9441C224.984 37.1401 225.329 37.2381 225.768 37.2381C226.412 37.2381 226.935 37.0327 227.336 36.6221C227.737 36.2114 227.938 35.6701 227.938 34.9981Z" fill="white"/>
</g>
<defs>
<clipPath id="clip0_1_2967">
<rect width="230.195" height="46" fill="white"/>
</clipPath>
</defs>
</svg>
