<svg width="192" height="46" viewBox="0 0 192 46" fill="none" xmlns="http://www.w3.org/2000/svg">
<g clip-path="url(#clip0_1_2967)">
<path d="M4.77591 8.45591C6.90303 8.31437 9.62057 7.50154 11.222 9.57609C12.1224 10.7407 12.7506 12.0604 13.1065 13.5351C15.5207 23.556 16.2607 34.9762 16.7379 45.7371C16.7396 45.7711 16.7343 45.805 16.7224 45.8368C16.7106 45.8687 16.6924 45.8977 16.6689 45.9223C16.6455 45.9469 16.6173 45.9665 16.586 45.9798C16.5548 45.9932 16.5212 46 16.4872 46H0.303297C0.222857 46 0.145712 45.968 0.0888333 45.9112C0.0319542 45.8543 0 45.7771 0 45.6967V0.125363C0 0.0921146 0.013208 0.0602277 0.0367181 0.0367177C0.0602281 0.0132076 0.092115 0 0.125363 0H45.8059C45.8631 8.77305e-06 45.9181 0.0228941 45.9589 0.0637329C45.9997 0.104572 46.0232 0.160101 46.0243 0.218374L46.1456 7.08097C46.1483 7.21037 46.1065 7.22655 46.0202 7.12949C45.6563 6.71971 45.3125 6.30588 44.989 5.888C41.6689 1.61354 34.956 5.26927 37.5117 9.75402C38.4055 11.3231 41.127 12.3907 41.4465 14.2307C41.8186 16.374 40.1646 19.6981 38.9433 21.5543C34.5408 28.2295 29.6301 34.5017 24.2112 40.3708C23.9955 40.6054 23.8796 40.5636 23.8634 40.2454C23.3255 28.3158 22.7877 15.1365 18.3717 4.24615C18.334 4.15431 18.2656 4.07852 18.1784 4.03198C18.0912 3.98543 17.9908 3.97107 17.8945 3.99139L4.5535 6.84237C4.49224 6.85576 4.43653 6.88554 4.39337 6.92798C4.35021 6.97043 4.3215 7.02365 4.31086 7.08097C4.23267 7.50423 4.28794 7.90863 4.47666 8.29415C4.50295 8.34663 4.54544 8.39003 4.59872 8.41883C4.65201 8.44763 4.71368 8.46054 4.77591 8.45591Z" fill="white"/>
<path d="M22.4966 45.9271C22.1056 45.9244 22.0504 45.7869 22.3308 45.5146C28.3967 39.5592 33.9342 33.1577 38.9433 26.3099C41.5395 22.7633 44.0225 18.6223 45.5997 14.5137C46.1739 13.012 46.333 13.2857 46.0769 15.3346C46.0364 15.6446 46.0162 15.9412 46.0162 16.2243C45.9758 26.0673 45.9865 35.8469 46.0485 45.5632C46.0491 45.6166 46.0391 45.6696 46.0192 45.7192C45.9994 45.7687 45.97 45.8138 45.9327 45.8518C45.8955 45.8897 45.8512 45.9199 45.8023 45.9405C45.7535 45.961 45.7011 45.9716 45.6482 45.9716L22.4966 45.9271Z" fill="white"/>
<path d="M66.8192 5.54989C66.6697 5.46659 66.392 5.42174 65.9862 5.41533C65.8716 5.41325 65.7683 5.38181 65.6915 5.32562C65.2077 4.9668 66.2553 5.09815 66.438 5.09495C68.2994 5.07893 71.8012 4.68806 73.4223 5.54028C76.9273 7.38568 74.7551 10.9996 71.8524 11.682C71.7307 11.7098 71.6751 11.7674 71.6858 11.855C71.6903 11.8923 71.7125 11.9313 71.75 11.9676C71.7874 12.0039 71.8384 12.036 71.8973 12.0601C74.1303 12.9539 74.4411 15.1678 73.2749 17.0356C71.2949 20.2106 65.5441 19.2911 62.4011 19.3904C62.3528 19.3924 62.3058 19.3784 62.2691 19.3512C62.2324 19.3239 62.2087 19.2854 62.2025 19.243C62.1512 18.9141 62.3766 18.7902 62.8785 18.8714C63.4701 18.9675 63.8664 18.6663 64.0671 17.9679L67.2934 6.66802C67.4343 6.17463 67.2763 5.80193 66.8192 5.54989ZM68.1424 11.2847C73.9413 12.2875 74.8352 4.5535 69.5104 6.00483C69.4634 6.0176 69.4204 6.04261 69.3855 6.07742C69.3507 6.11223 69.3253 6.15565 69.3118 6.20347L67.9213 10.9291C67.9099 10.9667 67.9068 11.0064 67.912 11.0454C67.9172 11.0845 67.9306 11.122 67.9515 11.1556C67.9724 11.1892 68.0002 11.2181 68.0331 11.2403C68.066 11.2626 68.1032 11.2777 68.1424 11.2847ZM71.0098 16.9042C71.9005 15.7477 72.0094 13.7645 70.808 12.7905C70.0679 12.1914 68.8056 12.0985 67.8348 12.1402C67.7582 12.1438 67.6845 12.172 67.6241 12.2209C67.5637 12.2698 67.5197 12.3368 67.4984 12.4125L65.9157 17.9871C65.9006 18.0406 65.8977 18.0967 65.9073 18.1514C65.9169 18.2061 65.9388 18.2578 65.9712 18.3025C66.0037 18.3473 66.0458 18.3841 66.0945 18.4099C66.1432 18.4357 66.1971 18.45 66.2521 18.4517C68.1456 18.4965 69.7379 18.5574 71.0098 16.9042Z" fill="white"/>
<path d="M78.2408 15.5972C77.9492 17.1319 78.9713 18.0834 80.4226 18.1186C81.6529 18.1507 82.7518 17.4138 83.7674 16.7762C84.0109 16.6257 84.2736 16.7666 84.0525 17.0454C82.7966 18.6152 80.2592 20.0153 78.26 19.3361C76.3698 18.6921 75.9693 16.3469 76.6068 14.6137C77.5936 11.9246 79.4422 10.3579 82.1527 9.91366C85.1931 9.41386 85.7377 12.2428 83.6008 13.7294C82.1548 14.7375 80.4311 15.3057 78.4298 15.4338C78.3843 15.4365 78.341 15.454 78.3068 15.4836C78.2725 15.5132 78.2493 15.5532 78.2408 15.5972ZM82.7614 10.564C80.5443 10.1988 78.7822 12.8291 78.3786 14.6906C78.3754 14.7074 78.3765 14.7248 78.3818 14.741C78.3871 14.7573 78.3963 14.7721 78.4088 14.7838C78.4212 14.7956 78.4364 14.8041 78.4529 14.8085C78.4695 14.8129 78.4869 14.8131 78.5035 14.8091C80.4514 14.3798 81.6977 14.1715 82.9536 12.5376C83.4513 11.8883 83.4748 11.2806 83.0241 10.7146C82.9599 10.6361 82.8667 10.5827 82.7614 10.564Z" fill="white"/>
<path d="M103.551 13.5786C103.181 14.4372 103.288 14.5173 103.871 13.8189C104.51 12.7701 105.258 11.809 106.114 10.9354C106.375 11.07 106.512 11.2793 106.527 11.5634C104.466 13.4387 103.015 15.6995 102.173 18.3459C101.943 19.0763 101.385 19.6114 100.626 19.3551C100.516 19.317 100.424 19.2377 100.371 19.1337C100.318 19.0298 100.307 18.9093 100.341 18.7976L102.202 12.6463C102.292 12.3515 102.343 12.0386 102.356 11.7075C102.375 11.244 102.158 11.0903 101.706 11.2462C101.379 11.3615 101.1 11.5484 100.869 11.8069C100.046 12.7328 99.1361 13.6523 98.5722 14.748C97.8802 16.0936 97.3313 17.5022 96.9255 18.9738C96.9125 19.0235 96.8886 19.0691 96.8557 19.107C96.8229 19.1449 96.782 19.1739 96.7365 19.1917C96.2836 19.3668 95.9003 19.4191 95.5863 19.3486C95.539 19.338 95.4944 19.3177 95.4553 19.2891C95.4161 19.2604 95.3833 19.2239 95.3587 19.1819C95.3341 19.1399 95.3182 19.0933 95.3122 19.0448C95.3062 18.9963 95.31 18.9471 95.3236 18.9001L97.3964 11.5762C97.5609 10.9952 97.4477 10.7079 97.0568 10.7143C96.8838 10.7175 95.9804 10.6823 95.9707 10.394C95.9693 10.3646 95.9888 10.3347 96.0251 10.3102C96.0614 10.2858 96.1119 10.2688 96.1662 10.2626L98.9855 9.93261C99.0475 9.92543 99.1104 9.93372 99.1683 9.95671C99.2263 9.97971 99.2773 10.0166 99.3167 10.0641C99.3561 10.1115 99.3826 10.1678 99.3936 10.2277C99.4046 10.2877 99.3998 10.3493 99.3796 10.4068C99.0229 11.4405 98.7602 12.4498 98.5915 13.4344C98.5338 13.7868 98.8414 13.5241 98.899 13.428C99.7032 12.0567 101.315 9.58981 103.221 9.90058C104.794 10.1601 103.935 12.4284 103.551 13.5786Z" fill="white"/>
<path d="M106.527 11.5634C106.512 11.2793 106.375 11.07 106.114 10.9355C106.787 10.2114 108.35 9.36238 109.187 10.2915C110.087 11.2943 108.264 15.8085 107.553 17.7308C106.947 19.3711 108.844 17.42 109.001 17.2438C109.043 17.1979 109.088 17.1609 109.134 17.1353C109.18 17.1098 109.226 17.0965 109.267 17.0964C110.266 17.0964 107.332 19.3359 107.024 19.4384C105.406 19.9798 105.803 18.1216 106.076 17.295C106.603 15.7102 107.113 14.1222 107.604 12.531C107.86 11.6948 107.822 10.6503 106.527 11.5634Z" fill="white"/>
<path d="M112.097 18.7755C111.705 18.4325 111.41 17.9872 111.227 17.4653C111.044 16.9433 110.978 16.3549 111.033 15.7335C111.087 15.1122 111.261 14.4701 111.544 13.8439C111.828 13.2178 112.215 12.6198 112.684 12.0842C113.631 11.0024 114.853 10.2403 116.082 9.9653C117.312 9.69034 118.447 9.92513 119.239 10.618C119.63 10.9611 119.926 11.4063 120.109 11.9283C120.291 12.4502 120.357 13.0387 120.303 13.66C120.249 14.2814 120.075 14.9235 119.791 15.5496C119.508 16.1758 119.121 16.7737 118.652 17.3094C117.705 18.3911 116.483 19.1533 115.253 19.4283C114.024 19.7032 112.889 19.4684 112.097 18.7755ZM113.807 18.7834C114.384 19.0415 115.132 18.8561 115.884 18.2681C116.637 17.68 117.334 16.7374 117.821 15.6477C118.063 15.1081 118.245 14.5486 118.359 14.0011C118.473 13.4537 118.515 12.929 118.484 12.4571C118.452 11.9852 118.348 11.5752 118.176 11.2506C118.005 10.926 117.769 10.6932 117.483 10.5654C116.906 10.3072 116.159 10.4926 115.407 11.0806C114.654 11.6687 113.957 12.6113 113.47 13.701C113.228 14.2406 113.045 14.8001 112.932 15.3476C112.818 15.895 112.776 16.4197 112.807 16.8916C112.839 17.3636 112.943 17.7735 113.115 18.0981C113.286 18.4227 113.522 18.6555 113.807 18.7834Z" fill="white"/>
<path d="M125.417 11.6981C125.504 11.7718 125.597 11.7141 125.661 11.6372C126.376 10.7957 127.116 10.2553 127.881 10.0161C130.236 9.28244 131.536 11.1214 131.12 13.3064C130.447 16.821 127.32 20.6656 123.347 19.1822C123.327 19.1744 123.305 19.1707 123.283 19.1713C123.261 19.172 123.24 19.177 123.221 19.1861C123.201 19.1952 123.184 19.2081 123.171 19.224C123.157 19.2399 123.148 19.2584 123.142 19.2784L122.207 22.9628C122.195 23.0083 122.199 23.0572 122.218 23.1022C122.238 23.1473 122.272 23.186 122.316 23.2127C122.569 23.3664 123.924 23.6484 123.774 23.8919C123.753 23.9273 123.716 23.956 123.669 23.9747C123.622 23.9935 123.566 24.0014 123.508 23.9976C122.062 23.8993 120.615 23.9025 119.166 24.0072C119.019 24.0168 118.619 23.9527 118.747 23.7509C118.768 23.7173 118.803 23.6875 118.85 23.6641C118.897 23.6407 118.954 23.6243 119.016 23.6163C120.419 23.4401 120.515 22.527 120.932 21.143C121.889 17.9563 122.819 14.6926 123.722 11.3521C123.836 10.9377 123.676 10.7242 123.245 10.7113C123.091 10.7049 122.188 10.6216 122.165 10.4102C122.162 10.3724 122.181 10.3341 122.218 10.3035C122.255 10.273 122.308 10.2526 122.364 10.2468L125.497 9.91039C125.519 9.90813 125.541 9.9102 125.562 9.91643C125.583 9.92266 125.601 9.93288 125.617 9.94627C125.632 9.95966 125.643 9.97584 125.65 9.99353C125.656 10.0112 125.658 10.0299 125.654 10.0481L125.398 11.4418C125.387 11.5025 125.383 11.5601 125.386 11.6062C125.389 11.6522 125.4 11.6844 125.417 11.6981ZM128.871 11.1567C128.318 10.8256 127.795 10.7989 127.304 11.0766C124.783 12.4991 124.232 15.1454 123.588 17.7918C123.494 18.1784 123.628 18.4496 123.991 18.6056C127.394 20.0793 129.499 14.5431 129.371 11.9897C129.351 11.6244 129.185 11.3468 128.871 11.1567Z" fill="white"/>
<path d="M88.9256 14.4244C90.9216 14.1745 91.3894 13.0019 92.2063 11.3487C92.7478 10.2498 93.5199 9.61225 94.7758 10.3459C95.5276 10.7859 95.6611 11.2612 95.1763 11.7716C94.4116 12.5704 93.8157 12.4818 93.3885 11.5057C93.2326 11.1512 93.0714 11.149 92.9048 11.4993C92.3729 12.6121 91.7194 13.6437 90.944 14.5942C90.9161 14.6285 90.9012 14.6717 90.9018 14.7167C90.9024 14.7616 90.9184 14.8055 90.9472 14.8409C92.1519 16.3082 92.5331 18.1601 94.2472 19.0507C94.5334 19.2002 94.5163 19.2793 94.1959 19.2878L92.1198 19.3455C92.0333 19.3472 91.9472 19.3233 91.8714 19.2763C91.7955 19.2293 91.7328 19.1611 91.6905 19.0795C90.9312 17.6378 90.22 15.6995 88.8487 14.7544C88.8273 14.7396 88.8027 14.73 88.7769 14.7263C88.7511 14.7225 88.7248 14.7248 88.7 14.7328C88.6752 14.7409 88.6527 14.7545 88.634 14.7727C88.6153 14.7909 88.6011 14.8131 88.5924 14.8377C88.1951 15.9676 87.863 17.1092 87.596 18.2626C87.3718 19.2301 86.8784 19.6114 85.9012 19.2782C85.8508 19.2609 85.8091 19.2244 85.7847 19.1761C85.7602 19.1279 85.7549 19.0715 85.7699 19.0187L87.8844 11.5762C88.0104 11.1319 87.8406 10.9269 87.375 10.9611L86.7566 11.0027C86.706 11.0063 86.6562 10.9951 86.6151 10.9708C86.5739 10.9464 86.5437 10.9103 86.5292 10.8681C86.3177 10.253 88.9801 10.1537 89.435 10.1056C89.4881 10.0999 89.5417 10.1078 89.591 10.1287C89.6404 10.1496 89.6841 10.1829 89.7184 10.2257C89.7527 10.2686 89.7766 10.3197 89.7881 10.3746C89.7996 10.4296 89.7982 10.4868 89.7842 10.5414L88.7975 14.2834C88.7925 14.301 88.7922 14.3196 88.7966 14.3374C88.8009 14.3552 88.8098 14.3718 88.8224 14.3857C88.8351 14.3996 88.8511 14.4104 88.8691 14.4171C88.887 14.4239 88.9064 14.4264 88.9256 14.4244Z" fill="white"/>
<path d="M64.5054 36.6781C63.5254 35.6981 63.0354 34.5081 63.0354 33.1081C63.0354 31.7081 63.5254 30.5181 64.5054 29.5381C65.4854 28.5581 66.6754 28.0681 68.0754 28.0681C69.4754 28.0681 70.6654 28.5581 71.6454 29.5381C72.6254 30.5181 73.1154 31.7081 73.1154 33.1081C73.1154 34.5081 72.6254 35.6981 71.6454 36.6781C70.6654 37.6581 69.4754 38.1481 68.0754 38.1481C66.6754 38.1481 65.4854 37.6581 64.5054 36.6781ZM65.2334 36.0061C66.008 36.7807 66.9554 37.1681 68.0754 37.1681C69.1954 37.1681 70.138 36.7807 70.9034 36.0061C71.678 35.2221 72.0654 34.2561 72.0654 33.1081C72.0654 31.9601 71.678 30.9987 70.9034 30.2241C70.138 29.4401 69.1954 29.0481 68.0754 29.0481C66.9554 29.0481 66.008 29.4401 65.2334 30.2241C64.468 30.9987 64.0854 31.9601 64.0854 33.1081C64.0854 34.2561 64.468 35.2221 65.2334 36.0061ZM80.0432 36.1181L80.7432 36.7481C80.5565 36.9814 80.3092 37.2147 80.0012 37.4481C79.3479 37.9147 78.6619 38.1481 77.9432 38.1481C77.0192 38.1481 76.2259 37.8074 75.5632 37.1261C74.9099 36.4447 74.5832 35.6187 74.5832 34.6481C74.5832 33.6774 74.9099 32.8514 75.5632 32.1701C76.2259 31.4887 77.0192 31.1481 77.9432 31.1481C78.6712 31.1481 79.3432 31.3721 79.9592 31.8201C80.2112 32.0067 80.4492 32.2261 80.6732 32.4781L79.9732 33.1781C79.8239 32.9727 79.6512 32.7861 79.4552 32.6181C79.0072 32.2447 78.5032 32.0581 77.9432 32.0581C77.2992 32.0581 76.7392 32.3101 76.2632 32.8141C75.7965 33.3087 75.5632 33.9201 75.5632 34.6481C75.5632 35.3761 75.7965 35.9921 76.2632 36.4961C76.7392 36.9907 77.2992 37.2381 77.9432 37.2381C78.4752 37.2381 78.9932 37.0514 79.4972 36.6781C79.7119 36.5007 79.8939 36.3141 80.0432 36.1181ZM83.8183 38.0081V32.1981H81.4383V31.2881H87.1783V32.1981H84.7983V38.0081H83.8183ZM93.4843 36.1181L94.1143 36.7481C93.9369 36.9907 93.6989 37.2241 93.4003 37.4481C92.7469 37.9147 92.0516 38.1481 91.3143 38.1481C90.3903 38.1481 89.5969 37.8074 88.9343 37.1261C88.2809 36.4447 87.9543 35.6187 87.9543 34.6481C87.9543 33.6774 88.2809 32.8514 88.9343 32.1701C89.5876 31.4887 90.3576 31.1481 91.2443 31.1481C92.1683 31.1481 92.9336 31.4654 93.5403 32.1001C94.1563 32.7347 94.4643 33.5374 94.4643 34.5081C94.4643 34.5547 94.4503 34.6761 94.4223 34.8721L94.3943 35.0121L88.9343 34.9981C88.9716 35.6047 89.2189 36.1321 89.6763 36.5801C90.1429 37.0187 90.6889 37.2381 91.3143 37.2381C91.8836 37.2381 92.4203 37.0514 92.9243 36.6781C93.1669 36.4821 93.3536 36.2954 93.4843 36.1181ZM88.9343 34.1581H93.4843C93.4096 33.5514 93.1623 33.0521 92.7423 32.6601C92.3316 32.2587 91.8323 32.0581 91.2443 32.0581C90.6563 32.0581 90.1429 32.2634 89.7043 32.6741C89.2656 33.0847 89.0089 33.5794 88.9343 34.1581ZM96.2099 38.0081V31.2881H97.1899V34.8581L100.55 31.2881H101.74L99.1499 34.0181L102.02 38.0081H100.9L98.5199 34.7181L97.1899 36.1181V38.0081H96.2099ZM102.158 38.0081V37.0281C102.214 37.0654 102.27 37.0887 102.326 37.0981C102.448 37.1447 102.578 37.1681 102.718 37.1681C103.008 37.1681 103.232 37.0841 103.39 36.9161C103.558 36.7481 103.698 36.3701 103.81 35.7821C103.922 35.1847 103.978 34.3401 103.978 33.2481V31.2881H108.878V38.0081H107.898V32.1981H104.958V33.2481C104.958 34.2374 104.907 35.0634 104.804 35.7261C104.711 36.3794 104.566 36.8787 104.37 37.2241C104.174 37.5694 103.955 37.8121 103.712 37.9521C103.479 38.0827 103.194 38.1481 102.858 38.1481C102.69 38.1481 102.527 38.1247 102.368 38.0781C102.322 38.0687 102.252 38.0454 102.158 38.0081ZM116.152 36.1181L116.782 36.7481C116.605 36.9907 116.367 37.2241 116.068 37.4481C115.415 37.9147 114.72 38.1481 113.982 38.1481C113.058 38.1481 112.265 37.8074 111.602 37.1261C110.949 36.4447 110.622 35.6187 110.622 34.6481C110.622 33.6774 110.949 32.8514 111.602 32.1701C112.256 31.4887 113.026 31.1481 113.912 31.1481C114.836 31.1481 115.602 31.4654 116.208 32.1001C116.824 32.7347 117.132 33.5374 117.132 34.5081C117.132 34.5547 117.118 34.6761 117.09 34.8721L117.062 35.0121L111.602 34.9981C111.64 35.6047 111.887 36.1321 112.344 36.5801C112.811 37.0187 113.357 37.2381 113.982 37.2381C114.552 37.2381 115.088 37.0514 115.592 36.6781C115.835 36.4821 116.022 36.2954 116.152 36.1181ZM111.602 34.1581H116.152C116.078 33.5514 115.83 33.0521 115.41 32.6601C115 32.2587 114.5 32.0581 113.912 32.0581C113.324 32.0581 112.811 32.2634 112.372 32.6741C111.934 33.0847 111.677 33.5794 111.602 34.1581ZM118.878 38.0081V31.2881H119.858V34.1581H123.708V31.2881H124.688V38.0081H123.708V35.0681H119.858V38.0081H118.878ZM126.931 38.0081V31.2881H127.911V36.3281L131.971 31.2881H132.811V38.0081H131.831V32.9681L127.771 38.0081H126.931ZM140.092 36.1181L140.722 36.7481C140.544 36.9907 140.306 37.2241 140.008 37.4481C139.354 37.9147 138.659 38.1481 137.922 38.1481C136.998 38.1481 136.204 37.8074 135.542 37.1261C134.888 36.4447 134.562 35.6187 134.562 34.6481C134.562 33.6774 134.888 32.8514 135.542 32.1701C136.195 31.4887 136.965 31.1481 137.852 31.1481C138.776 31.1481 139.541 31.4654 140.148 32.1001C140.764 32.7347 141.072 33.5374 141.072 34.5081C141.072 34.5547 141.058 34.6761 141.03 34.8721L141.002 35.0121L135.542 34.9981C135.579 35.6047 135.826 36.1321 136.284 36.5801C136.75 37.0187 137.296 37.2381 137.922 37.2381C138.491 37.2381 139.028 37.0514 139.532 36.6781C139.774 36.4821 139.961 36.2954 140.092 36.1181ZM135.542 34.1581H140.092C140.017 33.5514 139.77 33.0521 139.35 32.6601C138.939 32.2587 138.44 32.0581 137.852 32.0581C137.264 32.0581 136.75 32.2634 136.312 32.6741C135.873 33.0847 135.616 33.5794 135.542 34.1581ZM145.757 38.0081V31.2881H148.837C149.462 31.2881 149.957 31.4514 150.321 31.7781C150.685 32.1047 150.867 32.5247 150.867 33.0381C150.867 33.4487 150.727 33.8034 150.447 34.1021C150.325 34.2234 150.185 34.3354 150.027 34.4381C150.241 34.5127 150.428 34.6154 150.587 34.7461C150.96 35.0634 151.147 35.4974 151.147 36.0481C151.147 36.6547 150.955 37.1354 150.573 37.4901C150.199 37.8354 149.667 38.0081 148.977 38.0081H145.757ZM146.737 34.0181H148.837C149.537 34.0181 149.887 33.7147 149.887 33.1081C149.887 32.5014 149.537 32.1981 148.837 32.1981H146.737V34.0181ZM146.737 37.0981H148.977C149.77 37.0981 150.167 36.7247 150.167 35.9781C150.167 35.2314 149.77 34.8581 148.977 34.8581H146.737V37.0981ZM158.002 36.1181L158.632 36.7481C158.455 36.9907 158.217 37.2241 157.918 37.4481C157.265 37.9147 156.569 38.1481 155.832 38.1481C154.908 38.1481 154.115 37.8074 153.452 37.1261C152.799 36.4447 152.472 35.6187 152.472 34.6481C152.472 33.6774 152.799 32.8514 153.452 32.1701C154.105 31.4887 154.875 31.1481 155.762 31.1481C156.686 31.1481 157.451 31.4654 158.058 32.1001C158.674 32.7347 158.982 33.5374 158.982 34.5081C158.982 34.5547 158.968 34.6761 158.94 34.8721L158.912 35.0121L153.452 34.9981C153.489 35.6047 153.737 36.1321 154.194 36.5801C154.661 37.0187 155.207 37.2381 155.832 37.2381C156.401 37.2381 156.938 37.0514 157.442 36.6781C157.685 36.4821 157.871 36.2954 158.002 36.1181ZM153.452 34.1581H158.002C157.927 33.5514 157.68 33.0521 157.26 32.6601C156.849 32.2587 156.35 32.0581 155.762 32.0581C155.174 32.0581 154.661 32.2634 154.222 32.6741C153.783 33.0847 153.527 33.5794 153.452 34.1581ZM160.727 40.9481V31.2881H161.707V32.2681C161.866 32.0534 162.057 31.8667 162.281 31.7081C162.785 31.3347 163.364 31.1481 164.017 31.1481C164.941 31.1481 165.721 31.4794 166.355 32.1421C166.99 32.8047 167.307 33.6401 167.307 34.6481C167.307 35.6561 166.99 36.4914 166.355 37.1541C165.721 37.8167 164.941 38.1481 164.017 38.1481C163.364 38.1481 162.785 37.9614 162.281 37.5881C162.057 37.4294 161.866 37.2427 161.707 37.0281V40.9481H160.727ZM164.017 37.2381C164.661 37.2381 165.207 36.9954 165.655 36.5101C166.103 36.0247 166.327 35.4041 166.327 34.6481C166.327 33.8921 166.103 33.2714 165.655 32.7861C165.207 32.3007 164.661 32.0581 164.017 32.0581C163.411 32.0581 162.874 32.3101 162.407 32.8141C161.941 33.3181 161.707 33.9294 161.707 34.6481C161.707 35.3667 161.941 35.9781 162.407 36.4821C162.874 36.9861 163.411 37.2381 164.017 37.2381ZM173.114 38.0081V37.0981C172.974 37.2941 172.796 37.4714 172.582 37.6301C172.087 37.9754 171.541 38.1481 170.944 38.1481C170.262 38.1481 169.693 37.9521 169.236 37.5601C168.788 37.1587 168.564 36.7014 168.564 36.1881C168.564 35.0494 169.217 34.3727 170.524 34.1581L173.114 33.7381C173.114 33.2434 172.955 32.8421 172.638 32.5341C172.33 32.2167 171.928 32.0581 171.434 32.0581C170.948 32.0581 170.486 32.2214 170.048 32.5481C169.842 32.7254 169.674 32.8887 169.544 33.0381L168.914 32.4081C169.091 32.1747 169.31 31.9647 169.572 31.7781C170.141 31.3581 170.762 31.1481 171.434 31.1481C172.199 31.1481 172.834 31.3954 173.338 31.8901C173.842 32.3847 174.094 33.0007 174.094 33.7381V38.0081H173.114ZM173.114 34.9981V34.5781L170.804 34.9981C169.964 35.1474 169.544 35.5441 169.544 36.1881C169.544 36.4867 169.665 36.7387 169.908 36.9441C170.16 37.1401 170.505 37.2381 170.944 37.2381C171.588 37.2381 172.11 37.0327 172.512 36.6221C172.913 36.2114 173.114 35.6701 173.114 34.9981ZM176.327 38.0081V31.2881H177.307V34.1581H181.157V31.2881H182.137V38.0081H181.157V35.0681H177.307V38.0081H176.327ZM183.26 39.6881V37.0981H183.75C183.974 36.8647 184.17 36.5567 184.338 36.1741C184.739 35.3154 184.94 34.3401 184.94 33.2481V31.2881H189.56V37.0981H190.61V39.6881H189.63V38.0081H184.24V39.6881H183.26ZM184.8 37.0981H188.58V32.1981H185.92V33.2481C185.92 34.3027 185.733 35.2687 185.36 36.1461C185.192 36.5194 185.005 36.8367 184.8 37.0981Z" fill="white"/>
</g>
<defs>
<clipPath id="clip0_1_2967">
<rect width="191.195" height="46" fill="white"/>
</clipPath>
</defs>
</svg>
