<svg width="235" height="74" viewBox="0 0 235 74" fill="none" xmlns="http://www.w3.org/2000/svg">
<path d="M7.63675 13.8952C11.0381 13.6688 15.3834 12.3691 17.9441 15.6863C19.384 17.5486 20.3884 19.6588 20.9574 22.0169C24.8178 38.0405 26.0012 56.3015 26.7642 73.5084C26.7668 73.5627 26.7584 73.6169 26.7394 73.6678C26.7205 73.7187 26.6914 73.7652 26.6539 73.8045C26.6164 73.8438 26.5713 73.8751 26.5213 73.8964C26.4714 73.9178 26.4176 73.9288 26.3633 73.9287H0.484976C0.356352 73.9287 0.232996 73.8776 0.142046 73.7867C0.0510952 73.6957 0 73.5724 0 73.4437V0.57448C0 0.521316 0.0211198 0.470329 0.0587128 0.432736C0.0963057 0.395143 0.147293 0.374023 0.200458 0.374023H73.2443C73.3358 0.374037 73.4237 0.410631 73.489 0.475933C73.5543 0.541235 73.5918 0.630027 73.5935 0.723206L73.7875 11.6966C73.7918 11.9035 73.725 11.9294 73.587 11.7742C73.0051 11.1189 72.4554 10.4572 71.9381 9.78902C66.6292 2.9541 55.8951 8.79967 59.9818 15.9708C61.4109 18.4798 65.7627 20.1869 66.2736 23.1291C66.8685 26.5563 64.2238 31.8716 62.2709 34.8397C55.2312 45.5134 47.3789 55.5427 38.714 64.9276C38.3691 65.3026 38.1838 65.2358 38.1579 64.7271C37.2979 45.6514 36.4379 24.5776 29.3766 7.16369C29.3163 7.01682 29.2069 6.89564 29.0675 6.82121C28.9281 6.74678 28.7675 6.72382 28.6136 6.75631L7.28111 11.3151C7.18315 11.3365 7.09408 11.3841 7.02507 11.452C6.95605 11.5198 6.91015 11.6049 6.89313 11.6966C6.76811 12.3734 6.85648 13.02 7.15825 13.6365C7.20028 13.7204 7.26822 13.7898 7.35343 13.8359C7.43863 13.8819 7.53725 13.9026 7.63675 13.8952Z" fill="#391085"/>
<path d="M35.9723 73.812C35.3472 73.8077 35.2588 73.5878 35.7072 73.1524C45.4067 63.6296 54.2613 53.3934 62.2709 42.4437C66.4223 36.7727 70.3926 30.1512 72.9145 23.5814C73.8327 21.1802 74.0871 21.6178 73.6775 24.8941C73.6129 25.3898 73.5805 25.864 73.5805 26.3167C73.5159 42.0557 73.5331 57.6935 73.6323 73.23C73.6331 73.3155 73.6172 73.4003 73.5854 73.4795C73.5536 73.5587 73.5066 73.6307 73.4471 73.6915C73.3876 73.7522 73.3167 73.8004 73.2386 73.8333C73.1605 73.8662 73.0767 73.8831 72.9921 73.8831L35.9723 73.812Z" fill="#391085"/>
<path d="M97.2608 14.3398C97.0217 14.2066 96.5777 14.1349 95.9288 14.1247C95.7456 14.1213 95.5804 14.0711 95.4575 13.9812C94.6839 13.4074 96.3591 13.6175 96.6511 13.6124C99.6276 13.5867 105.227 12.9617 107.819 14.3245C113.424 17.2753 109.95 23.054 105.309 24.1452C105.114 24.1896 105.025 24.2818 105.043 24.4218C105.05 24.4814 105.085 24.5438 105.145 24.6019C105.205 24.6599 105.287 24.7111 105.381 24.7497C108.951 26.179 109.448 29.7189 107.584 32.7056C104.418 37.7825 95.2218 36.3122 90.1962 36.471C90.119 36.4741 90.0437 36.4518 89.9851 36.4083C89.9264 36.3647 89.8885 36.3031 89.8786 36.2353C89.7966 35.7094 90.1569 35.5113 90.9595 35.6411C91.9056 35.7948 92.5391 35.3132 92.8601 34.1964L98.019 16.1277C98.2444 15.3388 97.9916 14.7428 97.2608 14.3398ZM99.3765 23.5099C108.649 25.1134 110.078 12.7466 101.564 15.0673C101.489 15.0877 101.42 15.1277 101.364 15.1833C101.309 15.239 101.268 15.3084 101.246 15.3849L99.0231 22.9413C99.0049 23.0015 98.9998 23.0648 99.0081 23.1273C99.0164 23.1897 99.038 23.2497 99.0714 23.3034C99.1047 23.3571 99.1492 23.4033 99.2018 23.4389C99.2544 23.4745 99.314 23.4987 99.3765 23.5099ZM103.962 32.4956C105.386 30.6462 105.56 27.4751 103.639 25.9177C102.455 24.9597 100.437 24.8111 98.8847 24.8777C98.7622 24.8835 98.6443 24.9287 98.5478 25.0069C98.4512 25.085 98.3809 25.1922 98.3468 25.3132L95.8161 34.2271C95.7919 34.3126 95.7873 34.4024 95.8026 34.4898C95.818 34.5772 95.853 34.6599 95.9048 34.7315C95.9567 34.8031 96.0241 34.8618 96.1019 34.9032C96.1798 34.9445 96.266 34.9673 96.354 34.97C99.3817 35.0417 101.928 35.139 103.962 32.4956Z" fill="#262626"/>
<path d="M115.524 30.4057C115.058 32.8596 116.692 34.3811 119.013 34.4375C120.98 34.4887 122.737 33.3104 124.361 32.2909C124.751 32.0502 125.171 32.2756 124.817 32.7213C122.809 35.2315 118.752 37.4703 115.555 36.3842C112.532 35.3545 111.892 31.6045 112.911 28.8329C114.489 24.5331 117.445 22.0279 121.779 21.3176C126.641 20.5184 127.512 25.0419 124.095 27.419C121.783 29.031 119.027 29.9395 115.826 30.1444C115.754 30.1486 115.684 30.1766 115.63 30.2239C115.575 30.2712 115.538 30.3352 115.524 30.4057ZM122.753 22.3575C119.208 21.7735 116.39 25.9795 115.744 28.9559C115.739 28.9828 115.741 29.0106 115.75 29.0366C115.758 29.0627 115.773 29.0862 115.793 29.1051C115.813 29.1239 115.837 29.1375 115.863 29.1445C115.89 29.1516 115.918 29.1519 115.944 29.1454C119.059 28.459 121.052 28.126 123.06 25.5133C123.856 24.475 123.893 23.5034 123.173 22.5983C123.07 22.4728 122.921 22.3873 122.753 22.3575Z" fill="#262626"/>
<path d="M155.995 27.1779C155.404 28.5509 155.575 28.6789 156.508 27.5621C157.529 25.8852 158.724 24.3483 160.094 22.9515C160.51 23.1666 160.731 23.5013 160.754 23.9556C157.459 26.9542 155.138 30.5693 153.792 34.8009C153.424 35.9689 152.532 36.8244 151.318 36.4146C151.142 36.3537 150.995 36.2269 150.91 36.0607C150.826 35.8945 150.808 35.7019 150.862 35.5232L153.838 25.6871C153.982 25.2158 154.064 24.7155 154.084 24.1861C154.115 23.445 153.768 23.1991 153.044 23.4484C152.522 23.6328 152.076 23.9317 151.707 24.3449C150.391 25.8255 148.936 27.2957 148.034 29.0478C146.928 31.1994 146.05 33.4518 145.401 35.805C145.38 35.8844 145.342 35.9574 145.289 36.018C145.237 36.0785 145.172 36.1249 145.099 36.1533C144.375 36.4334 143.762 36.5171 143.26 36.4044C143.184 36.3873 143.113 36.3549 143.05 36.3091C142.987 36.2632 142.935 36.2049 142.896 36.1378C142.856 36.0706 142.831 35.996 142.821 35.9185C142.812 35.841 142.818 35.7623 142.839 35.6872L146.154 23.9761C146.417 23.0471 146.236 22.5877 145.611 22.598C145.334 22.6031 143.89 22.5468 143.874 22.0857C143.872 22.0387 143.903 21.9908 143.961 21.9518C144.019 21.9128 144.1 21.8855 144.187 21.8756L148.695 21.348C148.794 21.3365 148.895 21.3498 148.987 21.3865C149.08 21.4233 149.162 21.4823 149.225 21.5582C149.288 21.634 149.33 21.724 149.347 21.8199C149.365 21.9158 149.357 22.0143 149.325 22.1062C148.755 23.7592 148.335 25.3729 148.065 26.9474C147.973 27.5109 148.464 27.0908 148.557 26.9371C149.843 24.7445 152.419 20.7998 155.468 21.2968C157.983 21.7117 156.61 25.3388 155.995 27.1779Z" fill="#262626"/>
<path d="M160.755 23.9556C160.731 23.5013 160.51 23.1666 160.094 22.9515C161.17 21.7937 163.67 20.4361 165.007 21.9217C166.446 23.5252 163.531 30.7435 162.394 33.8173C161.426 36.4402 164.458 33.3203 164.709 33.0386C164.776 32.9653 164.849 32.906 164.923 32.8652C164.997 32.8244 165.069 32.8031 165.135 32.8029C166.733 32.8029 162.04 36.3839 161.549 36.5478C158.962 37.4136 159.597 34.4423 160.032 33.1205C160.876 30.5864 161.69 28.0471 162.476 25.5027C162.886 24.1656 162.824 22.4955 160.755 23.9556Z" fill="#262626"/>
<path d="M169.661 35.4879C169.034 34.9393 168.561 34.2274 168.269 33.3928C167.977 32.5582 167.872 31.6173 167.959 30.6237C168.046 29.6302 168.324 28.6035 168.777 27.6022C169.23 26.601 169.849 25.6449 170.598 24.7884C172.113 23.0586 174.068 21.8399 176.033 21.4002C177.999 20.9606 179.814 21.336 181.08 22.444C181.707 22.9926 182.179 23.7045 182.471 24.5391C182.764 25.3737 182.869 26.3146 182.782 27.3082C182.695 28.3017 182.417 29.3284 181.964 30.3297C181.511 31.3309 180.892 32.287 180.142 33.1435C178.628 34.8732 176.673 36.092 174.707 36.5317C172.742 36.9713 170.926 36.5959 169.661 35.4879ZM172.395 35.5004C173.318 35.9132 174.513 35.6168 175.716 34.6765C176.92 33.7362 178.034 32.229 178.814 30.4864C179.2 29.6236 179.492 28.729 179.674 27.8536C179.855 26.9782 179.923 26.1393 179.873 25.3846C179.823 24.63 179.656 23.9745 179.381 23.4554C179.107 22.9364 178.73 22.5641 178.274 22.3597C177.351 21.947 176.156 22.2433 174.953 23.1836C173.749 24.1239 172.635 25.6312 171.855 27.3737C171.469 28.2366 171.177 29.1312 170.995 30.0066C170.814 30.8819 170.746 31.7209 170.796 32.4755C170.846 33.2302 171.013 33.8857 171.288 34.4047C171.562 34.9237 171.939 35.2961 172.395 35.5004Z" fill="#262626"/>
<path d="M190.96 24.1711C191.098 24.289 191.247 24.1967 191.349 24.0738C192.493 22.7282 193.677 21.8641 194.899 21.4816C198.665 20.3084 200.745 23.249 200.079 26.7429C199.003 32.3627 194.003 38.5103 187.65 36.1384C187.617 36.1258 187.582 36.1199 187.548 36.1209C187.513 36.122 187.479 36.13 187.448 36.1445C187.417 36.159 187.39 36.1796 187.368 36.2051C187.346 36.2305 187.331 36.2601 187.322 36.292L185.827 42.1835C185.807 42.2562 185.814 42.3345 185.845 42.4065C185.876 42.4785 185.931 42.5404 186.001 42.5831C186.405 42.829 188.572 43.2798 188.332 43.6691C188.298 43.7258 188.24 43.7717 188.165 43.8016C188.09 43.8316 188 43.8442 187.906 43.8382C185.594 43.6811 183.28 43.6862 180.965 43.8535C180.729 43.8689 180.089 43.7665 180.294 43.4437C180.327 43.39 180.384 43.3424 180.459 43.3049C180.534 43.2675 180.625 43.2413 180.724 43.2285C182.968 42.9468 183.122 41.4867 183.788 39.2736C185.318 34.178 186.805 28.9594 188.25 23.6178C188.431 22.9553 188.176 22.6137 187.486 22.5933C187.24 22.583 185.796 22.4498 185.76 22.1117C185.755 22.0513 185.785 21.9901 185.845 21.9412C185.904 21.8923 185.988 21.8597 186.078 21.8504L191.088 21.3125C191.123 21.3089 191.158 21.3122 191.191 21.3222C191.224 21.3322 191.254 21.3485 191.279 21.3699C191.303 21.3913 191.321 21.4172 191.332 21.4455C191.342 21.4738 191.345 21.5037 191.339 21.5328L190.929 23.7613C190.911 23.8584 190.905 23.9504 190.91 24.0241C190.916 24.0978 190.933 24.1492 190.96 24.1711ZM196.482 23.3053C195.598 22.776 194.763 22.7333 193.977 23.1773C189.945 25.4519 189.064 29.6834 188.035 33.915C187.884 34.5332 188.099 34.9669 188.68 35.2162C194.121 37.5728 197.486 28.7203 197.281 24.6373C197.251 24.0533 196.984 23.6093 196.482 23.3053Z" fill="#262626"/>
<path d="M132.609 28.5301C135.801 28.1305 136.549 26.2555 137.855 23.612C138.721 21.8549 139.956 20.8354 141.964 22.0085C143.166 22.7121 143.379 23.472 142.604 24.2883C141.381 25.5656 140.429 25.4238 139.746 23.8631C139.496 23.2961 139.238 23.2927 138.972 23.8528C138.122 25.6322 137.076 27.2818 135.837 28.8016C135.792 28.8564 135.768 28.9256 135.769 28.9974C135.77 29.0693 135.796 29.1394 135.842 29.1961C137.768 31.5424 138.378 34.5034 141.118 35.9276C141.576 36.1667 141.549 36.2931 141.036 36.3067L137.717 36.3989C137.578 36.4018 137.441 36.3635 137.32 36.2883C137.198 36.2132 137.098 36.1042 137.03 35.9737C135.816 33.6684 134.679 30.569 132.486 29.0577C132.452 29.0341 132.413 29.0187 132.371 29.0128C132.33 29.0068 132.288 29.0104 132.248 29.0232C132.209 29.0361 132.173 29.0579 132.143 29.087C132.113 29.1161 132.09 29.1516 132.076 29.1909C131.441 30.9976 130.91 32.8231 130.483 34.6674C130.125 36.2145 129.336 36.8241 127.773 36.2914C127.693 36.2638 127.626 36.2054 127.587 36.1282C127.548 36.051 127.539 35.9609 127.563 35.8764L130.944 23.9758C131.146 23.2654 130.874 22.9375 130.13 22.9922L129.141 23.0588C129.06 23.0645 128.98 23.0466 128.915 23.0077C128.849 22.9688 128.801 22.9111 128.777 22.8436C128.439 21.86 132.696 21.7012 133.424 21.6243C133.509 21.6151 133.594 21.6277 133.673 21.6612C133.752 21.6946 133.822 21.7479 133.877 21.8164C133.932 21.8848 133.97 21.9665 133.988 22.0544C134.007 22.1423 134.005 22.2338 133.982 22.321L132.404 28.3047C132.396 28.3328 132.396 28.3625 132.403 28.391C132.41 28.4194 132.424 28.446 132.444 28.4682C132.464 28.4904 132.49 28.5076 132.519 28.5184C132.548 28.5292 132.579 28.5332 132.609 28.5301Z" fill="#262626"/>
<path d="M95.2572 58.135V56.805C93.8572 56.7676 92.7372 56.371 91.8972 55.615C91.0572 54.859 90.6372 53.9256 90.6372 52.815C90.6372 51.7043 91.0572 50.771 91.8972 50.015C92.7372 49.259 93.8572 48.8623 95.2572 48.825V47.775H96.3072V48.825C97.7072 48.8623 98.8272 49.259 99.6672 50.015C100.507 50.771 100.927 51.7043 100.927 52.815C100.927 53.9256 100.507 54.859 99.6672 55.615C98.8272 56.371 97.7072 56.7676 96.3072 56.805V58.135H95.2572ZM95.2572 55.825V49.805C94.1279 49.8423 93.2505 50.1363 92.6252 50.687C91.9999 51.2376 91.6872 51.947 91.6872 52.815C91.6872 53.683 91.9999 54.3923 92.6252 54.943C93.2505 55.4936 94.1279 55.7876 95.2572 55.825ZM96.3072 49.805V55.825C97.4365 55.7876 98.3139 55.4936 98.9392 54.943C99.5645 54.3923 99.8772 53.683 99.8772 52.815C99.8772 51.947 99.5645 51.2376 98.9392 50.687C98.3139 50.1363 97.4365 49.8423 96.3072 49.805ZM106.873 57.855V56.945C106.733 57.141 106.556 57.3183 106.341 57.477C105.847 57.8223 105.301 57.995 104.703 57.995C104.022 57.995 103.453 57.799 102.995 57.407C102.547 57.0056 102.323 56.5483 102.323 56.035C102.323 54.8963 102.977 54.2196 104.283 54.005L106.873 53.585C106.873 53.0903 106.715 52.689 106.397 52.381C106.089 52.0636 105.688 51.905 105.193 51.905C104.708 51.905 104.246 52.0683 103.807 52.395C103.602 52.5723 103.434 52.7356 103.303 52.885L102.673 52.255C102.851 52.0216 103.07 51.8116 103.331 51.625C103.901 51.205 104.521 50.995 105.193 50.995C105.959 50.995 106.593 51.2423 107.097 51.737C107.601 52.2316 107.853 52.8476 107.853 53.585V57.855H106.873ZM106.873 54.845V54.425L104.563 54.845C103.723 54.9943 103.303 55.391 103.303 56.035C103.303 56.3336 103.425 56.5856 103.667 56.791C103.919 56.987 104.265 57.085 104.703 57.085C105.347 57.085 105.87 56.8796 106.271 56.469C106.673 56.0583 106.873 55.517 106.873 54.845ZM115.057 55.965L115.757 56.595C115.57 56.8283 115.323 57.0616 115.015 57.295C114.361 57.7616 113.675 57.995 112.957 57.995C112.033 57.995 111.239 57.6543 110.577 56.973C109.923 56.2916 109.597 55.4656 109.597 54.495C109.597 53.5243 109.923 52.6983 110.577 52.017C111.239 51.3356 112.033 50.995 112.957 50.995C113.685 50.995 114.357 51.219 114.973 51.667C115.225 51.8536 115.463 52.073 115.687 52.325L114.987 53.025C114.837 52.8196 114.665 52.633 114.469 52.465C114.021 52.0916 113.517 51.905 112.957 51.905C112.313 51.905 111.753 52.157 111.277 52.661C110.81 53.1556 110.577 53.767 110.577 54.495C110.577 55.223 110.81 55.839 111.277 56.343C111.753 56.8376 112.313 57.085 112.957 57.085C113.489 57.085 114.007 56.8983 114.511 56.525C114.725 56.3476 114.907 56.161 115.057 55.965ZM121.352 57.855V56.945C121.212 57.141 121.035 57.3183 120.82 57.477C120.325 57.8223 119.779 57.995 119.182 57.995C118.501 57.995 117.931 57.799 117.474 57.407C117.026 57.0056 116.802 56.5483 116.802 56.035C116.802 54.8963 117.455 54.2196 118.762 54.005L121.352 53.585C121.352 53.0903 121.193 52.689 120.876 52.381C120.568 52.0636 120.167 51.905 119.672 51.905C119.187 51.905 118.725 52.0683 118.286 52.395C118.081 52.5723 117.913 52.7356 117.782 52.885L117.152 52.255C117.329 52.0216 117.549 51.8116 117.81 51.625C118.379 51.205 119 50.995 119.672 50.995C120.437 50.995 121.072 51.2423 121.576 51.737C122.08 52.2316 122.332 52.8476 122.332 53.585V57.855H121.352ZM121.352 54.845V54.425L119.042 54.845C118.202 54.9943 117.782 55.391 117.782 56.035C117.782 56.3336 117.903 56.5856 118.146 56.791C118.398 56.987 118.743 57.085 119.182 57.085C119.826 57.085 120.349 56.8796 120.75 56.469C121.151 56.0583 121.352 55.517 121.352 54.845ZM123.445 59.535V56.945H123.935C124.159 56.7116 124.355 56.4036 124.523 56.021C124.925 55.1623 125.125 54.187 125.125 53.095V51.135H129.745V56.945H130.795V59.535H129.815V57.855H124.425V59.535H123.445ZM124.985 56.945H128.765V52.045H126.105V53.095C126.105 54.1496 125.919 55.1156 125.545 55.993C125.377 56.3663 125.191 56.6836 124.985 56.945ZM132.331 57.855V51.135H133.311V54.005H137.161V51.135H138.141V57.855H137.161V54.915H133.311V57.855H132.331ZM145.746 56.987C145.083 57.659 144.276 57.995 143.324 57.995C142.372 57.995 141.56 57.659 140.888 56.987C140.225 56.3056 139.894 55.475 139.894 54.495C139.894 53.515 140.225 52.689 140.888 52.017C141.56 51.3356 142.372 50.995 143.324 50.995C144.276 50.995 145.083 51.3356 145.746 52.017C146.418 52.689 146.754 53.515 146.754 54.495C146.754 55.475 146.418 56.3056 145.746 56.987ZM141.588 56.329C142.073 56.833 142.652 57.085 143.324 57.085C143.996 57.085 144.57 56.8376 145.046 56.343C145.531 55.839 145.774 55.223 145.774 54.495C145.774 53.767 145.531 53.1556 145.046 52.661C144.57 52.157 143.996 51.905 143.324 51.905C142.652 51.905 142.073 52.157 141.588 52.661C141.112 53.1556 140.874 53.767 140.874 54.495C140.874 55.2136 141.112 55.825 141.588 56.329ZM153.545 55.965L154.175 56.595C153.997 56.8376 153.759 57.071 153.461 57.295C152.807 57.7616 152.112 57.995 151.375 57.995C150.451 57.995 149.657 57.6543 148.995 56.973C148.341 56.2916 148.015 55.4656 148.015 54.495C148.015 53.5243 148.341 52.6983 148.995 52.017C149.648 51.3356 150.418 50.995 151.305 50.995C152.229 50.995 152.994 51.3123 153.601 51.947C154.217 52.5816 154.525 53.3843 154.525 54.355C154.525 54.4016 154.511 54.523 154.483 54.719L154.455 54.859L148.995 54.845C149.032 55.4516 149.279 55.979 149.737 56.427C150.203 56.8656 150.749 57.085 151.375 57.085C151.944 57.085 152.481 56.8983 152.985 56.525C153.227 56.329 153.414 56.1423 153.545 55.965ZM148.995 54.005H153.545C153.47 53.3983 153.223 52.899 152.803 52.507C152.392 52.1056 151.893 51.905 151.305 51.905C150.717 51.905 150.203 52.1103 149.765 52.521C149.326 52.9316 149.069 53.4263 148.995 54.005ZM164.572 56.987C163.909 57.659 163.102 57.995 162.15 57.995C161.198 57.995 160.386 57.659 159.714 56.987C159.051 56.3056 158.72 55.475 158.72 54.495C158.72 53.515 159.051 52.689 159.714 52.017C160.386 51.3356 161.198 50.995 162.15 50.995C163.102 50.995 163.909 51.3356 164.572 52.017C165.244 52.689 165.58 53.515 165.58 54.495C165.58 55.475 165.244 56.3056 164.572 56.987ZM160.414 56.329C160.899 56.833 161.478 57.085 162.15 57.085C162.822 57.085 163.396 56.8376 163.872 56.343C164.357 55.839 164.6 55.223 164.6 54.495C164.6 53.767 164.357 53.1556 163.872 52.661C163.396 52.157 162.822 51.905 162.15 51.905C161.478 51.905 160.899 52.157 160.414 52.661C159.938 53.1556 159.7 53.767 159.7 54.495C159.7 55.2136 159.938 55.825 160.414 56.329ZM172.301 55.965L173.001 56.595C172.814 56.8283 172.567 57.0616 172.259 57.295C171.606 57.7616 170.92 57.995 170.201 57.995C169.277 57.995 168.484 57.6543 167.821 56.973C167.168 56.2916 166.841 55.4656 166.841 54.495C166.841 53.5243 167.168 52.6983 167.821 52.017C168.484 51.3356 169.277 50.995 170.201 50.995C170.929 50.995 171.601 51.219 172.217 51.667C172.469 51.8536 172.707 52.073 172.931 52.325L172.231 53.025C172.082 52.8196 171.909 52.633 171.713 52.465C171.265 52.0916 170.761 51.905 170.201 51.905C169.557 51.905 168.997 52.157 168.521 52.661C168.054 53.1556 167.821 53.767 167.821 54.495C167.821 55.223 168.054 55.839 168.521 56.343C168.997 56.8376 169.557 57.085 170.201 57.085C170.733 57.085 171.251 56.8983 171.755 56.525C171.97 56.3476 172.152 56.161 172.301 55.965ZM176.076 57.855V52.045H173.696V51.135H179.436V52.045H177.056V57.855H176.076ZM185.742 55.965L186.372 56.595C186.195 56.8376 185.957 57.071 185.658 57.295C185.005 57.7616 184.309 57.995 183.572 57.995C182.648 57.995 181.855 57.6543 181.192 56.973C180.539 56.2916 180.212 55.4656 180.212 54.495C180.212 53.5243 180.539 52.6983 181.192 52.017C181.845 51.3356 182.615 50.995 183.502 50.995C184.426 50.995 185.191 51.3123 185.798 51.947C186.414 52.5816 186.722 53.3843 186.722 54.355C186.722 54.4016 186.708 54.523 186.68 54.719L186.652 54.859L181.192 54.845C181.229 55.4516 181.477 55.979 181.934 56.427C182.401 56.8656 182.947 57.085 183.572 57.085C184.141 57.085 184.678 56.8983 185.182 56.525C185.425 56.329 185.611 56.1423 185.742 55.965ZM181.192 54.005H185.742C185.667 53.3983 185.42 52.899 185 52.507C184.589 52.1056 184.09 51.905 183.502 51.905C182.914 51.905 182.401 52.1103 181.962 52.521C181.523 52.9316 181.267 53.4263 181.192 54.005ZM188.468 57.855V51.135H189.448V54.705L192.808 51.135H193.998L191.408 53.865L194.278 57.855H193.158L190.778 54.565L189.448 55.965V57.855H188.468ZM194.416 57.855V56.875C194.472 56.9123 194.528 56.9356 194.584 56.945C194.705 56.9916 194.836 57.015 194.976 57.015C195.265 57.015 195.489 56.931 195.648 56.763C195.816 56.595 195.956 56.217 196.068 55.629C196.18 55.0316 196.236 54.187 196.236 53.095V51.135H201.136V57.855H200.156V52.045H197.216V53.095C197.216 54.0843 197.165 54.9103 197.062 55.573C196.969 56.2263 196.824 56.7256 196.628 57.071C196.432 57.4163 196.213 57.659 195.97 57.799C195.737 57.9296 195.452 57.995 195.116 57.995C194.948 57.995 194.785 57.9716 194.626 57.925C194.579 57.9156 194.509 57.8923 194.416 57.855ZM208.41 55.965L209.04 56.595C208.863 56.8376 208.625 57.071 208.326 57.295C207.673 57.7616 206.977 57.995 206.24 57.995C205.316 57.995 204.523 57.6543 203.86 56.973C203.207 56.2916 202.88 55.4656 202.88 54.495C202.88 53.5243 203.207 52.6983 203.86 52.017C204.513 51.3356 205.283 50.995 206.17 50.995C207.094 50.995 207.859 51.3123 208.466 51.947C209.082 52.5816 209.39 53.3843 209.39 54.355C209.39 54.4016 209.376 54.523 209.348 54.719L209.32 54.859L203.86 54.845C203.897 55.4516 204.145 55.979 204.602 56.427C205.069 56.8656 205.615 57.085 206.24 57.085C206.809 57.085 207.346 56.8983 207.85 56.525C208.093 56.329 208.279 56.1423 208.41 55.965ZM203.86 54.005H208.41C208.335 53.3983 208.088 52.899 207.668 52.507C207.257 52.1056 206.758 51.905 206.17 51.905C205.582 51.905 205.069 52.1103 204.63 52.521C204.191 52.9316 203.935 53.4263 203.86 54.005ZM211.136 57.855V51.135H212.116V54.005H215.966V51.135H216.946V57.855H215.966V54.915H212.116V57.855H211.136ZM219.188 57.855V51.135H220.168V56.175L224.228 51.135H225.068V57.855H224.088V52.815L220.028 57.855H219.188ZM232.349 55.965L232.979 56.595C232.802 56.8376 232.564 57.071 232.265 57.295C231.612 57.7616 230.917 57.995 230.179 57.995C229.255 57.995 228.462 57.6543 227.799 56.973C227.146 56.2916 226.819 55.4656 226.819 54.495C226.819 53.5243 227.146 52.6983 227.799 52.017C228.453 51.3356 229.223 50.995 230.109 50.995C231.033 50.995 231.799 51.3123 232.405 51.947C233.021 52.5816 233.329 53.3843 233.329 54.355C233.329 54.4016 233.315 54.523 233.287 54.719L233.259 54.859L227.799 54.845C227.837 55.4516 228.084 55.979 228.541 56.427C229.008 56.8656 229.554 57.085 230.179 57.085C230.749 57.085 231.285 56.8983 231.789 56.525C232.032 56.329 232.219 56.1423 232.349 55.965ZM227.799 54.005H232.349C232.275 53.3983 232.027 52.899 231.607 52.507C231.197 52.1056 230.697 51.905 230.109 51.905C229.521 51.905 229.008 52.1103 228.569 52.521C228.131 52.9316 227.874 53.4263 227.799 54.005Z" fill="#262626"/>
</svg>
