<svg width="48" height="49" viewBox="0 0 48 49" fill="none" xmlns="http://www.w3.org/2000/svg">
<g id="keys 1" clip-path="url(#clip0_34_904)">
<path id="Vector" d="M4.81031 0.978027H43.2009C45.8831 1.16271 47.8772 3.16896 48 5.85865V44.1555C47.7534 46.8808 45.9244 48.7943 43.1428 48.978H4.84594C2.17875 48.8299 0.160313 46.8368 0 44.1677V5.77709C0.165937 3.11646 2.15063 1.1599 4.81031 0.978027ZM25.0022 23.9552C25.0022 23.9574 25.0026 23.9596 25.0034 23.9617C25.0042 23.9637 25.0054 23.9656 25.0069 23.9671C25.0083 23.9687 25.0101 23.97 25.012 23.9708C25.014 23.9717 25.016 23.9721 25.0181 23.9721L45.9516 23.974C45.9637 23.974 45.9754 23.969 45.984 23.9602C45.9927 23.9514 45.9975 23.9395 45.9975 23.9271C46.0113 18.1783 46.0134 12.4296 46.0041 6.68084C46.0028 5.97709 45.9697 5.49428 45.9047 5.2324C45.5616 3.85428 44.3091 2.97115 42.8906 2.97115C36.9356 2.9699 30.9806 2.96959 25.0256 2.97021C25.0189 2.97025 25.0123 2.97153 25.0062 2.97396C25 2.9764 24.9945 2.97995 24.99 2.98437C24.9855 2.98879 24.9821 2.99398 24.98 2.99962C24.9779 3.00526 24.9771 3.01121 24.9778 3.01709C24.9834 3.07428 25.0059 3.1024 25.0059 3.15959C25.0109 10.079 25.0097 17.0108 25.0022 23.9552ZM4.10437 3.12021C2.82 3.51865 1.99313 4.70553 1.99313 6.06396C1.99125 12.0171 1.99125 17.9702 1.99313 23.9233C1.99313 23.9358 1.99796 23.9477 2.00658 23.9565C2.01519 23.9653 2.02688 23.9702 2.03906 23.9702L22.9425 23.9674C22.9547 23.9674 22.9664 23.9625 22.975 23.9537C22.9836 23.9449 22.9884 23.933 22.9884 23.9205L22.9894 3.0199C22.9894 3.01387 22.9882 3.0079 22.9858 3.00232C22.9835 2.99675 22.98 2.99169 22.9756 2.98742C22.9713 2.98315 22.9661 2.97977 22.9604 2.97746C22.9548 2.97515 22.9487 2.97396 22.9425 2.97396C17.2463 2.96834 11.5525 2.96771 5.86125 2.97209C5.00563 2.97334 4.42 3.02271 4.10437 3.12021ZM22.9978 46.9333L22.995 26.0083C22.995 26.0025 22.9938 25.9967 22.9915 25.9914C22.9891 25.9861 22.9857 25.9813 22.9813 25.9774C22.977 25.9735 22.9718 25.9705 22.9663 25.9688C22.9607 25.967 22.9549 25.9664 22.9491 25.9671C22.8122 25.9796 22.725 25.9858 22.6875 25.9858C15.8044 25.9858 8.92156 25.9858 2.03906 25.9858C2.02663 25.9858 2.01471 25.9907 2.00592 25.9993C1.99713 26.0079 1.99219 26.0196 1.99219 26.0318C1.99156 31.7805 1.99188 37.529 1.99313 43.2771C1.99375 43.9683 2.02875 44.4496 2.09812 44.7208C2.45437 46.1083 3.69469 46.9877 5.10938 46.9877C11.0794 46.9871 17.0494 46.9862 23.0194 46.9849C23.021 46.9848 23.0226 46.9844 23.0241 46.9836C23.0255 46.9828 23.0268 46.9817 23.0277 46.9804C23.0286 46.9792 23.0292 46.9777 23.0294 46.9762C23.0296 46.9747 23.0293 46.9732 23.0287 46.9718C23.0262 46.9668 23.0231 46.963 23.0194 46.9605C23.0128 46.9557 23.0073 46.9506 23.0035 46.9457C22.9997 46.9409 22.9977 46.9366 22.9978 46.9333ZM25.0556 25.9802C25.0427 25.9802 25.0303 25.9853 25.0212 25.9942C25.012 26.0032 25.0069 26.0153 25.0069 26.028V46.9399C25.0069 46.9521 25.0117 46.9638 25.0203 46.9724C25.0289 46.981 25.0406 46.9858 25.0528 46.9858C30.7547 46.9865 36.4566 46.9862 42.1584 46.9849C42.9822 46.9849 43.5556 46.9362 43.8788 46.8387C45.2381 46.428 46.0134 45.1962 46.0125 43.7983C46.01 37.8777 46.0084 31.9552 46.0078 26.0308C46.0078 26.0184 46.003 26.0065 45.9944 25.9977C45.9857 25.9889 45.9741 25.984 45.9619 25.984L25.0556 25.9802Z" fill="white"/>
<path id="Vector_2" d="M12.9722 15.0003C12.9797 15.035 13.0059 15.0959 13.0059 15.1259C13.0084 16.0509 13.0088 16.9753 13.0069 17.899C13.0041 19.07 11.4384 19.4037 11.0662 18.3115C11.0187 18.1734 10.9947 17.9393 10.9941 17.6093C10.9928 16.7462 10.9912 15.8831 10.9894 15.02C10.9894 15.0075 10.9844 14.9956 10.9756 14.9868C10.9669 14.978 10.9549 14.9731 10.9425 14.9731C10.0094 14.9693 9.07812 14.9687 8.14875 14.9712C6.61219 14.9759 6.6225 12.9828 8.14219 12.98C9.08094 12.9781 10.0075 12.9775 10.9219 12.9781C10.9413 12.9781 10.9599 12.9704 10.9736 12.9567C10.9873 12.9429 10.995 12.9243 10.995 12.905C10.9906 11.9368 10.9913 10.9931 10.9969 10.0737C11.0063 8.63276 12.9609 8.61964 13.0059 10.0484C13.0159 10.3609 13.0147 11.3234 13.0022 12.9359C13.0021 12.942 13.0032 12.9481 13.0054 12.9538C13.0077 12.9594 13.011 12.9646 13.0153 12.969C13.0196 12.9733 13.0247 12.9768 13.0303 12.9792C13.036 12.9815 13.042 12.9828 13.0481 12.9828C13.9219 12.9778 14.7953 12.9762 15.6684 12.9781C16.0178 12.9787 16.27 13.0128 16.425 13.0803C17.1834 13.4112 17.1759 14.5212 16.4334 14.8728C16.3066 14.9328 16.1231 14.9643 15.8831 14.9675C14.9262 14.9793 13.9697 14.9746 13.0134 14.9534C13.0073 14.9533 13.0013 14.9546 12.9957 14.957C12.9901 14.9595 12.9852 14.9631 12.9813 14.9676C12.9773 14.9721 12.9744 14.9773 12.9729 14.983C12.9713 14.9886 12.9711 14.9945 12.9722 15.0003Z" fill="white"/>
<path id="Vector_3" d="M40.0172 12.979H31.9828C31.4454 12.979 31.0097 13.4147 31.0097 13.9521V13.9971C31.0097 14.5346 31.4454 14.9703 31.9828 14.9703H40.0172C40.5546 14.9703 40.9903 14.5346 40.9903 13.9971V13.9521C40.9903 13.4147 40.5546 12.979 40.0172 12.979Z" fill="white"/>
<path id="Vector_4" d="M40.0041 32.9731H31.9959C31.4528 32.9731 31.0125 33.4134 31.0125 33.9566V33.9997C31.0125 34.5428 31.4528 34.9831 31.9959 34.9831H40.0041C40.5472 34.9831 40.9875 34.5428 40.9875 33.9997V33.9566C40.9875 33.4134 40.5472 32.9731 40.0041 32.9731Z" fill="white"/>
<path id="Vector_5" d="M13.3566 36.9817C13.3559 37.0111 13.3709 37.0277 13.4016 37.0314C13.419 37.0335 13.435 37.0373 13.4486 37.0426C13.4621 37.0479 13.4729 37.0547 13.4803 37.0623C14.1478 37.7317 14.8156 38.4002 15.4837 39.0677C15.7444 39.3277 15.9003 39.5402 15.9516 39.7052C16.1784 40.4439 15.4519 41.1517 14.7272 40.9248C14.5547 40.8705 14.3587 40.7333 14.1394 40.5133C13.4581 39.8295 12.7762 39.1473 12.0937 38.4667C12.0525 38.4255 12.0037 38.2061 11.9484 38.3927C11.9384 38.4245 11.9234 38.4505 11.9034 38.4705C11.2328 39.138 10.5641 39.807 9.89719 40.4777C9.66344 40.712 9.46031 40.8586 9.28781 40.9173C8.50031 41.1864 7.7475 40.3436 8.09344 39.5861C8.14719 39.468 8.26562 39.3173 8.44875 39.1342C9.15812 38.4255 9.86719 37.7167 10.5759 37.008C10.5847 36.9989 10.5896 36.9869 10.5896 36.9744C10.5896 36.962 10.5847 36.9501 10.5759 36.9414C9.89281 36.2639 9.21062 35.5852 8.52937 34.9052C8.27687 34.6527 8.12 34.4355 8.05875 34.2536C7.79625 33.468 8.64094 32.7348 9.39375 33.0723C9.50812 33.123 9.65 33.233 9.81937 33.4023C10.5087 34.093 11.1991 34.7827 11.8903 35.4714C12.0891 35.6692 11.9119 35.673 12.1097 35.4742C12.8184 34.7605 13.5306 34.0505 14.2462 33.3442C15.2634 32.3402 16.6462 33.7005 15.6206 34.7448C14.94 35.4367 14.2541 36.1236 13.5628 36.8055C13.5028 36.8642 13.4516 36.9036 13.4091 36.9236C13.3936 36.9308 13.3803 36.9402 13.371 36.9506C13.3616 36.9609 13.3566 36.9718 13.3566 36.9817Z" fill="white"/>
<path id="Vector_6" d="M40.0041 38.9731H31.9959C31.4528 38.9731 31.0125 39.4134 31.0125 39.9566V39.9997C31.0125 40.5428 31.4528 40.9831 31.9959 40.9831H40.0041C40.5472 40.9831 40.9875 40.5428 40.9875 39.9997V39.9566C40.9875 39.4134 40.5472 38.9731 40.0041 38.9731Z" fill="white"/>
</g>
<defs>
<clipPath id="clip0_34_904">
<rect width="48" height="48" fill="white" transform="translate(0 0.978027)"/>
</clipPath>
</defs>
</svg>
