<svg width="32" height="32" viewBox="0 0 32 32" fill="none" xmlns="http://www.w3.org/2000/svg">
<path id="Vector" d="M31.8634 31.2023L16.6592 15.9629L31.7901 0.797455C31.9722 0.615281 31.9722 0.319247 31.7901 0.136751C31.608 -0.0454234 31.3133 -0.0454234 31.1312 0.136751L16.0003 15.3022L0.870322 0.136751C0.688242 -0.0457441 0.393521 -0.0454234 0.211441 0.136751C0.0293601 0.319247 0.0293601 0.61496 0.211441 0.797455L15.3414 15.9629L0.13656 31.2023C-0.0455201 31.3848 -0.0455201 31.6806 0.13656 31.8631C0.227441 31.9541 0.346801 32 0.466161 32C0.585521 32 0.704562 31.9541 0.795762 31.8631L16.0006 16.6236L31.2048 31.8631C31.2957 31.9541 31.415 32 31.5344 32C31.6538 32 31.7728 31.9541 31.864 31.8631C32.0454 31.6806 32.0454 31.3848 31.8634 31.2023Z" fill="#262626"/>
</svg>
