<svg width="18" height="25" viewBox="0 0 18 25" fill="none" xmlns="http://www.w3.org/2000/svg">
<path id="Vector" d="M8.50905 24.62C8.49107 24.6089 8.47623 24.5949 8.46453 24.578C6.15975 21.2454 3.72389 17.9579 1.79352 14.39C0.877253 12.6968 -0.0659819 10.6832 0.00363181 8.78935C0.179234 3.9828 4.31028 0.291436 9.1431 0.485328C12.4701 0.618706 15.4165 2.64778 16.7693 5.63582C17.4591 7.15979 17.7257 9.00979 17.2816 10.6418C16.7379 12.6382 15.6837 14.561 14.5836 16.3536C12.854 19.1712 10.9493 21.8382 9.06157 24.5341C8.92276 24.7326 8.73859 24.7612 8.50905 24.62ZM13.6028 9.4266C13.6028 8.79937 13.4773 8.17828 13.2335 7.59879C12.9897 7.0193 12.6324 6.49277 12.1819 6.04925C11.7315 5.60573 11.1967 5.25391 10.6082 5.01388C10.0196 4.77385 9.3888 4.65031 8.75176 4.65031C7.46519 4.65031 6.23132 5.15352 5.32158 6.04925C4.41184 6.94498 3.90075 8.15985 3.90075 9.4266C3.90075 10.6934 4.41184 11.9082 5.32158 12.804C6.23132 13.6997 7.46519 14.2029 8.75176 14.2029C9.3888 14.2029 10.0196 14.0794 10.6082 13.8393C11.1967 13.5993 11.7315 13.2475 12.1819 12.804C12.6324 12.3604 12.9897 11.8339 13.2335 11.2544C13.4773 10.6749 13.6028 10.0538 13.6028 9.4266Z" fill="url(#paint0_linear_426_1066)"/>
<defs>
<linearGradient id="paint0_linear_426_1066" x1="8.74973" y1="0.478027" x2="8.74973" y2="24.708" gradientUnits="userSpaceOnUse">
<stop stop-color="#FAAF1C"/>
<stop offset="1" stop-color="#D36718"/>
</linearGradient>
</defs>
</svg>
