<svg width="24" height="25" viewBox="0 0 24 25" fill="none" xmlns="http://www.w3.org/2000/svg">
<path d="M18.9394 15.6922C16.8548 18.3364 14.2266 20.6253 11.6063 22.5954C11.3719 22.7717 11.185 22.8814 11.0456 22.9245C10.5736 23.0703 10.2281 22.9133 9.83063 22.6081C8.55094 21.6253 7.27266 20.6406 5.99578 19.654C5.47313 19.25 5.41547 18.4606 5.84859 17.9651C5.92203 17.8811 6.05719 17.775 6.25406 17.6468C7.06344 17.1203 7.86953 16.5884 8.67234 16.0512C8.71234 16.0243 8.70844 16.0078 8.66063 16.0015C7.94063 15.9087 7.22406 15.7611 6.51094 15.5586C5.06578 15.1484 2.84344 14.1668 2.42297 12.5248C2.38016 12.3576 2.35781 12.1275 2.35594 11.8343C2.34469 10.1231 2.34047 8.412 2.34328 6.70106C2.34422 6.27856 2.36641 5.96763 2.40984 5.76825C2.96672 3.22716 6.70922 2.38059 8.84484 2.13778C10.6027 1.93809 12.3563 1.96981 14.1056 2.23294C15.4955 2.44153 17.0484 2.847 18.1969 3.60825C18.4822 3.79731 18.8742 4.10481 19.373 4.53075C20.25 5.28028 20.9728 6.26841 21.3375 7.36481C22.3355 10.3639 20.7445 13.4023 18.9394 15.6922ZM15.7364 3.37341C13.4897 2.70028 11.1131 2.57747 8.79188 2.88122C7.26047 3.08231 5.59031 3.52341 4.27734 4.40044C3.34875 5.02059 2.67234 6.02513 3.43641 7.09763C4.41703 8.47528 6.88266 9.13809 8.46844 9.37528C11.2355 9.78966 14.3616 9.60356 16.9538 8.47481C17.6611 8.16684 18.4842 7.67841 18.9066 7.00997C19.4063 6.21872 19.1292 5.29622 18.4256 4.74028C17.6339 4.11544 16.7128 3.66638 15.7364 3.37341ZM18.7289 14.6511C18.7319 14.6538 18.7353 14.6558 18.7391 14.6571C18.7429 14.6583 18.7469 14.6588 18.7509 14.6584C18.7548 14.658 18.7586 14.6568 18.762 14.6548C18.7654 14.6528 18.7684 14.6501 18.7706 14.6468C19.6973 13.3395 20.5631 11.802 20.8341 10.2256C21.0802 8.79356 20.7263 7.51809 19.9538 6.29091C19.9356 6.26216 19.9242 6.26466 19.9195 6.29841C19.8186 7.02591 19.4958 7.62591 18.9511 8.09841C18.9011 8.14185 18.8633 8.19372 18.8377 8.25403C18.6573 8.67153 18.4075 9.07013 18.0881 9.44981C17.3395 10.3386 16.5572 11.0609 15.6998 11.7823C13.403 13.7154 10.9402 15.4522 8.43938 17.1101C8.4356 17.1126 8.43246 17.116 8.43022 17.1199C8.42798 17.1238 8.4267 17.1282 8.42647 17.1328C8.42624 17.1373 8.42708 17.1419 8.42891 17.1461C8.43075 17.1503 8.43353 17.154 8.43703 17.157L12.7088 20.7368C12.714 20.7413 12.7205 20.744 12.7272 20.7445C12.734 20.745 12.7407 20.7433 12.7463 20.7397C12.7909 20.7112 12.8539 20.6636 12.9352 20.5967C13.4827 20.1454 14.0213 19.6837 14.5509 19.2115C14.5528 19.2098 14.5544 19.2078 14.5555 19.2055C14.5566 19.2032 14.5572 19.2007 14.5572 19.1981C14.5573 19.1956 14.5569 19.1931 14.556 19.1907C14.5551 19.1883 14.5537 19.1862 14.5519 19.1843C14.1856 18.8181 13.818 18.4501 13.4489 18.0804C13.3833 18.0151 13.3406 17.9601 13.3209 17.9154C13.1944 17.6314 13.4489 17.3183 13.7513 17.4026C13.8213 17.422 13.8998 17.4758 13.987 17.5639C14.357 17.9364 14.7252 18.3037 15.0914 18.6659C15.0983 18.6726 15.1074 18.6765 15.117 18.6766C15.1266 18.6768 15.1359 18.6733 15.143 18.6668C15.6245 18.2197 16.0886 17.7658 16.5352 17.3051C16.5382 17.3021 16.5405 17.2984 16.5421 17.2944C16.5436 17.2904 16.5442 17.2861 16.544 17.2818C16.5437 17.2775 16.5425 17.2733 16.5405 17.2695C16.5385 17.2657 16.5357 17.2623 16.5323 17.2597C16.1933 16.9878 15.855 16.7147 15.5175 16.4403C15.3548 16.3081 15.2475 16.2439 15.2363 16.0625C15.2213 15.8258 15.4186 15.6247 15.6609 15.6668C15.7359 15.6797 15.8242 15.727 15.9258 15.8089C16.3017 16.112 16.6778 16.4151 17.0541 16.7183C17.0586 16.722 17.0645 16.7238 17.0704 16.7232C17.0764 16.7227 17.0819 16.7199 17.0859 16.7154C17.4975 16.2608 17.895 15.7923 18.2784 15.3101C18.2837 15.3034 18.2863 15.295 18.2857 15.2865C18.2851 15.278 18.2813 15.2701 18.2752 15.2642C17.9814 14.982 17.6866 14.6976 17.3906 14.4111C17.0217 14.0539 17.5416 13.5097 17.933 13.8931C18.1814 14.1365 18.4467 14.3892 18.7289 14.6511ZM10.9833 10.3203C9.59891 10.3109 8.23531 10.1409 6.8925 9.81028C5.58984 9.48966 4.17469 8.91075 3.17484 7.94888C3.11703 7.89325 3.08844 7.90544 3.08906 7.98544C3.1 9.32044 3.10578 10.6268 3.10641 11.9047C3.10688 12.7433 3.64828 13.3395 4.31063 13.767C4.32406 13.7758 4.33078 13.7722 4.33078 13.7562C4.33703 13.0668 4.33859 12.3775 4.33547 11.6881C4.33313 11.0909 5.07984 11.1115 5.08172 11.6703C5.08484 12.5115 5.08625 13.3548 5.08594 14.2001C5.08593 14.2072 5.08791 14.2141 5.09164 14.22C5.09537 14.226 5.1007 14.2308 5.10703 14.2339C5.59797 14.4717 6.10172 14.6648 6.61828 14.8133C6.62136 14.8142 6.62461 14.8144 6.62778 14.8138C6.63095 14.8133 6.63396 14.812 6.63655 14.81C6.63915 14.808 6.64127 14.8055 6.64273 14.8026C6.6442 14.7996 6.64498 14.7964 6.645 14.7931C6.64406 14.0787 6.64406 13.3662 6.645 12.6556C6.64594 12.0233 7.40484 12.0462 7.395 12.6425C7.39 12.9678 7.39094 13.7503 7.39781 14.99C7.39794 14.9968 7.40032 15.0034 7.40457 15.0086C7.40882 15.0139 7.4147 15.0176 7.42125 15.019C7.9225 15.1343 8.42656 15.2233 8.93344 15.2858C8.936 15.286 8.93858 15.2858 8.94103 15.285C8.94347 15.2842 8.94571 15.2829 8.94762 15.2812C8.94952 15.2796 8.95104 15.2775 8.95207 15.2752C8.9531 15.2729 8.95362 15.2704 8.95359 15.2679C8.95234 14.5651 8.9525 13.8628 8.95406 13.1609C8.95438 12.9915 8.96719 12.8758 8.9925 12.8136C9.10266 12.5403 9.495 12.5117 9.65063 12.7695C9.68531 12.8267 9.70266 12.917 9.70266 13.0404C9.70328 13.8014 9.70344 14.5623 9.70313 15.3233C9.70313 15.3367 9.70859 15.3397 9.71953 15.3322C11.1092 14.3775 12.4716 13.3837 13.8066 12.3509C15.0722 11.3717 16.3261 10.3287 17.3972 9.13575C17.3999 9.1328 17.4018 9.12953 17.4029 9.12631C17.404 9.12308 17.4041 9.12002 17.4033 9.11747L17.3995 9.10763C17.3988 9.10553 17.3974 9.10373 17.3955 9.10237C17.3936 9.10101 17.3912 9.10012 17.3885 9.09976C17.3858 9.0994 17.3829 9.09959 17.3799 9.1003C17.377 9.10101 17.3741 9.10223 17.3714 9.10388C17.3164 9.13888 17.2788 9.16075 17.2584 9.1695C15.2859 10.0226 13.1213 10.3348 10.9833 10.3203ZM12.1116 21.2159L7.77422 17.5798C7.76894 17.5754 7.76238 17.5727 7.75553 17.5723C7.74868 17.5719 7.74192 17.5737 7.73625 17.5775C7.34531 17.829 6.95547 18.0826 6.56672 18.3383C6.26531 18.5365 6.2025 18.8689 6.51609 19.1103C7.78672 20.0893 9.05766 21.0681 10.3289 22.0465C10.5427 22.2106 10.7377 22.3142 10.9655 22.1426C11.3417 21.8595 11.7234 21.5651 12.1106 21.2595C12.1139 21.2569 12.1166 21.2537 12.1185 21.2499C12.1203 21.2462 12.1214 21.2421 12.1215 21.2379C12.1215 21.2338 12.1207 21.2296 12.119 21.2258C12.1173 21.222 12.1147 21.2186 12.1116 21.2159Z" fill="url(#paint0_linear_50_987)"/>
<path d="M9.69937 3.8323C11.0972 3.63918 12.6745 3.71418 14.0503 4.18152C14.7797 4.42949 15.6253 4.90902 15.8897 5.69137C16.3359 7.0123 14.8327 7.89684 13.7939 8.20527C12.7777 8.50652 11.7259 8.62637 10.6387 8.5648C9.44578 8.49684 8.17734 8.2648 7.17562 7.57621C6.5925 7.17543 6.16266 6.53418 6.35391 5.77762C6.67453 4.50871 8.595 3.98465 9.69937 3.8323ZM7.47984 6.86324C8.16375 7.39059 9.07312 7.63152 9.92578 7.74402C11.0898 7.89777 12.2212 7.83324 13.32 7.55043C13.8267 7.41965 14.3897 7.19512 14.7966 6.8609C15.9708 5.89668 14.4061 5.07402 13.628 4.83918C11.8416 4.29918 9.58312 4.29262 7.92609 5.14809C7.23703 5.50387 6.61594 6.19668 7.47984 6.86324Z" fill="url(#paint1_linear_50_987)"/>
<defs>
<linearGradient id="paint0_linear_50_987" x1="11.9941" y1="2.00854" x2="11.9941" y2="22.9795" gradientUnits="userSpaceOnUse">
<stop stop-color="#FAAF1C"/>
<stop offset="1" stop-color="#D36718"/>
</linearGradient>
<linearGradient id="paint1_linear_50_987" x1="11.1391" y1="3.73315" x2="11.1391" y2="8.58047" gradientUnits="userSpaceOnUse">
<stop stop-color="#FAAF1C"/>
<stop offset="1" stop-color="#D36718"/>
</linearGradient>
</defs>
</svg>
