<svg width="80" height="81" viewBox="0 0 80 81" fill="none" xmlns="http://www.w3.org/2000/svg">
<g id="protected 1">
<path id="Vector" d="M27.45 67.8069C17.4062 61.3475 11.7016 50.0803 11.6859 38.2569C11.6766 31.2985 11.675 24.3402 11.6812 17.3819C11.6828 16.1053 12.1766 15.5116 13.4109 15.3569C16.0516 15.0256 18.8859 14.7631 21.3719 14.2678C25.2604 13.4928 28.8953 12.0439 32.2766 9.92094C34.462 8.54803 36.6495 7.17667 38.8391 5.80688C39.4672 5.41313 40.1672 5.18032 40.7828 5.56625C43.4062 7.20532 46.0359 8.92407 48.6844 10.4788C51.8646 12.3454 55.2693 13.6256 58.8984 14.3194C61.1906 14.7584 63.9141 15.0116 66.4062 15.3303C67.6437 15.4897 68.3187 15.9475 68.3187 17.2319C68.3208 24.061 68.3213 30.8897 68.3203 37.7178C68.3193 39.0897 68.2953 40.1308 68.2484 40.8413C67.5625 51.26 62.2766 60.7991 53.8359 66.9225C53.2599 67.3402 52.3917 67.9147 51.2312 68.6459C45.5302 72.2407 42.038 74.4235 40.7547 75.1944C40.114 75.5803 39.4344 75.3069 38.7859 74.9053C33.0109 71.3199 29.2323 68.9538 27.45 67.8069ZM15.1016 41.0647C15.9234 50.9944 21.3125 60.0272 29.7906 65.3506C33.176 67.4756 36.5614 69.5923 39.9469 71.7006C39.9657 71.7123 39.9872 71.7185 40.0091 71.7185C40.0309 71.7185 40.0521 71.7123 40.0703 71.7006C43.4786 69.5725 46.8833 67.4423 50.2844 65.31C58.7719 59.9881 64.2828 50.66 64.9312 40.5678C64.975 39.8949 64.9969 38.8543 64.9969 37.4459C65.001 31.1584 65.0016 24.8814 64.9984 18.6147C64.9983 18.5829 64.9866 18.5522 64.9655 18.5286C64.9445 18.505 64.9156 18.49 64.8844 18.4866C63.4417 18.3116 62.0083 18.1355 60.5844 17.9584C54.9734 17.2616 50.1922 15.3491 45.4375 12.3959C43.6479 11.2845 41.8614 10.1694 40.0781 9.05063C40.0558 9.03611 40.0297 9.02837 40.0031 9.02837C39.9765 9.02837 39.9504 9.03611 39.9281 9.05063C37.9359 10.3053 35.9328 11.5366 33.9406 12.7881C30.4219 14.9985 26.638 16.5428 22.5891 17.4209C20.2406 17.9303 17.5844 18.2084 15.0828 18.5006C15.0607 18.5033 15.0404 18.514 15.0257 18.5307C15.011 18.5475 15.003 18.569 15.0031 18.5913C14.9958 25.0485 14.9969 31.4985 15.0062 37.9413C15.0083 39.2777 15.0401 40.3189 15.1016 41.0647Z" fill="white"/>
<path id="Vector_2" d="M40.5062 43.8787C38.9969 45.3725 38.3328 46.0818 36.6297 44.3725C34.6047 42.3422 32.5797 40.3141 30.5547 38.2881C30.5398 38.273 30.5312 38.2527 30.531 38.2317C30.5307 38.2107 30.5386 38.1905 30.5531 38.1756L32.8062 35.9365C32.8206 35.9216 32.8405 35.9133 32.8616 35.9133C32.8827 35.9133 32.9032 35.9216 32.9187 35.9365L38.275 41.2881C38.2833 41.2964 38.2931 41.3031 38.304 41.3076C38.3148 41.3121 38.3265 41.3145 38.3383 41.3145C38.35 41.3145 38.3617 41.3121 38.3725 41.3076C38.3834 41.3031 38.3933 41.2964 38.4015 41.2881L50.4297 29.26C50.4449 29.245 50.4654 29.2366 50.4867 29.2366C50.508 29.2366 50.5285 29.245 50.5437 29.26L52.7781 31.4928C52.7869 31.5013 52.794 31.5115 52.7988 31.5228C52.8035 31.5341 52.806 31.5463 52.806 31.5587C52.806 31.5711 52.8035 31.5834 52.7988 31.5948C52.794 31.6063 52.7869 31.6168 52.7781 31.6256C48.7062 35.7297 44.6156 39.8141 40.5062 43.8787Z" fill="white"/>
</g>
</svg>
