<svg width="80" height="81" viewBox="0 0 80 81" fill="none" xmlns="http://www.w3.org/2000/svg">
<g id="tape-measure 1">
<path id="Vector" d="M63.1312 51.0881C56.1828 59.9022 47.4219 67.5319 38.6875 74.0991C37.9062 74.6866 37.2833 75.0522 36.8187 75.1959C35.2453 75.6819 34.0937 75.1584 32.7687 74.1412C28.5031 70.8652 24.2422 67.5829 19.9859 64.2944C18.2437 62.9475 18.0516 60.3162 19.4953 58.6647C19.7401 58.3845 20.1906 58.0308 20.8469 57.6037C23.5448 55.8485 26.2318 54.0756 28.9078 52.285C29.0411 52.1954 29.0281 52.1402 28.8687 52.1194C26.4687 51.81 24.0802 51.3178 21.7031 50.6428C16.8859 49.2756 9.47812 46.0037 8.07656 40.5303C7.93385 39.973 7.85937 39.2058 7.85312 38.2287C7.81562 32.5246 7.80156 26.8209 7.81093 21.1178C7.81406 19.7095 7.88802 18.673 8.03281 18.0084C9.88906 9.53812 22.3641 6.71624 29.4828 5.90687C35.3422 5.24124 41.1875 5.34697 47.0188 6.22405C51.6516 6.91937 56.8281 8.27093 60.6563 10.8084C61.6073 11.4386 62.9141 12.4636 64.5766 13.8834C67.5 16.3819 69.9094 19.6756 71.125 23.3303C74.4516 33.3272 69.1484 43.4553 63.1312 51.0881ZM52.4547 10.0256C44.9656 7.78187 37.0437 7.37249 29.3062 8.38499C24.2016 9.0553 18.6344 10.5256 14.2578 13.4491C11.1625 15.5162 8.90781 18.8647 11.4547 22.4397C14.7234 27.0319 22.9422 29.2412 28.2281 30.0319C37.4516 31.4131 47.8719 30.7928 56.5125 27.0303C58.8703 26.0037 61.6141 24.3756 63.0219 22.1475C64.6875 19.51 63.7641 16.435 61.4187 14.5819C58.7797 12.4991 55.7094 11.0022 52.4547 10.0256ZM62.4297 47.6178C62.4395 47.6268 62.4512 47.6336 62.4638 47.6378C62.4764 47.6421 62.4898 47.6435 62.5029 47.6422C62.5161 47.6409 62.5288 47.6368 62.5401 47.6301C62.5515 47.6235 62.5612 47.6145 62.5687 47.6037C65.6578 43.2459 68.5437 38.1209 69.4469 32.8662C70.2672 28.0928 69.0875 23.8412 66.5125 19.7506C66.4521 19.6548 66.4141 19.6631 66.3984 19.7756C66.062 22.2006 64.9859 24.2006 63.1703 25.7756C63.0036 25.9204 62.8776 26.0933 62.7922 26.2944C62.1911 27.686 61.3583 29.0147 60.2937 30.2803C57.7984 33.2428 55.1906 35.6506 52.3328 38.0553C44.6766 44.4991 36.4672 50.2881 28.1312 55.8147C28.1187 55.823 28.1082 55.8341 28.1007 55.8472C28.0933 55.8603 28.089 55.8751 28.0882 55.8902C28.0875 55.9054 28.0903 55.9206 28.0964 55.9346C28.1025 55.9486 28.1117 55.961 28.1234 55.9709L42.3625 67.9037C42.3799 67.9186 42.4015 67.9275 42.4241 67.9292C42.4466 67.9309 42.4688 67.9253 42.4875 67.9131C42.6365 67.8183 42.8464 67.6595 43.1172 67.4366C44.9422 65.9324 46.7375 64.3933 48.5031 62.8194C48.5095 62.8137 48.5146 62.8069 48.5182 62.7992C48.5218 62.7915 48.5239 62.7832 48.5242 62.7747C48.5244 62.7662 48.523 62.7578 48.5199 62.7499C48.5169 62.742 48.5122 62.7348 48.5062 62.7287C47.2854 61.5079 46.0599 60.2813 44.8297 59.0491C44.6109 58.8313 44.4687 58.648 44.4031 58.4991C43.9812 57.5522 44.8297 56.5084 45.8375 56.7897C46.0708 56.8543 46.3328 57.0334 46.6234 57.3272C47.8568 58.5688 49.0839 59.7933 50.3047 61.0006C50.3275 61.023 50.358 61.0358 50.39 61.0364C50.422 61.037 50.4529 61.0253 50.4766 61.0037C52.0818 59.5131 53.6286 58.0001 55.1172 56.4647C55.1273 56.4545 55.1351 56.4423 55.1402 56.4289C55.1453 56.4155 55.1474 56.4011 55.1465 56.3868C55.1457 56.3725 55.1417 56.3585 55.1351 56.3458C55.1284 56.3331 55.1191 56.322 55.1078 56.3131C53.9776 55.4069 52.85 54.4965 51.725 53.5819C51.1828 53.1412 50.825 52.9272 50.7875 52.3225C50.7375 51.5334 51.3953 50.8631 52.2031 51.0037C52.4531 51.0465 52.7474 51.2043 53.0859 51.4772C54.3391 52.4876 55.5927 53.498 56.8469 54.5084C56.8621 54.5208 56.8817 54.5268 56.9014 54.525C56.9212 54.5233 56.9397 54.514 56.9531 54.4991C58.325 52.9834 59.65 51.422 60.9281 49.8147C60.9457 49.7924 60.9543 49.7643 60.9523 49.736C60.9502 49.7077 60.9377 49.6811 60.9172 49.6616C59.938 48.7209 58.9552 47.773 57.9687 46.8178C56.7391 45.6272 58.4719 43.8131 59.7766 45.0912C60.6047 45.9027 61.4891 46.7449 62.4297 47.6178ZM36.6109 33.1819C31.9964 33.1506 27.451 32.5839 22.975 31.4819C18.6328 30.4131 13.9156 28.4834 10.5828 25.2772C10.3901 25.0918 10.2948 25.1324 10.2969 25.3991C10.3333 29.8491 10.3526 34.2037 10.3547 38.4631C10.3562 41.2584 12.1609 43.2459 14.3687 44.6709C14.4135 44.7001 14.4359 44.6881 14.4359 44.635C14.4568 42.3371 14.462 40.0392 14.4516 37.7412C14.4437 35.7506 16.9328 35.8194 16.9391 37.6819C16.9495 40.486 16.9542 43.297 16.9531 46.1147C16.9531 46.1381 16.9597 46.1611 16.9721 46.181C16.9846 46.2009 17.0023 46.2169 17.0234 46.2272C18.6599 47.0199 20.3391 47.6636 22.0609 48.1584C22.0712 48.1616 22.082 48.1623 22.0926 48.1604C22.1032 48.1585 22.1132 48.1541 22.1218 48.1476C22.1305 48.1411 22.1375 48.1326 22.1424 48.1228C22.1473 48.113 22.1499 48.1022 22.15 48.0912C22.1469 45.71 22.1469 43.335 22.15 40.9662C22.1531 38.8584 24.6828 38.935 24.65 40.9225C24.6333 42.0069 24.6365 44.6152 24.6594 48.7475C24.6598 48.7702 24.6677 48.7921 24.6819 48.8097C24.6961 48.8273 24.7156 48.8395 24.7375 48.8444C26.4083 49.2287 28.0885 49.5251 29.7781 49.7334C29.7867 49.7343 29.7953 49.7334 29.8034 49.7308C29.8116 49.7283 29.819 49.724 29.8254 49.7184C29.8317 49.7128 29.8368 49.706 29.8402 49.6983C29.8436 49.6907 29.8454 49.6824 29.8453 49.6741C29.8411 47.3313 29.8417 44.9902 29.8469 42.6506C29.8479 42.086 29.8906 41.7001 29.975 41.4928C30.3422 40.5819 31.65 40.4866 32.1687 41.3459C32.2844 41.5366 32.3422 41.8376 32.3422 42.2491C32.3443 44.7855 32.3448 47.322 32.3437 49.8584C32.3437 49.9032 32.362 49.9131 32.3984 49.8881C37.0307 46.7058 41.5719 43.3933 46.0219 39.9506C50.2406 36.6866 54.4203 33.21 57.9906 29.2334C57.9995 29.2236 58.0061 29.2127 58.0097 29.2019C58.0133 29.1912 58.0137 29.181 58.0109 29.1725L57.9984 29.1397C57.9959 29.1327 57.9913 29.1267 57.9849 29.1222C57.9786 29.1176 57.9706 29.1147 57.9616 29.1135C57.9527 29.1123 57.9429 29.1129 57.933 29.1153C57.9232 29.1176 57.9135 29.1217 57.9047 29.1272C57.7214 29.2438 57.5958 29.3168 57.5281 29.3459C50.9531 32.1897 43.7375 33.2303 36.6109 33.1819ZM40.3719 69.5006L25.9141 57.3803C25.8965 57.3654 25.8746 57.3566 25.8518 57.3552C25.8289 57.3538 25.8064 57.3599 25.7875 57.3725C24.4844 58.211 23.1849 59.0563 21.8891 59.9084C20.8844 60.5694 20.675 61.6772 21.7203 62.4819C25.9557 65.7454 30.1922 69.0079 34.4297 72.2694C35.1422 72.8162 35.7922 73.1616 36.5516 72.5897C37.8057 71.6459 39.0781 70.6647 40.3687 69.6459C40.3797 69.6374 40.3887 69.6265 40.3949 69.614C40.4011 69.6016 40.4045 69.5879 40.4048 69.574C40.4051 69.5601 40.4023 69.5463 40.3966 69.5336C40.3909 69.5209 40.3825 69.5096 40.3719 69.5006Z" fill="white"/>
<path id="Vector_2" d="M32.3313 11.5552C36.9906 10.9115 42.2484 11.1615 46.8344 12.7193C49.2656 13.5459 52.0844 15.1443 52.9656 17.7521C54.4531 22.1552 49.4422 25.1037 45.9797 26.1318C42.5922 27.136 39.0865 27.5354 35.4625 27.3302C31.4859 27.1037 27.2578 26.3302 23.9188 24.0349C21.975 22.699 20.5422 20.5615 21.1797 18.0396C22.2484 13.8099 28.65 12.063 32.3313 11.5552ZM24.9328 21.6584C27.2125 23.4162 30.2438 24.2193 33.0859 24.5943C36.9662 25.1068 40.7375 24.8917 44.4 23.949C46.0891 23.513 47.9656 22.7646 49.3219 21.6505C53.2359 18.4365 48.0203 15.6943 45.4266 14.9115C39.4719 13.1115 31.9438 13.0896 26.4203 15.9412C24.1234 17.1271 22.0531 19.4365 24.9328 21.6584Z" fill="white"/>
</g>
</svg>
