<svg width="102" height="102" viewBox="0 0 102 102" fill="none" xmlns="http://www.w3.org/2000/svg">
<path d="M102 51C102 79.1665 79.1665 102 51 102C22.8335 102 0 79.1665 0 51C0 22.8335 22.8335 0 51 0C79.1665 0 102 22.8335 102 51Z" fill="#FF5200"/>
<path d="M102 51C102 79.1665 79.1665 102 51 102C22.8335 102 0 79.1665 0 51C0 22.8335 22.8335 0 51 0C79.1665 0 102 22.8335 102 51Z" fill="#FF3D17"/>
<path d="M24.5592 39.372V36.516H30.2712V39.372H24.5592Z" fill="white"/>
<path d="M38.4545 33.9742V32.8603C38.4545 31.061 37.8262 30.5755 36.8266 30.5755C35.827 30.5755 35.1987 31.1182 35.1987 32.5462V33.8314H32.2285V32.7461C32.2285 29.5474 33.8278 27.7195 36.9123 27.7195C39.9968 27.7195 41.5961 29.5474 41.5961 32.7461V33.2602C41.5961 35.4022 40.9107 36.7445 39.397 37.3728C40.9678 38.0582 41.5961 39.5434 41.5961 41.5711V43.1419C41.5961 46.3406 39.9968 48.1685 36.9123 48.1685C33.8278 48.1685 32.2285 46.3406 32.2285 43.1419V41.4854H35.1987V43.3418C35.1987 44.7698 35.827 45.3125 36.8266 45.3125C37.8262 45.3125 38.4545 44.827 38.4545 43.0562V41.4854C38.4545 39.629 37.8262 38.9436 36.3982 38.9436H35.3415V36.0876H36.5696C37.7405 36.0876 38.4545 35.5735 38.4545 33.9742Z" fill="white"/>
<path d="M46.608 32.5462V43.3418C46.608 44.7698 47.2363 45.3125 48.2359 45.3125C49.2355 45.3125 49.8638 44.7698 49.8638 43.3418V32.5462C49.8638 31.1182 49.2355 30.5755 48.2359 30.5755C47.2363 30.5755 46.608 31.1182 46.608 32.5462ZM43.4664 43.1419V32.7461C43.4664 29.5474 45.1514 27.7195 48.2359 27.7195C51.3204 27.7195 53.0054 29.5474 53.0054 32.7461V43.1419C53.0054 46.3406 51.3204 48.1685 48.2359 48.1685C45.1514 48.1685 43.4664 46.3406 43.4664 43.1419Z" fill="white"/>
<path d="M56.8748 30.8611V37.7155C56.8748 38.6009 57.2461 38.9722 57.903 38.9722C58.5313 38.9722 58.9312 38.6009 58.9312 37.7155V30.8611C58.9312 29.9758 58.5313 29.6045 57.903 29.6045C57.2461 29.6045 56.8748 29.9758 56.8748 30.8611ZM54.8756 37.5727V31.0039C54.8756 28.9476 55.9324 27.8052 57.903 27.8052C59.8736 27.8052 60.9304 28.9476 60.9304 31.0039V37.5727C60.9304 39.629 59.8736 40.7714 57.903 40.7714C55.9324 40.7714 54.8756 39.629 54.8756 37.5727ZM57.903 47.94L65.7856 27.948H67.642L59.7594 47.94H57.903ZM66.7852 38.1725V45.0269C66.7852 45.9122 67.1565 46.2835 67.8133 46.2835C68.4417 46.2835 68.8415 45.9122 68.8415 45.0269V38.1725C68.8415 37.2871 68.4417 36.9158 67.8133 36.9158C67.1565 36.9158 66.7852 37.2871 66.7852 38.1725ZM64.786 44.8841V38.3153C64.786 36.259 65.8427 35.1166 67.8133 35.1166C69.784 35.1166 70.8407 36.259 70.8407 38.3153V44.8841C70.8407 46.9404 69.784 48.0828 67.8133 48.0828C65.8427 48.0828 64.786 46.9404 64.786 44.8841Z" fill="white"/>
<path d="M28.1922 58.0666C28.8695 58.344 29.2081 58.8295 29.2081 59.5231C29.2081 60.0372 29.0041 60.4738 28.5961 60.8328C28.1881 61.1837 27.6088 61.3591 26.8581 61.3591C25.6341 61.3591 24.814 60.8695 24.3978 59.8903L25.2913 59.364C25.528 60.0331 26.0543 60.3677 26.8703 60.3677C27.2783 60.3677 27.5924 60.282 27.8128 60.1106C28.0412 59.9311 28.1555 59.7026 28.1555 59.4252C28.1555 59.1804 28.0617 58.9805 27.874 58.8254C27.6945 58.6704 27.4497 58.5929 27.1396 58.5929H26.246V57.6259H26.907C27.2171 57.6259 27.4578 57.5525 27.6292 57.4056C27.8005 57.2506 27.8862 57.0425 27.8862 56.7814C27.8862 56.5202 27.7842 56.3081 27.5802 56.1449C27.3844 55.9817 27.111 55.9001 26.7601 55.9001C26.0747 55.9001 25.6096 56.1898 25.3648 56.7691L24.4957 56.2673C24.9282 55.3697 25.683 54.9209 26.7601 54.9209C27.4293 54.9209 27.9556 55.0922 28.3391 55.435C28.7308 55.7777 28.9266 56.1979 28.9266 56.6957C28.9266 57.3158 28.6818 57.7728 28.1922 58.0666Z" fill="white"/>
<path d="M35.4293 55.08H36.4942V61.2H35.4293V60.1474C34.8989 60.9552 34.1278 61.3591 33.1159 61.3591C32.2591 61.3591 31.5288 61.049 30.925 60.4289C30.3211 59.8006 30.0192 59.0376 30.0192 58.14C30.0192 57.2424 30.3211 56.4835 30.925 55.8634C31.5288 55.235 32.2591 54.9209 33.1159 54.9209C34.1278 54.9209 34.8989 55.3248 35.4293 56.1326V55.08ZM33.2506 60.331C33.8707 60.331 34.3889 60.1229 34.8051 59.7067C35.2212 59.2824 35.4293 58.7602 35.4293 58.14C35.4293 57.5198 35.2212 57.0017 34.8051 56.5855C34.3889 56.1612 33.8707 55.949 33.2506 55.949C32.6386 55.949 32.1245 56.1612 31.7083 56.5855C31.2922 57.0017 31.0841 57.5198 31.0841 58.14C31.0841 58.7602 31.2922 59.2824 31.7083 59.7067C32.1245 60.1229 32.6386 60.331 33.2506 60.331Z" fill="white"/>
<path d="M40.886 61.3591C39.9803 61.3591 39.2336 61.0613 38.6461 60.4656C38.0586 59.8699 37.7648 59.1029 37.7648 58.1645C37.7648 57.12 37.9158 56.3162 38.2177 55.7532C38.5278 55.1902 39.1561 54.6802 40.1027 54.2232C40.274 54.1416 40.5066 54.0355 40.8004 53.905C41.1023 53.7744 41.3226 53.6765 41.4613 53.6112C41.6 53.5378 41.7551 53.4439 41.9264 53.3297C42.0978 53.2073 42.2243 53.0767 42.3059 52.938C42.3956 52.7911 42.4609 52.6238 42.5017 52.4362L43.3585 52.9258C43.334 53.0563 43.3014 53.1787 43.2606 53.293C43.2198 53.399 43.1586 53.5051 43.077 53.6112C43.0036 53.7091 42.9383 53.7948 42.8812 53.8682C42.824 53.9417 42.7261 54.0233 42.5874 54.113C42.4568 54.1946 42.3589 54.2558 42.2936 54.2966C42.2365 54.3374 42.1182 54.3986 41.9387 54.4802C41.7673 54.5618 41.649 54.619 41.5837 54.6516C41.5266 54.6761 41.392 54.7332 41.1798 54.823C40.9676 54.9046 40.8371 54.9576 40.7881 54.9821C40.2332 55.2187 39.8252 55.4594 39.5641 55.7042C39.3112 55.949 39.1276 56.2591 39.0133 56.6345C39.2744 56.3081 39.6008 56.0674 39.9925 55.9123C40.3842 55.7573 40.7759 55.6798 41.1676 55.6798C41.9346 55.6798 42.5833 55.9409 43.1137 56.4631C43.6523 56.9854 43.9216 57.6586 43.9216 58.4827C43.9216 59.315 43.636 60.0046 43.0648 60.5513C42.4936 61.0898 41.7673 61.3591 40.886 61.3591ZM39.454 59.7924C39.8375 60.1514 40.3148 60.331 40.886 60.331C41.4572 60.331 41.9264 60.1555 42.2936 59.8046C42.669 59.4538 42.8567 59.0131 42.8567 58.4827C42.8567 57.936 42.6772 57.4913 42.3181 57.1486C41.9672 56.7977 41.5021 56.6222 40.9228 56.6222C40.4005 56.6222 39.9272 56.7895 39.5029 57.1241C39.0868 57.4505 38.8787 57.883 38.8787 58.4215C38.8787 58.9764 39.0704 59.4334 39.454 59.7924Z" fill="white"/>
<path d="M45.799 58.6296C45.905 59.1763 46.1539 59.6006 46.5456 59.9026C46.9455 60.2045 47.4351 60.3554 48.0144 60.3554C48.8223 60.3554 49.4098 60.0576 49.777 59.4619L50.6827 59.976C50.0871 60.8981 49.1895 61.3591 47.9899 61.3591C47.0189 61.3591 46.2274 61.0572 45.6154 60.4534C45.0115 59.8414 44.7096 59.0702 44.7096 58.14C44.7096 57.2179 45.0075 56.4509 45.6031 55.8389C46.1988 55.2269 46.9699 54.9209 47.9165 54.9209C48.8141 54.9209 49.5444 55.2391 50.1075 55.8756C50.6787 56.5039 50.9643 57.2628 50.9643 58.1522C50.9643 58.3073 50.952 58.4664 50.9275 58.6296H45.799ZM47.9165 55.9246C47.3453 55.9246 46.872 56.0878 46.4967 56.4142C46.1213 56.7324 45.8887 57.1608 45.799 57.6994H49.8871C49.7974 57.12 49.5689 56.6794 49.2017 56.3774C48.8345 56.0755 48.4061 55.9246 47.9165 55.9246Z" fill="white"/>
<path d="M55.5666 54.9209C56.4234 54.9209 57.1537 55.235 57.7575 55.8634C58.3614 56.4835 58.6633 57.2424 58.6633 58.14C58.6633 59.0376 58.3614 59.8006 57.7575 60.4289C57.1537 61.049 56.4234 61.3591 55.5666 61.3591C54.5547 61.3591 53.7836 60.9552 53.2532 60.1474V63.648H52.1883V55.08H53.2532V56.1326C53.7836 55.3248 54.5547 54.9209 55.5666 54.9209ZM55.4319 60.331C56.0439 60.331 56.558 60.1229 56.9742 59.7067C57.3903 59.2824 57.5984 58.7602 57.5984 58.14C57.5984 57.5198 57.3903 57.0017 56.9742 56.5855C56.558 56.1612 56.0439 55.949 55.4319 55.949C54.8118 55.949 54.2936 56.1612 53.8775 56.5855C53.4613 57.0017 53.2532 57.5198 53.2532 58.14C53.2532 58.7602 53.4613 59.2824 53.8775 59.7067C54.2936 60.1229 54.8118 60.331 55.4319 60.331Z" fill="white"/>
<path d="M64.3771 55.08H65.2339V61.2H64.1813V56.9038L60.7908 61.2H59.934V55.08H60.9866V59.3762L64.3771 55.08Z" fill="white"/>
<path d="M71.4081 55.08V56.1082H69.3273V61.2H68.2624V56.1082H66.1694V55.08H71.4081Z" fill="white"/>
<path d="M72.8489 58.6296C72.955 59.1763 73.2038 59.6006 73.5955 59.9026C73.9954 60.2045 74.485 60.3554 75.0643 60.3554C75.8722 60.3554 76.4597 60.0576 76.8269 59.4619L77.7327 59.976C77.137 60.8981 76.2394 61.3591 75.0398 61.3591C74.0688 61.3591 73.2773 61.0572 72.6653 60.4534C72.0615 59.8414 71.7595 59.0702 71.7595 58.14C71.7595 57.2179 72.0574 56.4509 72.6531 55.8389C73.2487 55.2269 74.0198 54.9209 74.9664 54.9209C75.864 54.9209 76.5943 55.2391 77.1574 55.8756C77.7286 56.5039 78.0142 57.2628 78.0142 58.1522C78.0142 58.3073 78.0019 58.4664 77.9775 58.6296H72.8489ZM74.9664 55.9246C74.3952 55.9246 73.9219 56.0878 73.5466 56.4142C73.1712 56.7324 72.9387 57.1608 72.8489 57.6994H76.937C76.8473 57.12 76.6188 56.6794 76.2516 56.3774C75.8844 56.0755 75.456 55.9246 74.9664 55.9246Z" fill="white"/>
<path d="M35.2763 74.6191C34.3543 74.6191 33.5872 74.3131 32.9752 73.7011C32.3632 73.081 32.0572 72.3139 32.0572 71.4C32.0572 70.4861 32.3632 69.7231 32.9752 69.1111C33.5872 68.491 34.3543 68.1809 35.2763 68.1809C35.8802 68.1809 36.4228 68.3278 36.9043 68.6215C37.3857 68.9071 37.7447 69.2947 37.9814 69.7843L37.0879 70.2984C36.9328 69.972 36.6921 69.7109 36.3657 69.515C36.0475 69.3192 35.6843 69.2213 35.2763 69.2213C34.6643 69.2213 34.1503 69.4294 33.7341 69.8455C33.3261 70.2617 33.1221 70.7798 33.1221 71.4C33.1221 72.012 33.3261 72.5261 33.7341 72.9422C34.1503 73.3584 34.6643 73.5665 35.2763 73.5665C35.6843 73.5665 36.0515 73.4726 36.3779 73.285C36.7043 73.0891 36.9532 72.828 37.1246 72.5016L38.0303 73.0279C37.7692 73.5094 37.3939 73.897 36.9043 74.1907C36.4147 74.4763 35.872 74.6191 35.2763 74.6191Z" fill="white"/>
<path d="M44.2712 74.46H42.9493L40.1586 71.5591V74.46H39.0937V68.34H40.1586V71.045L42.8024 68.34H44.1733L41.2479 71.3021L44.2712 74.46Z" fill="white"/>
<path d="M49.7046 68.34H50.5614V74.46H49.5088V70.1638L46.1183 74.46H45.2615V68.34H46.3142V72.6362L49.7046 68.34Z" fill="white"/>
<path d="M57.4456 73.4441H58.2901V76.1002H57.2375V74.46H52.6475V76.1002H51.5948V73.4441H52.3415C52.7332 72.9055 52.929 72.1507 52.929 71.1797V68.34H57.4456V73.4441ZM53.5533 73.4441H56.3929V69.3314H53.9817V71.1797C53.9817 72.0936 53.8389 72.8484 53.5533 73.4441Z" fill="white"/>
<path d="M64.6154 74.46H63.2935L60.5028 71.5591V74.46H59.4379V68.34H60.5028V71.045L63.1466 68.34H64.5175L61.5922 71.3021L64.6154 74.46Z" fill="white"/>
<path d="M69.6982 68.34H70.8365L68.3396 74.8394C68.0784 75.533 67.7112 76.0594 67.238 76.4184C66.7647 76.7856 66.2261 76.9488 65.6223 76.908V75.9166C66.373 75.9737 66.9238 75.5657 67.2747 74.6926L67.3726 74.4722L64.7165 68.34H65.8426L67.9356 73.1381L69.6982 68.34Z" fill="white"/>
</svg>
