<svg width="100" height="101" viewBox="0 0 100 101" fill="none" xmlns="http://www.w3.org/2000/svg">
<g clip-path="url(#clip0_495_1788)">
<path d="M40.7305 61.885C40.7306 62.3931 40.8644 62.8922 41.1185 63.3322C41.3726 63.7722 41.7381 64.1376 42.1781 64.3916C42.6181 64.6457 43.1172 64.7794 43.6253 64.7795C44.1334 64.7795 44.6326 64.6459 45.0727 64.3919L63.9267 53.5069C64.3669 53.2528 64.7324 52.8873 64.9866 52.4472C65.2407 52.007 65.3745 51.5077 65.3745 50.9995C65.3745 50.4912 65.2407 49.9919 64.9866 49.5518C64.7324 49.1116 64.3669 48.7462 63.9267 48.4921L45.0738 37.6082C44.6336 37.3539 44.1344 37.2201 43.6261 37.22C43.1179 37.2199 42.6185 37.3536 42.1784 37.6077C41.7382 37.8617 41.3726 38.2272 41.1185 38.6674C40.8643 39.1075 40.7305 39.6068 40.7305 40.115V61.885Z" stroke="#92CBF9" stroke-width="2"/>
<path d="M49.7878 23H50.3347C65.1353 23.2778 77.0878 34.5883 78 49.4206V52.5925C77.2015 65.5348 67.7592 76.2864 54.97 78.5548C47.7753 79.8312 40.2743 78.2387 34.2478 74.1087C22.4659 66.0336 18.6848 50.4389 25.3064 37.8772C30.0981 28.787 39.5032 23.187 49.7878 23ZM40.7304 61.885C40.7306 62.3931 40.8644 62.8922 41.1185 63.3322C41.3726 63.7722 41.738 64.1375 42.1781 64.3916C42.6181 64.6456 43.1172 64.7794 43.6253 64.7794C44.1334 64.7795 44.6325 64.6458 45.0726 64.3919L63.9267 53.5069C64.3669 53.2528 64.7324 52.8873 64.9866 52.4472C65.2407 52.007 65.3745 51.5077 65.3745 50.9995C65.3745 50.4912 65.2407 49.9919 64.9866 49.5518C64.7324 49.1116 64.3669 48.7461 63.9267 48.492L45.0737 37.6081C44.6336 37.3539 44.1343 37.22 43.6261 37.2199C43.1178 37.2198 42.6185 37.3536 42.1783 37.6076C41.7381 37.8617 41.3726 38.2272 41.1184 38.6673C40.8643 39.1075 40.7304 39.6067 40.7304 40.115V61.885Z" fill="url(#paint0_linear_495_1788)"/>
<path d="M40.7305 61.885V40.115C40.7305 39.6068 40.8643 39.1075 41.1185 38.6674C41.3726 38.2272 41.7382 37.8617 42.1784 37.6077C42.6185 37.3536 43.1179 37.2199 43.6261 37.22C44.1344 37.2201 44.6336 37.3539 45.0738 37.6082L63.9267 48.4921C64.3669 48.7462 64.7324 49.1116 64.9866 49.5518C65.2407 49.9919 65.3745 50.4912 65.3745 50.9995C65.3745 51.5077 65.2407 52.007 64.9866 52.4472C64.7324 52.8873 64.3669 53.2528 63.9267 53.5069L45.0727 64.3919C44.6326 64.6459 44.1334 64.7795 43.6253 64.7795C43.1172 64.7794 42.6181 64.6457 42.1781 64.3916C41.7381 64.1376 41.3726 63.7722 41.1185 63.3322C40.8644 62.8922 40.7306 62.3931 40.7305 61.885Z" fill="white"/>
</g>
<path opacity="0.24" d="M100 50.5C100 78.1142 77.6142 100.5 50 100.5C22.3858 100.5 0 78.1142 0 50.5C0 22.8858 22.3858 0.5 50 0.5C77.6142 0.5 100 22.8858 100 50.5Z" fill="#FFD591"/>
<defs>
<linearGradient id="paint0_linear_495_1788" x1="50.0316" y1="23" x2="50.0316" y2="78.9845" gradientUnits="userSpaceOnUse">
<stop stop-color="#FAAF1C"/>
<stop offset="1" stop-color="#D36718"/>
</linearGradient>
<clipPath id="clip0_495_1788">
<rect width="56" height="56" fill="white" transform="translate(22 23)"/>
</clipPath>
</defs>
</svg>
