<svg width="80" height="81" viewBox="0 0 80 81" fill="none" xmlns="http://www.w3.org/2000/svg">
<g id="windows 1" clip-path="url(#clip0_465_753)">
<path id="Vector" d="M80 12.2584V68.5865C79.9365 69.2574 79.5719 69.5928 78.9062 69.5928C53.0656 69.5938 27.2255 69.5938 1.38594 69.5928C0.642187 69.5928 0.1125 69.4818 0 68.685V12.0053C0.116667 11.4386 0.432292 11.1553 0.946875 11.1553C26.9594 11.1553 52.9719 11.1553 78.9844 11.1553C79.6875 11.1553 80.026 11.523 80 12.2584ZM78.0859 13.11C78.0859 13.0992 78.0817 13.0889 78.074 13.0812C78.0664 13.0736 78.0561 13.0693 78.0453 13.0693H1.95469C1.94391 13.0693 1.93358 13.0736 1.92596 13.0812C1.91834 13.0889 1.91406 13.0992 1.91406 13.11V67.6381C1.91406 67.6489 1.91834 67.6592 1.92596 67.6668C1.93358 67.6744 1.94391 67.6787 1.95469 67.6787H78.0453C78.0561 67.6787 78.0664 67.6744 78.074 67.6668C78.0817 67.6592 78.0859 67.6489 78.0859 67.6381V13.11Z" fill="white"/>
<path id="Vector_2" d="M75.9781 64.2146C75.9781 64.4703 75.8765 64.7155 75.6958 64.8963C75.515 65.0771 75.2697 65.1787 75.0141 65.1787H5.14531C4.88962 65.1787 4.64441 65.0771 4.46361 64.8963C4.28281 64.7155 4.18124 64.4703 4.18124 64.2146V16.5334C4.18124 16.2777 4.28281 16.0325 4.46361 15.8517C4.64441 15.6709 4.88962 15.5693 5.14531 15.5693H75.0141C75.2697 15.5693 75.515 15.6709 75.6958 15.8517C75.8765 16.0325 75.9781 16.2777 75.9781 16.5334V64.2146ZM15.7349 17.5297C15.7349 17.5219 15.7334 17.5142 15.7304 17.507C15.7274 17.4998 15.723 17.4932 15.7175 17.4877C15.712 17.4822 15.7054 17.4778 15.6982 17.4749C15.691 17.4719 15.6833 17.4704 15.6755 17.4704L6.14735 17.487C6.13161 17.4871 6.11652 17.4933 6.10541 17.5045C6.09429 17.5157 6.08806 17.5308 6.08809 17.5465L6.10254 25.8309C6.10255 25.8387 6.1041 25.8464 6.1071 25.8536C6.11009 25.8608 6.11448 25.8673 6.12 25.8728C6.12553 25.8783 6.13208 25.8827 6.13929 25.8857C6.1465 25.8886 6.15423 25.8902 6.16203 25.8901L15.6901 25.8735C15.7059 25.8735 15.721 25.8672 15.7321 25.856C15.7432 25.8449 15.7494 25.8298 15.7494 25.814L15.7349 17.5297ZM27.3812 17.524C27.3812 17.5128 27.3768 17.5021 27.3689 17.4942C27.361 17.4863 27.3502 17.4818 27.3391 17.4818H17.6984C17.6872 17.4818 17.6765 17.4863 17.6686 17.4942C17.6607 17.5021 17.6562 17.5128 17.6562 17.524V25.8396C17.6562 25.8508 17.6607 25.8616 17.6686 25.8695C17.6765 25.8774 17.6872 25.8818 17.6984 25.8818H27.3391C27.3502 25.8818 27.361 25.8774 27.3689 25.8695C27.3768 25.8616 27.3812 25.8508 27.3812 25.8396V17.524ZM39.1479 17.5295C39.1479 17.524 39.1468 17.5185 39.1447 17.5133C39.1426 17.5082 39.1395 17.5036 39.1356 17.4996C39.1317 17.4957 39.127 17.4926 39.1219 17.4905C39.1168 17.4883 39.1113 17.4872 39.1058 17.4872L29.3464 17.4702C29.3409 17.4702 29.3354 17.4713 29.3302 17.4734C29.3251 17.4755 29.3205 17.4786 29.3165 17.4825C29.3126 17.4864 29.3095 17.4911 29.3074 17.4962C29.3052 17.5013 29.3041 17.5068 29.3041 17.5123L29.2896 25.8311C29.2896 25.8366 29.2907 25.8421 29.2928 25.8472C29.2949 25.8523 29.298 25.857 29.3019 25.8609C29.3058 25.8648 29.3105 25.8679 29.3156 25.8701C29.3207 25.8722 29.3262 25.8733 29.3317 25.8733L39.0911 25.8904C39.0966 25.8904 39.1021 25.8893 39.1072 25.8872C39.1124 25.8851 39.117 25.882 39.1209 25.878C39.1249 25.8741 39.128 25.8695 39.1301 25.8644C39.1322 25.8593 39.1333 25.8538 39.1334 25.8482L39.1479 17.5295ZM50.5859 17.5256C50.5859 17.5127 50.5808 17.5004 50.5717 17.4913C50.5627 17.4823 50.5503 17.4771 50.5375 17.4771H40.9875C40.9746 17.4771 40.9623 17.4823 40.9532 17.4913C40.9442 17.5004 40.9391 17.5127 40.9391 17.5256V25.8318C40.9391 25.8447 40.9442 25.857 40.9532 25.8661C40.9623 25.8752 40.9746 25.8803 40.9875 25.8803H50.5375C50.5503 25.8803 50.5627 25.8752 50.5717 25.8661C50.5808 25.857 50.5859 25.8447 50.5859 25.8318V17.5256ZM62.4219 17.5631C62.4219 17.5411 62.4131 17.5201 62.3976 17.5045C62.3821 17.489 62.361 17.4803 62.3391 17.4803H52.5828C52.5608 17.4803 52.5398 17.489 52.5242 17.5045C52.5087 17.5201 52.5 17.5411 52.5 17.5631V25.7975C52.5 25.8194 52.5087 25.8405 52.5242 25.856C52.5398 25.8715 52.5608 25.8803 52.5828 25.8803H62.3391C62.361 25.8803 62.3821 25.8715 62.3976 25.856C62.4131 25.8405 62.4219 25.8194 62.4219 25.7975V17.5631ZM73.99 17.5871C73.99 17.574 73.9874 17.561 73.9824 17.5489C73.9774 17.5367 73.9701 17.5257 73.9608 17.5164C73.9515 17.5071 73.9405 17.4997 73.9284 17.4946C73.9163 17.4896 73.9033 17.487 73.8901 17.487L64.4433 17.4705C64.4301 17.4705 64.4171 17.473 64.405 17.478C64.3928 17.483 64.3818 17.4904 64.3725 17.4996C64.3632 17.5089 64.3558 17.5199 64.3508 17.532C64.3457 17.5442 64.3431 17.5572 64.3431 17.5703L64.3288 25.7734C64.3287 25.7865 64.3313 25.7996 64.3363 25.8117C64.3413 25.8238 64.3487 25.8349 64.3579 25.8442C64.3672 25.8535 64.3782 25.8609 64.3903 25.8659C64.4025 25.871 64.4155 25.8736 64.4286 25.8736L73.8755 25.8901C73.8886 25.8901 73.9016 25.8875 73.9137 25.8825C73.9259 25.8775 73.9369 25.8702 73.9462 25.8609C73.9555 25.8516 73.9629 25.8406 73.968 25.8285C73.973 25.8164 73.9756 25.8034 73.9756 25.7902L73.99 17.5871ZM27.3828 27.8506C27.3828 27.8361 27.377 27.8222 27.3668 27.8119C27.3565 27.8017 27.3426 27.7959 27.3281 27.7959H6.14999C6.13549 27.7959 6.12158 27.8017 6.11132 27.8119C6.10107 27.8222 6.09531 27.8361 6.09531 27.8506V63.1318C6.09531 63.1463 6.10107 63.1603 6.11132 63.1705C6.12158 63.1808 6.13549 63.1865 6.14999 63.1865H27.3281C27.3426 63.1865 27.3565 63.1808 27.3668 63.1705C27.377 63.1603 27.3828 63.1463 27.3828 63.1318V27.8506ZM50.6656 27.8459C50.6656 27.8326 50.6603 27.8199 50.651 27.8105C50.6416 27.8012 50.6289 27.7959 50.6156 27.7959H29.2687C29.2555 27.7959 29.2428 27.8012 29.2334 27.8105C29.224 27.8199 29.2187 27.8326 29.2187 27.8459V63.1365C29.2187 63.1498 29.224 63.1625 29.2334 63.1719C29.2428 63.1813 29.2555 63.1865 29.2687 63.1865H50.6156C50.6289 63.1865 50.6416 63.1813 50.651 63.1719C50.6603 63.1625 50.6656 63.1498 50.6656 63.1365V27.8459ZM73.9844 27.8803C73.9844 27.8575 73.9753 27.8356 73.9592 27.8195C73.9431 27.8034 73.9212 27.7943 73.8984 27.7943H52.5859C52.5631 27.7943 52.5413 27.8034 52.5252 27.8195C52.509 27.8356 52.5 27.8575 52.5 27.8803V63.099C52.5 63.1218 52.509 63.1437 52.5252 63.1598C52.5413 63.1759 52.5631 63.185 52.5859 63.185H73.8984C73.9212 63.185 73.9431 63.1759 73.9592 63.1598C73.9753 63.1437 73.9844 63.1218 73.9844 63.099V27.8803Z" fill="white"/>
</g>
<defs>
<clipPath id="clip0_465_753">
<rect width="80" height="80" fill="white" transform="translate(0 0.374023)"/>
</clipPath>
</defs>
</svg>
