<svg width="32" height="33" viewBox="0 0 32 33" fill="none" xmlns="http://www.w3.org/2000/svg">
<g id="check_icon">
<path d="M16 32.478C24.8366 32.478 32 25.3146 32 16.478C32 7.64147 24.8366 0.478027 16 0.478027C7.16344 0.478027 0 7.64147 0 16.478C0 25.3146 7.16344 32.478 16 32.478Z" fill="#FA541C"/>
<path fill-rule="evenodd" clip-rule="evenodd" d="M12.9655 21.0293L22.2601 10.8053C22.6316 10.3967 23.264 10.3666 23.6727 10.7381C24.0813 11.1096 24.1114 11.742 23.7399 12.1507L13.7399 23.1507C13.3559 23.5732 12.6966 23.5888 12.2929 23.1851L9.29289 20.1851C8.90237 19.7946 8.90237 19.1614 9.29289 18.7709C9.68342 18.3804 10.3166 18.3804 10.7071 18.7709L12.9655 21.0293Z" fill="white"/>
</g>
</svg>
