<svg width="85" height="85" viewBox="0 0 85 85" fill="none" xmlns="http://www.w3.org/2000/svg">
<path d="M85 42.5C85 65.9721 65.9721 85 42.5 85C19.0279 85 0 65.9721 0 42.5C0 19.0279 19.0279 0 42.5 0C65.9721 0 85 19.0279 85 42.5Z" fill="#FF5200"/>
<path d="M85 42.5C85 65.9721 65.9721 85 42.5 85C19.0279 85 0 65.9721 0 42.5C0 19.0279 19.0279 0 42.5 0C65.9721 0 85 19.0279 85 42.5Z" fill="#FF3D17"/>
<path d="M12.4287 46.155V42.415H19.9087V46.155H12.4287Z" fill="white"/>
<path d="M30.625 39.0864V37.6278C30.625 35.2716 29.8022 34.6358 28.4932 34.6358C27.1842 34.6358 26.3614 35.3464 26.3614 37.2164V38.8994H22.4718V37.4782C22.4718 33.2894 24.5662 30.8958 28.6054 30.8958C32.6446 30.8958 34.739 33.2894 34.739 37.4782V38.1514C34.739 40.9564 33.8414 42.7142 31.8592 43.537C33.9162 44.4346 34.739 46.3794 34.739 49.0348V51.0918C34.739 55.2806 32.6446 57.6742 28.6054 57.6742C24.5662 57.6742 22.4718 55.2806 22.4718 51.0918V48.9226H26.3614V51.3536C26.3614 53.2236 27.1842 53.9342 28.4932 53.9342C29.8022 53.9342 30.625 53.2984 30.625 50.9796V48.9226C30.625 46.4916 29.8022 45.594 27.9322 45.594H26.5484V41.854H28.1566C29.69 41.854 30.625 41.1808 30.625 39.0864Z" fill="white"/>
<path d="M41.3021 37.2164V51.3536C41.3021 53.2236 42.1249 53.9342 43.4339 53.9342C44.7429 53.9342 45.5657 53.2236 45.5657 51.3536V37.2164C45.5657 35.3464 44.7429 34.6358 43.4339 34.6358C42.1249 34.6358 41.3021 35.3464 41.3021 37.2164ZM37.1881 51.0918V37.4782C37.1881 33.2894 39.3947 30.8958 43.4339 30.8958C47.4731 30.8958 49.6797 33.2894 49.6797 37.4782V51.0918C49.6797 55.2806 47.4731 57.6742 43.4339 57.6742C39.3947 57.6742 37.1881 55.2806 37.1881 51.0918Z" fill="white"/>
<path d="M54.7468 35.0098V43.9858C54.7468 45.1452 55.233 45.6314 56.0932 45.6314C56.916 45.6314 57.4396 45.1452 57.4396 43.9858V35.0098C57.4396 33.8504 56.916 33.3642 56.0932 33.3642C55.233 33.3642 54.7468 33.8504 54.7468 35.0098ZM52.1288 43.7988V35.1968C52.1288 32.504 53.5126 31.008 56.0932 31.008C58.6738 31.008 60.0576 32.504 60.0576 35.1968V43.7988C60.0576 46.4916 58.6738 47.9876 56.0932 47.9876C53.5126 47.9876 52.1288 46.4916 52.1288 43.7988ZM56.0932 57.375L66.4156 31.195H68.8466L58.5242 57.375H56.0932ZM67.7246 44.5842V53.5602C67.7246 54.7196 68.2108 55.2058 69.071 55.2058C69.8938 55.2058 70.4174 54.7196 70.4174 53.5602V44.5842C70.4174 43.4248 69.8938 42.9386 69.071 42.9386C68.2108 42.9386 67.7246 43.4248 67.7246 44.5842ZM65.1066 53.3732V44.7712C65.1066 42.0784 66.4904 40.5824 69.071 40.5824C71.6516 40.5824 73.0354 42.0784 73.0354 44.7712V53.3732C73.0354 56.066 71.6516 57.562 69.071 57.562C66.4904 57.562 65.1066 56.066 65.1066 53.3732Z" fill="white"/>
</svg>
