<svg width="121" height="121" viewBox="0 0 121 121" fill="none" xmlns="http://www.w3.org/2000/svg">
<path d="M121 60.5C121 93.9132 93.9132 121 60.5 121C27.0868 121 0 93.9132 0 60.5C0 27.0868 27.0868 0 60.5 0C93.9132 0 121 27.0868 121 60.5Z" fill="#FF5200"/>
<path d="M121 60.5C121 93.9132 93.9132 121 60.5 121C27.0868 121 0 93.9132 0 60.5C0 27.0868 27.0868 0 60.5 0C93.9132 0 121 27.0868 121 60.5Z" fill="#FF3D17"/>
<path d="M29.134 46.706V43.318H35.91V46.706H29.134Z" fill="white"/>
<path d="M45.6176 40.3027V38.9814C45.6176 36.8469 44.8723 36.271 43.6865 36.271C42.5007 36.271 41.7553 36.9147 41.7553 38.6087V40.1333H38.2318V38.8458C38.2318 35.0513 40.1291 32.883 43.7881 32.883C47.4472 32.883 49.3444 35.0513 49.3444 38.8458V39.4557C49.3444 41.9967 48.5313 43.589 46.7357 44.3344C48.5991 45.1475 49.3444 46.9093 49.3444 49.3148V51.1782C49.3444 54.9727 47.4472 57.141 43.7881 57.141C40.1291 57.141 38.2318 54.9727 38.2318 51.1782V49.2131H41.7553V51.4153C41.7553 53.1093 42.5007 53.753 43.6865 53.753C44.8723 53.753 45.6176 53.1771 45.6176 51.0765V49.2131C45.6176 47.0109 44.8723 46.1978 43.1783 46.1978H41.9247V42.8098H43.3816C44.7706 42.8098 45.6176 42.2 45.6176 40.3027Z" fill="white"/>
<path d="M55.2899 38.6087V51.4153C55.2899 53.1093 56.0352 53.753 57.221 53.753C58.4068 53.753 59.1522 53.1093 59.1522 51.4153V38.6087C59.1522 36.9147 58.4068 36.271 57.221 36.271C56.0352 36.271 55.2899 36.9147 55.2899 38.6087ZM51.5631 51.1782V38.8458C51.5631 35.0513 53.562 32.883 57.221 32.883C60.8801 32.883 62.879 35.0513 62.879 38.8458V51.1782C62.879 54.9727 60.8801 57.141 57.221 57.141C53.562 57.141 51.5631 54.9727 51.5631 51.1782Z" fill="white"/>
<path d="M67.4692 36.6098V44.741C67.4692 45.7912 67.9096 46.2317 68.6889 46.2317C69.4342 46.2317 69.9085 45.7912 69.9085 44.741V36.6098C69.9085 35.5595 69.4342 35.119 68.6889 35.119C67.9096 35.119 67.4692 35.5595 67.4692 36.6098ZM65.0976 44.5716V36.7792C65.0976 34.3398 66.3511 32.9846 68.6889 32.9846C71.0266 32.9846 72.2801 34.3398 72.2801 36.7792V44.5716C72.2801 47.0109 71.0266 48.3661 68.6889 48.3661C66.3511 48.3661 65.0976 47.0109 65.0976 44.5716ZM68.6889 56.87L78.0397 33.154H80.242L70.8911 56.87H68.6889ZM79.2255 45.283V53.4142C79.2255 54.4645 79.666 54.905 80.4452 54.905C81.1906 54.905 81.6649 54.4645 81.6649 53.4142V45.283C81.6649 44.2328 81.1906 43.7923 80.4452 43.7923C79.666 43.7923 79.2255 44.2328 79.2255 45.283ZM76.8539 53.2448V45.4524C76.8539 43.0131 78.1075 41.6579 80.4452 41.6579C82.7829 41.6579 84.0365 43.0131 84.0365 45.4524V53.2448C84.0365 55.6842 82.7829 57.0394 80.4452 57.0394C78.1075 57.0394 76.8539 55.6842 76.8539 53.2448Z" fill="white"/>
<path d="M33.4437 68.8829C34.2471 69.212 34.6489 69.788 34.6489 70.6108C34.6489 71.2206 34.4069 71.7385 33.9229 72.1644C33.4389 72.5806 32.7516 72.7888 31.861 72.7888C30.409 72.7888 29.4362 72.208 28.9425 71.0464L30.0025 70.422C30.2832 71.2158 30.9075 71.6126 31.8755 71.6126C32.3595 71.6126 32.7322 71.511 32.9936 71.3077C33.2646 71.0948 33.4001 70.8237 33.4001 70.4946C33.4001 70.2042 33.2888 69.967 33.0662 69.7831C32.8532 69.5992 32.5628 69.5072 32.195 69.5072H31.135V68.3602H31.9191C32.2869 68.3602 32.5725 68.273 32.7758 68.0988C32.9791 67.9149 33.0807 67.668 33.0807 67.3583C33.0807 67.0485 32.9597 66.7968 32.7177 66.6032C32.4854 66.4096 32.1611 66.3128 31.7449 66.3128C30.9317 66.3128 30.38 66.6565 30.0896 67.3438L29.0587 66.7484C29.5717 65.6836 30.4671 65.1512 31.7449 65.1512C32.5386 65.1512 33.163 65.3545 33.6179 65.7611C34.0826 66.1676 34.3149 66.6662 34.3149 67.2566C34.3149 67.9923 34.0245 68.5344 33.4437 68.8829Z" fill="white"/>
<path d="M42.0289 65.34H43.2921V72.6H42.0289V71.3513C41.3997 72.3096 40.4849 72.7888 39.2846 72.7888C38.2682 72.7888 37.4018 72.4209 36.6855 71.6852C35.9692 70.9399 35.611 70.0348 35.611 68.97C35.611 67.9052 35.9692 67.005 36.6855 66.2693C37.4018 65.5239 38.2682 65.1512 39.2846 65.1512C40.4849 65.1512 41.3997 65.6304 42.0289 66.5887V65.34ZM39.4443 71.5691C40.18 71.5691 40.7947 71.3222 41.2884 70.8286C41.782 70.3252 42.0289 69.7057 42.0289 68.97C42.0289 68.2343 41.782 67.6196 41.2884 67.126C40.7947 66.6226 40.18 66.3709 39.4443 66.3709C38.7183 66.3709 38.1085 66.6226 37.6148 67.126C37.1211 67.6196 36.8743 68.2343 36.8743 68.97C36.8743 69.7057 37.1211 70.3252 37.6148 70.8286C38.1085 71.3222 38.7183 71.5691 39.4443 71.5691Z" fill="white"/>
<path d="M48.5021 72.7888C47.4276 72.7888 46.5419 72.4354 45.8449 71.7288C45.148 71.0222 44.7995 70.1122 44.7995 68.999C44.7995 67.76 44.9786 66.8065 45.3367 66.1386C45.7046 65.4707 46.4499 64.8657 47.5728 64.3236C47.7761 64.2268 48.052 64.101 48.4004 63.9461C48.7586 63.7912 49.02 63.675 49.1845 63.5976C49.3491 63.5105 49.533 63.3992 49.7363 63.2636C49.9396 63.1184 50.0896 62.9636 50.1864 62.799C50.2929 62.6248 50.3703 62.4263 50.4187 62.2037L51.4351 62.7845C51.4061 62.9394 51.3674 63.0846 51.319 63.2201C51.2706 63.3459 51.198 63.4718 51.1012 63.5976C51.014 63.7138 50.9366 63.8154 50.8688 63.9025C50.8011 63.9896 50.6849 64.0864 50.5204 64.1929C50.3655 64.2897 50.2493 64.3623 50.1719 64.4107C50.1041 64.4591 49.9638 64.5317 49.7508 64.6285C49.5475 64.7253 49.4072 64.7931 49.3297 64.8318C49.262 64.8608 49.1022 64.9286 48.8506 65.0351C48.5989 65.1319 48.444 65.1948 48.3859 65.2238C47.7277 65.5046 47.2437 65.7901 46.9339 66.0805C46.6338 66.3709 46.416 66.7388 46.2805 67.184C46.5903 66.7968 46.9775 66.5113 47.4421 66.3274C47.9068 66.1434 48.3714 66.0515 48.836 66.0515C49.746 66.0515 50.5155 66.3612 51.1447 66.9808C51.7836 67.6003 52.103 68.3989 52.103 69.3766C52.103 70.3639 51.7642 71.1819 51.0866 71.8304C50.409 72.4693 49.5475 72.7888 48.5021 72.7888ZM46.8032 70.9302C47.2582 71.3561 47.8245 71.5691 48.5021 71.5691C49.1797 71.5691 49.7363 71.361 50.1719 70.9447C50.6172 70.5285 50.8398 70.0058 50.8398 69.3766C50.8398 68.728 50.6268 68.2004 50.2009 67.7939C49.7847 67.3776 49.2329 67.1695 48.5456 67.1695C47.9261 67.1695 47.3647 67.368 46.8613 67.7648C46.3676 68.152 46.1208 68.6651 46.1208 69.304C46.1208 69.9622 46.3483 70.5043 46.8032 70.9302Z" fill="white"/>
<path d="M54.3302 69.5508C54.456 70.1994 54.7512 70.7027 55.2159 71.0609C55.6902 71.419 56.271 71.5981 56.9583 71.5981C57.9166 71.5981 58.6136 71.2448 59.0492 70.5382L60.1236 71.148C59.417 72.2418 58.3522 72.7888 56.9292 72.7888C55.7773 72.7888 54.8384 72.4306 54.1124 71.7143C53.396 70.9883 53.0379 70.0735 53.0379 68.97C53.0379 67.8762 53.3912 66.9662 54.0978 66.2402C54.8045 65.5142 55.7192 65.1512 56.8421 65.1512C57.9069 65.1512 58.7733 65.5288 59.4412 66.2838C60.1188 67.0292 60.4576 67.9294 60.4576 68.9845C60.4576 69.1684 60.4431 69.3572 60.414 69.5508H54.3302ZM56.8421 66.3419C56.1645 66.3419 55.6031 66.5355 55.1578 66.9227C54.7125 67.3002 54.4366 67.8084 54.3302 68.4473H59.1798C59.0734 67.76 58.8023 67.2373 58.3667 66.8791C57.9311 66.521 57.4229 66.3419 56.8421 66.3419Z" fill="white"/>
<path d="M65.9172 65.1512C66.9336 65.1512 67.8 65.5239 68.5163 66.2693C69.2326 67.005 69.5908 67.9052 69.5908 68.97C69.5908 70.0348 69.2326 70.9399 68.5163 71.6852C67.8 72.4209 66.9336 72.7888 65.9172 72.7888C64.7169 72.7888 63.8021 72.3096 63.1729 71.3513V75.504H61.9097V65.34H63.1729V66.5887C63.8021 65.6304 64.7169 65.1512 65.9172 65.1512ZM65.7575 71.5691C66.4835 71.5691 67.0933 71.3222 67.587 70.8286C68.0807 70.3252 68.3276 69.7057 68.3276 68.97C68.3276 68.2343 68.0807 67.6196 67.587 67.126C67.0933 66.6226 66.4835 66.3709 65.7575 66.3709C65.0218 66.3709 64.4072 66.6226 63.9135 67.126C63.4198 67.6196 63.1729 68.2343 63.1729 68.97C63.1729 69.7057 63.4198 70.3252 63.9135 70.8286C64.4072 71.3222 65.0218 71.5691 65.7575 71.5691Z" fill="white"/>
<path d="M76.3689 65.34H77.3853V72.6H76.1366V67.5035L72.1145 72.6H71.0981V65.34H72.3469V70.4365L76.3689 65.34Z" fill="white"/>
<path d="M84.7096 65.34V66.5597H82.2412V72.6H80.978V66.5597H78.4951V65.34H84.7096Z" fill="white"/>
<path d="M86.4188 69.5508C86.5446 70.1994 86.8399 70.7027 87.3045 71.0609C87.7788 71.419 88.3596 71.5981 89.0469 71.5981C90.0052 71.5981 90.7022 71.2448 91.1378 70.5382L92.2123 71.148C91.5056 72.2418 90.4408 72.7888 89.0179 72.7888C87.8659 72.7888 86.927 72.4306 86.201 71.7143C85.4847 70.9883 85.1265 70.0735 85.1265 68.97C85.1265 67.8762 85.4798 66.9662 86.1865 66.2402C86.8931 65.5142 87.8079 65.1512 88.9307 65.1512C89.9955 65.1512 90.8619 65.5288 91.5298 66.2838C92.2074 67.0292 92.5462 67.9294 92.5462 68.9845C92.5462 69.1684 92.5317 69.3572 92.5027 69.5508H86.4188ZM88.9307 66.3419C88.2531 66.3419 87.6917 66.5355 87.2464 66.9227C86.8011 67.3002 86.5253 67.8084 86.4188 68.4473H91.2685C91.162 67.76 90.891 67.2373 90.4554 66.8791C90.0198 66.521 89.5115 66.3419 88.9307 66.3419Z" fill="white"/>
<path d="M41.8474 88.5188C40.7536 88.5188 39.8437 88.1558 39.1177 87.4298C38.3917 86.6941 38.0287 85.7842 38.0287 84.7C38.0287 83.6158 38.3917 82.7108 39.1177 81.9848C39.8437 81.2491 40.7536 80.8812 41.8474 80.8812C42.5638 80.8812 43.2075 81.0555 43.7786 81.404C44.3497 81.7428 44.7756 82.2026 45.0564 82.7834L43.9964 83.3932C43.8125 83.006 43.5269 82.6962 43.1397 82.4639C42.7622 82.2316 42.3314 82.1154 41.8474 82.1154C41.1214 82.1154 40.5116 82.3623 40.0179 82.856C39.5339 83.3496 39.2919 83.9643 39.2919 84.7C39.2919 85.426 39.5339 86.0358 40.0179 86.5295C40.5116 87.0232 41.1214 87.27 41.8474 87.27C42.3314 87.27 42.767 87.1587 43.1542 86.9361C43.5414 86.7038 43.8367 86.394 44.04 86.0068L45.1144 86.6312C44.8047 87.2023 44.3594 87.6621 43.7786 88.0106C43.1978 88.3494 42.5541 88.5188 41.8474 88.5188Z" fill="white"/>
<path d="M52.5178 88.33H50.9497L47.6391 84.8888V88.33H46.3759V81.07H47.6391V84.2789L50.7754 81.07H52.4017L48.9314 84.5838L52.5178 88.33Z" fill="white"/>
<path d="M58.9633 81.07H59.9797V88.33H58.731V83.2335L54.709 88.33H53.6926V81.07H54.9413V86.1665L58.9633 81.07Z" fill="white"/>
<path d="M68.1462 87.1248H69.1481V90.2757H67.8994V88.33H62.4544V90.2757H61.2057V87.1248H62.0914C62.556 86.486 62.7883 85.5906 62.7883 84.4386V81.07H68.1462V87.1248ZM63.5289 87.1248H66.8975V82.2461H64.0371V84.4386C64.0371 85.5228 63.8677 86.4182 63.5289 87.1248Z" fill="white"/>
<path d="M76.6516 88.33H75.0835L71.7729 84.8888V88.33H70.5097V81.07H71.7729V84.2789L74.9092 81.07H76.5355L73.0652 84.5838L76.6516 88.33Z" fill="white"/>
<path d="M82.6812 81.07H84.0316L81.0695 88.7801C80.7597 89.6029 80.3241 90.2273 79.7627 90.6532C79.2012 91.0888 78.5624 91.2824 77.846 91.234V90.0579C78.7366 90.1256 79.39 89.6416 79.8062 88.6059L79.9224 88.3445L76.7716 81.07H78.1074L80.5903 86.7618L82.6812 81.07Z" fill="white"/>
</svg>
