<svg width="48" height="49" viewBox="0 0 48 49" fill="none" xmlns="http://www.w3.org/2000/svg">
<g id="telegramm">
<circle id="Ellipse" cx="24" cy="24.4443" r="24" fill="#2F89CE"/>
<path id="Vector" d="M11.2209 24.8931L16.7386 26.9506L18.8896 33.8711C18.9831 34.3387 19.5442 34.4322 19.9183 34.1516L23.0045 31.6266C23.285 31.346 23.7526 31.346 24.1267 31.6266L29.6444 35.648C30.0185 35.9285 30.5796 35.7415 30.6731 35.2739L34.788 15.6346C34.8815 15.167 34.4139 14.6994 33.9463 14.8865L11.2209 23.6774C10.6598 23.8644 10.6598 24.7061 11.2209 24.8931ZM18.609 25.9219L29.4573 19.2819C29.6444 19.1884 29.8314 19.469 29.6444 19.5625L20.76 27.8858C20.4794 28.1663 20.1988 28.5404 20.1988 29.008L19.9183 31.2525C19.9183 31.5331 19.4507 31.6266 19.3572 31.2525L18.2349 27.1376C17.9543 26.67 18.1414 26.1089 18.609 25.9219Z" fill="white"/>
</g>
</svg>
