<svg xmlns="http://www.w3.org/2000/svg" width="80" height="81" viewBox="0 0 80 81" fill="none">
  <path d="M10.6093 10.6847C10.5914 10.6831 10.5733 10.6853 10.5563 10.6911C10.5393 10.6968 10.5237 10.706 10.5104 10.7181C10.4972 10.7301 10.4867 10.7448 10.4795 10.7611C10.4723 10.7774 10.4686 10.795 10.4687 10.8128C10.4687 13.3607 10.4687 15.9237 10.4687 18.5018C10.4687 19.5737 10.1453 20.1456 9.03434 20.1487C7.70413 20.1529 6.37444 20.1539 5.04528 20.1518C3.9859 20.1503 3.39996 19.8331 3.39996 18.7284C3.39788 16.0961 3.39736 13.4711 3.3984 10.8534C3.39841 10.8168 3.38414 10.7817 3.35869 10.7556C3.33324 10.7296 3.29866 10.7148 3.26246 10.7143C2.46559 10.7081 1.87705 10.4128 1.49684 9.8284C0.962464 9.00965 1.32809 8.23778 1.91715 7.48934C2.88903 6.25288 3.85986 5.01538 4.82965 3.77684C5.42549 3.01538 5.87444 2.55288 6.17653 2.38934C7.2984 1.78309 8.10778 2.5784 8.8109 3.48309C9.84111 4.80705 10.8781 6.12684 11.9218 7.44247C12.2854 7.90184 12.5005 8.2883 12.5672 8.60184C12.8203 9.79715 11.7922 10.7987 10.6093 10.6847ZM9.22653 8.16278C9.23351 8.1613 9.23996 8.15803 9.24529 8.15327C9.25061 8.14851 9.25463 8.14242 9.25697 8.13555C9.25931 8.12869 9.25989 8.12128 9.25867 8.11402C9.25744 8.10676 9.25445 8.09988 9.24996 8.09403L6.98746 5.21747C6.98144 5.20951 6.97365 5.20307 6.96469 5.19865C6.95572 5.19422 6.94581 5.19192 6.93572 5.19192C6.92563 5.19192 6.91562 5.19422 6.90644 5.19865C6.89727 5.20307 6.88917 5.20951 6.88278 5.21747L4.61715 8.08778C4.60895 8.09809 4.60368 8.11042 4.60189 8.12348C4.60009 8.13653 4.60185 8.14983 4.60696 8.16197C4.61207 8.17411 4.62036 8.18466 4.63095 8.1925C4.64154 8.20034 4.65404 8.20518 4.66715 8.20653C5.7234 8.30028 5.89528 9.03465 5.89528 9.99715C5.8984 12.5201 5.89944 15.0445 5.8984 17.5706C5.8984 17.6216 5.92392 17.6472 5.97496 17.6472L7.8609 17.6597C7.87512 17.6599 7.88923 17.6572 7.90241 17.6519C7.91558 17.6465 7.92755 17.6386 7.93761 17.6285C7.94766 17.6185 7.95559 17.6065 7.96094 17.5933C7.96628 17.5802 7.96892 17.5661 7.96871 17.5518C7.96767 15.0518 7.96819 12.5404 7.97028 10.0175C7.97184 8.91434 8.12965 8.4159 9.22653 8.16278Z" fill="#FAF9F6"/>
  <path d="M76.7049 10.6721C76.6919 10.6703 76.6787 10.6713 76.6662 10.6751C76.6536 10.6788 76.642 10.6852 76.6321 10.6937C76.6222 10.7023 76.6142 10.7129 76.6087 10.7248C76.6032 10.7367 76.6003 10.7496 76.6002 10.7627C76.6044 13.3825 76.6033 16.0065 76.5971 18.6346C76.5955 19.6268 76.1877 20.1471 75.194 20.1487C73.8523 20.1528 72.5122 20.1534 71.1737 20.1502C70.1549 20.1487 69.5362 19.8424 69.5346 18.7659C69.5304 16.095 69.5299 13.4388 69.533 10.7971C69.5331 10.7813 69.5298 10.7657 69.5235 10.7512C69.5171 10.7367 69.5077 10.7237 69.496 10.7129C69.4842 10.7022 69.4703 10.694 69.4552 10.6889C69.4401 10.6837 69.424 10.6817 69.408 10.683C68.6601 10.7476 68.0773 10.4778 67.6596 9.87367C67.083 9.03617 67.4549 8.25336 68.0596 7.47992C69.2304 5.97888 70.408 4.48357 71.5924 2.99399C72.3908 1.9893 73.6893 1.91586 74.4908 2.9268C75.7033 4.45909 76.9132 5.99399 78.1205 7.53149C78.4268 7.92107 78.6138 8.24086 78.6815 8.49086C79.0174 9.73617 77.9518 10.8424 76.7049 10.6721ZM73.0205 5.20492L70.7315 8.1143C70.7243 8.12384 70.7194 8.1349 70.7171 8.14662C70.7149 8.15833 70.7154 8.17037 70.7186 8.18176C70.7217 8.19315 70.7275 8.20358 70.7355 8.21221C70.7434 8.22085 70.7533 8.22745 70.7643 8.23149C70.7935 8.24399 70.8221 8.24242 70.8502 8.2268C70.8929 8.20388 70.9382 8.19867 70.9862 8.21117C71.6862 8.4018 72.0351 8.85388 72.033 9.56742C72.0278 12.231 72.0283 14.8982 72.0346 17.569C72.0346 17.6242 72.0622 17.6518 72.1174 17.6518H74.0221C74.0432 17.6518 74.0635 17.6434 74.0784 17.6285C74.0934 17.6135 74.1018 17.5932 74.1018 17.5721C74.1018 15.0773 74.1018 12.5815 74.1018 10.0846C74.1018 9.07524 74.2221 8.3143 75.3393 8.19867C75.3514 8.19746 75.3629 8.19299 75.3726 8.18575C75.3824 8.17851 75.39 8.16876 75.3946 8.15754C75.3993 8.14632 75.4008 8.13404 75.399 8.12203C75.3973 8.11001 75.3923 8.0987 75.3846 8.0893L73.108 5.20492C73.1028 5.1984 73.0961 5.19314 73.0885 5.18952C73.081 5.1859 73.0727 5.18403 73.0643 5.18403C73.0559 5.18403 73.0476 5.1859 73.04 5.18952C73.0325 5.19314 73.0258 5.1984 73.0205 5.20492Z" fill="#FAF9F6"/>
  <path d="M63.394 24.9144C65.0836 24.9217 66.7909 24.9222 68.5159 24.916C69.5893 24.9128 70.0752 25.3222 70.0768 26.3831C70.0789 31.5852 70.0794 36.7852 70.0784 41.9831C70.0781 41.9939 70.0801 42.0047 70.0841 42.0147C70.0881 42.0247 70.094 42.0339 70.1016 42.0416C70.1092 42.0493 70.1182 42.0554 70.1281 42.0596C70.1381 42.0638 70.1488 42.066 70.1596 42.0659C71.2627 42.0659 73.969 41.58 73.9783 43.3253C73.9867 44.768 73.9914 46.2102 73.9924 47.6519C73.9924 48.3831 73.6544 48.8738 72.9783 49.1238C71.419 49.6998 69.8617 50.2837 68.3065 50.8753C68.2471 50.8982 68.2091 50.941 68.1924 51.0035C67.4945 53.6024 66.4711 56.0659 65.1221 58.3941C65.1115 58.4124 65.1054 58.4329 65.1043 58.4538C65.1033 58.4748 65.1072 58.4955 65.1158 58.5144C65.8294 60.0998 66.5273 61.6805 67.2096 63.2566C67.4065 63.7113 67.3924 64.3003 67.0596 64.6331C64.894 66.8029 62.7263 68.9706 60.5565 71.1363C60.0299 71.6613 59.4346 71.4956 58.769 71.2003C57.3127 70.5545 55.8586 69.9087 54.4065 69.2628C54.3779 69.2502 54.3467 69.2445 54.3155 69.2462C54.2843 69.2478 54.2539 69.2567 54.2268 69.2722C51.9018 70.6212 49.4408 71.643 46.844 72.3378C46.7981 72.3503 46.7669 72.3784 46.7502 72.4222C46.1388 74.0462 45.5138 75.6592 44.8752 77.2613C44.6784 77.755 44.2455 78.1144 43.7409 78.116C40.8284 78.1232 37.9164 78.1232 35.0049 78.116C34.2346 78.1144 33.7362 77.9753 33.4534 77.255C32.8211 75.6383 32.195 74.0269 31.5752 72.4206C31.566 72.3964 31.5511 72.3747 31.5318 72.3573C31.5125 72.3399 31.4894 72.3273 31.4643 72.3206C28.8716 71.6311 26.4148 70.6139 24.094 69.2691C24.0698 69.255 24.0426 69.247 24.0146 69.2457C23.9866 69.2443 23.9587 69.2496 23.933 69.2613C22.3466 69.9811 20.7554 70.6831 19.1596 71.3675C18.8127 71.5159 18.1658 71.5097 17.933 71.2816C15.8221 69.2113 13.7659 67.0831 11.6518 65.0159C11.0596 64.4378 10.7909 64.0034 11.1455 63.1925C11.8257 61.6352 12.5159 60.0816 13.2159 58.5316C13.226 58.5083 13.2306 58.4831 13.2292 58.4578C13.2278 58.4326 13.2206 58.4081 13.208 58.3863C11.8549 56.0581 10.832 53.592 10.1393 50.9878C10.133 50.9646 10.1213 50.9433 10.1052 50.9256C10.0892 50.908 10.0693 50.8945 10.0471 50.8863C8.43252 50.2748 6.83043 49.6555 5.24085 49.0285C4.84085 48.8706 4.38148 48.4753 4.37991 48.0722C4.37262 46.5712 4.3721 45.0706 4.37835 43.5706C4.38148 42.616 4.75647 42.0722 5.72991 42.0675C6.53929 42.0644 7.3471 42.0644 8.15335 42.0675C8.17697 42.0675 8.19962 42.0581 8.21633 42.0414C8.23303 42.0247 8.24241 42.0021 8.24241 41.9785C8.24137 36.7222 8.24554 31.4915 8.25491 26.2863C8.25648 25.2409 8.86429 24.9144 9.84554 24.916C11.9935 24.918 14.1398 24.918 16.2846 24.916C16.2955 24.916 16.3062 24.9139 16.3163 24.9098C16.3263 24.9057 16.3355 24.8997 16.3432 24.8922C16.3508 24.8846 16.3569 24.8757 16.3611 24.8658C16.3653 24.8559 16.3674 24.8454 16.3674 24.8347C16.3674 23.2316 16.3674 21.6196 16.3674 19.9988C16.3674 19.0534 16.4362 18.2316 17.4534 18.0894C17.7034 18.054 18.0049 18.1128 18.358 18.266C21.3935 19.5826 24.4237 20.9024 27.4487 22.2253C27.4548 22.2279 27.4615 22.2289 27.4682 22.2283C27.4749 22.2276 27.4813 22.2253 27.4868 22.2216C27.4924 22.2179 27.497 22.2129 27.5001 22.207C27.5033 22.2011 27.5049 22.1945 27.5049 22.1878C27.4997 19.5045 27.4992 16.879 27.5034 14.3113C27.5049 13.1425 27.8065 12.5316 29.0315 12.5331C29.9127 12.5352 30.7862 12.5357 31.6518 12.5347C31.6899 12.5347 31.7265 12.5196 31.7534 12.4926C31.7804 12.4656 31.7955 12.4291 31.7955 12.391C31.7987 11.491 31.7992 10.5779 31.7971 9.65189C31.794 8.48939 32.0674 7.84876 33.3018 7.84876C37.2924 7.84668 41.283 7.84616 45.2737 7.8472C46.1815 7.8472 46.5159 8.56595 46.5205 9.41283C46.5257 10.4107 46.5263 11.4035 46.5221 12.391C46.5219 12.4098 46.5254 12.4284 46.5325 12.4458C46.5395 12.4633 46.55 12.4791 46.5632 12.4925C46.5764 12.5059 46.5922 12.5165 46.6095 12.5237C46.6269 12.531 46.6455 12.5347 46.6643 12.5347C47.4862 12.5347 48.3195 12.5352 49.1643 12.5363C50.2643 12.5363 50.8174 12.891 50.8174 14.0144C50.8216 17.6248 50.8221 21.2326 50.819 24.8378C50.819 24.859 50.8275 24.8792 50.8428 24.8942C50.858 24.9091 50.8787 24.9175 50.9002 24.9175H54.9612C55.0026 24.9175 55.0423 24.9011 55.0716 24.8717C55.1009 24.8424 55.1174 24.8027 55.1174 24.7613V10.4238C55.1174 10.4125 55.1152 10.4014 55.1108 10.3912C55.1064 10.3809 55.0999 10.3716 55.0919 10.364C55.0838 10.3563 55.0743 10.3505 55.0639 10.3468C55.0535 10.3431 55.0424 10.3416 55.0315 10.3425C53.1315 10.4847 52.8893 7.85033 55.0924 7.84876C57.7737 7.84668 60.4549 7.84616 63.1362 7.8472C63.6632 7.8472 64.0346 7.90814 64.2502 8.03001C65.5096 8.74095 64.7752 10.3847 63.3877 10.3566C63.3169 10.3555 63.2815 10.3904 63.2815 10.4613V24.8003C63.2815 24.8303 63.2933 24.8591 63.3143 24.8804C63.3354 24.9018 63.364 24.914 63.394 24.9144ZM44.0284 10.4425C44.0284 10.4172 44.0183 10.393 44.0004 10.3751C43.9826 10.3572 43.9583 10.3472 43.933 10.3472H34.3924C34.3671 10.3472 34.3429 10.3572 34.325 10.3751C34.3071 10.393 34.2971 10.4172 34.2971 10.4425V12.4394C34.2971 12.4647 34.3071 12.4889 34.325 12.5068C34.3429 12.5247 34.3671 12.5347 34.3924 12.5347H43.933C43.9583 12.5347 43.9826 12.5247 44.0004 12.5068C44.0183 12.4889 44.0284 12.4647 44.0284 12.4394V10.4425ZM60.7781 10.4366C60.778 10.4122 60.7683 10.3887 60.751 10.3715C60.7337 10.3542 60.7102 10.3446 60.6857 10.3446L57.7045 10.3498C57.68 10.3499 57.6566 10.3596 57.6394 10.3769C57.6221 10.3942 57.6124 10.4177 57.6125 10.4422L57.6192 14.3203C57.6193 14.3447 57.629 14.3682 57.6464 14.3854C57.6637 14.4027 57.6871 14.4123 57.7116 14.4123L60.6928 14.4071C60.7173 14.407 60.7407 14.3973 60.758 14.38C60.7752 14.3627 60.7849 14.3392 60.7849 14.3147L60.7781 10.4366ZM48.3221 15.1394C48.3221 15.1116 48.3111 15.085 48.2914 15.0654C48.2718 15.0457 48.2452 15.0347 48.2174 15.0347H30.1049C30.0771 15.0347 30.0505 15.0457 30.0309 15.0654C30.0113 15.085 30.0002 15.1116 30.0002 15.1394V41.9613C30.0002 41.989 30.0113 42.0157 30.0309 42.0353C30.0505 42.0549 30.0771 42.0659 30.1049 42.0659H48.2174C48.2452 42.0659 48.2718 42.0549 48.2914 42.0353C48.3111 42.0157 48.3221 41.989 48.3221 41.9613V15.1394ZM57.6846 16.9097C57.675 16.9097 57.6654 16.9116 57.6565 16.9153C57.6476 16.919 57.6395 16.9244 57.6327 16.9312C57.6259 16.938 57.6204 16.9461 57.6168 16.955C57.6131 16.9639 57.6112 16.9735 57.6112 16.9831L57.6096 18.2816C57.6096 18.2912 57.6115 18.3008 57.6152 18.3097C57.6189 18.3186 57.6243 18.3267 57.6311 18.3335C57.6379 18.3403 57.646 18.3457 57.6549 18.3494C57.6638 18.3531 57.6734 18.355 57.683 18.355H60.708C60.7177 18.355 60.7272 18.3531 60.7361 18.3494C60.7451 18.3457 60.7531 18.3403 60.76 18.3335C60.7668 18.3267 60.7722 18.3186 60.7759 18.3097C60.7796 18.3008 60.7815 18.2912 60.7815 18.2816V16.9831C60.7815 16.9735 60.7796 16.9639 60.7759 16.955C60.7722 16.9461 60.7668 16.938 60.76 16.9312C60.7531 16.9244 60.7451 16.919 60.7361 16.9153C60.7272 16.9116 60.7177 16.9097 60.708 16.9097H57.6846ZM60.7849 20.9265C60.7849 20.9175 60.7831 20.9086 60.7797 20.9002C60.7763 20.8919 60.7712 20.8843 60.7648 20.8779C60.7585 20.8715 60.7509 20.8664 60.7426 20.8629C60.7342 20.8595 60.7253 20.8577 60.7163 20.8577L57.6881 20.8524C57.6791 20.8524 57.6702 20.8541 57.6618 20.8576C57.6535 20.861 57.6459 20.866 57.6395 20.8724C57.6331 20.8788 57.628 20.8864 57.6245 20.8947C57.6211 20.903 57.6193 20.912 57.6193 20.921L57.6124 24.846C57.6124 24.855 57.6142 24.864 57.6176 24.8723C57.6211 24.8807 57.6261 24.8883 57.6325 24.8946C57.6388 24.901 57.6464 24.9061 57.6548 24.9096C57.6631 24.9131 57.672 24.9149 57.6811 24.9149L60.7092 24.9202C60.7182 24.9202 60.7271 24.9184 60.7355 24.915C60.7438 24.9115 60.7514 24.9065 60.7578 24.9001C60.7642 24.8937 60.7693 24.8862 60.7728 24.8778C60.7762 24.8695 60.778 24.8606 60.7781 24.8515L60.7849 20.9265ZM27.5002 25.0316C27.5004 25.0143 27.4954 24.9974 27.486 24.9829C27.4765 24.9684 27.463 24.9571 27.4471 24.9503L18.9893 21.2597C18.9759 21.254 18.9613 21.2517 18.9469 21.253C18.9324 21.2544 18.9185 21.2593 18.9064 21.2674C18.8943 21.2754 18.8844 21.2864 18.8776 21.2992C18.8708 21.3121 18.8673 21.3264 18.8674 21.341V41.9785C18.8674 42.0017 18.8766 42.0239 18.893 42.0403C18.9094 42.0567 18.9317 42.0659 18.9549 42.0659H27.4127C27.4359 42.0659 27.4582 42.0567 27.4746 42.0403C27.491 42.0239 27.5002 42.0017 27.5002 41.9785V25.0316ZM16.3674 27.5097C16.3674 27.484 16.3572 27.4594 16.339 27.4412C16.3209 27.423 16.2962 27.4128 16.2705 27.4128H10.8393C10.8136 27.4128 10.789 27.423 10.7708 27.4412C10.7526 27.4594 10.7424 27.484 10.7424 27.5097V41.9691C10.7424 41.9948 10.7526 42.0194 10.7708 42.0376C10.789 42.0557 10.8136 42.0659 10.8393 42.0659H16.2705C16.2962 42.0659 16.3209 42.0557 16.339 42.0376C16.3572 42.0194 16.3674 41.9948 16.3674 41.9691V27.5097ZM67.5768 27.466C67.5768 27.4527 67.5715 27.44 67.5621 27.4306C67.5528 27.4212 67.5401 27.416 67.5268 27.416H50.8705C50.8573 27.416 50.8446 27.4212 50.8352 27.4306C50.8258 27.44 50.8205 27.4527 50.8205 27.466V42.0159C50.8205 42.0292 50.8258 42.0419 50.8352 42.0513C50.8446 42.0607 50.8573 42.0659 50.8705 42.0659H67.5268C67.5401 42.0659 67.5528 42.0607 67.5621 42.0513C67.5715 42.0419 67.5768 42.0292 67.5768 42.0159V27.466ZM26.7659 44.6144C27.8377 53.6628 37.8596 58.8113 45.7299 53.88C49.0247 51.8154 50.9685 48.7701 51.5612 44.7441C51.5778 44.6253 51.5263 44.5659 51.4065 44.5659H26.8096C26.8034 44.5659 26.7973 44.5672 26.7917 44.5697C26.7861 44.5722 26.781 44.5758 26.7769 44.5804C26.7728 44.5849 26.7696 44.5903 26.7677 44.5962C26.7658 44.6021 26.7652 44.6083 26.7659 44.6144ZM12.0455 49.1269C12.2549 49.3316 12.3502 49.5534 12.4268 49.8566C13.158 52.78 14.2877 55.255 15.7471 57.8269C15.9049 58.1034 15.9362 58.5253 15.8221 58.7847C15.1367 60.3503 14.4471 61.9066 13.7533 63.4534C13.7423 63.4777 13.739 63.5048 13.7437 63.531C13.7485 63.5573 13.7611 63.5814 13.7799 63.6003L18.8768 68.6972C18.9153 68.7357 18.9596 68.7436 19.0096 68.7206C20.4929 68.0561 21.9783 67.3982 23.4658 66.7472C23.9908 66.5159 24.3893 66.5425 24.8549 66.8206C27.3028 68.2883 29.9096 69.3686 32.6752 70.0613C33.0721 70.1597 33.4909 70.4378 33.6252 70.7878C34.2294 72.3607 34.8398 73.9425 35.4565 75.5331C35.4794 75.5915 35.5221 75.6206 35.5846 75.6206H42.7299C42.763 75.6205 42.7954 75.6103 42.8227 75.5914C42.85 75.5724 42.8711 75.5456 42.883 75.5144C43.4768 73.9706 44.0851 72.4201 44.708 70.8628C44.8747 70.4482 45.1283 70.1972 45.469 70.1097C48.469 69.3357 51.1606 68.2258 53.544 66.78C53.944 66.5378 54.3815 66.5331 54.8346 66.7316C56.3336 67.3837 57.8356 68.0467 59.3409 68.7206C59.3961 68.7446 59.445 68.7352 59.4877 68.6925L64.5658 63.6003C64.5992 63.566 64.6065 63.5274 64.5877 63.4847C63.919 61.9774 63.2528 60.4696 62.5893 58.9613C62.4049 58.541 62.4018 58.0691 62.6268 57.7019C64.0747 55.3227 65.1778 52.6623 65.9362 49.7206C66.1283 48.9769 66.6752 48.8425 67.494 48.5222C68.7898 48.0159 70.0836 47.5191 71.3752 47.0316C71.4075 47.0192 71.4352 46.9974 71.4547 46.9689C71.4742 46.9404 71.4847 46.9067 71.4846 46.8722V44.6441C71.4846 44.6234 71.4764 44.6035 71.4617 44.5888C71.4471 44.5742 71.4272 44.5659 71.4065 44.5659H54.1815C54.1273 44.5659 54.0971 44.593 54.0909 44.6472C53.5679 49.0368 51.6351 52.5342 48.2924 55.1394C42.6846 59.5097 34.7409 59.255 29.3955 54.616C26.4226 52.0347 24.7044 48.7029 24.2409 44.6206C24.2393 44.6056 24.2322 44.5916 24.2209 44.5815C24.2097 44.5714 24.195 44.5659 24.1799 44.5659H6.95335C6.90127 44.5659 6.87523 44.592 6.87523 44.6441V46.9035C6.87523 46.9587 6.90075 46.9962 6.95179 47.0159L11.7377 48.8691C11.7601 48.8779 11.8009 48.9068 11.8555 48.9525C11.91 48.9981 11.9759 49.0587 12.0455 49.1269Z" fill="#FAF9F6"/>
  <path d="M45.8877 29.6464C45.8874 29.812 45.8545 29.9759 45.7909 30.1288C45.7272 30.2817 45.6341 30.4205 45.5168 30.5374C45.3995 30.6543 45.2603 30.7469 45.1073 30.81C44.9542 30.8731 44.7901 30.9054 44.6245 30.9051L33.7089 30.8861C33.5433 30.8858 33.3794 30.8529 33.2266 30.7893C33.0737 30.7256 32.9348 30.6325 32.818 30.5152C32.7011 30.3979 32.6084 30.2588 32.5453 30.1057C32.4822 29.9526 32.4499 29.7885 32.4502 29.623L32.4692 18.7073C32.4695 18.5418 32.5024 18.3778 32.5661 18.225C32.6297 18.0721 32.7228 17.9333 32.8401 17.8164C32.9574 17.6995 33.0966 17.6069 33.2497 17.5438C33.4028 17.4806 33.5668 17.4483 33.7324 17.4486L44.648 17.4677C44.8136 17.4679 44.9775 17.5008 45.1304 17.5645C45.2832 17.6281 45.4221 17.7212 45.539 17.8385C45.6559 17.9558 45.7485 18.095 45.8116 18.2481C45.8747 18.4012 45.907 18.5652 45.9067 18.7308L45.8877 29.6464ZM43.3753 28.3925C43.391 28.3925 43.3988 28.3847 43.3988 28.3691V20.0347C43.3988 20.014 43.3905 19.9941 43.3759 19.9794C43.3612 19.9648 43.3414 19.9566 43.3207 19.9566H35.016C34.9493 19.9566 34.916 19.9904 34.916 20.0581L34.9535 28.0628C34.9535 28.1055 34.9457 28.1467 34.93 28.1863C34.9092 28.2373 34.9097 28.2868 34.9316 28.3347C34.9514 28.3774 34.9847 28.3988 35.0316 28.3988L43.3753 28.3925Z" fill="#FAF9F6"/>
  <path d="M66.2504 38.9159C66.2504 39.2636 66.1123 39.597 65.8664 39.8429C65.6206 40.0887 65.2871 40.2269 64.9394 40.2269H53.4613C53.1136 40.2269 52.7802 40.0887 52.5344 39.8429C52.2885 39.597 52.1504 39.2636 52.1504 38.9159V33.1034C52.1504 32.7557 52.2885 32.4223 52.5344 32.1764C52.7802 31.9306 53.1136 31.7925 53.4613 31.7925H64.9394C65.2871 31.7925 65.6206 31.9306 65.8664 32.1764C66.1123 32.4223 66.2504 32.7557 66.2504 33.1034V38.9159ZM63.752 34.3862C63.752 34.3614 63.7421 34.3375 63.7245 34.3199C63.7069 34.3024 63.6831 34.2925 63.6582 34.2925H54.7426C54.7177 34.2925 54.6939 34.3024 54.6763 34.3199C54.6587 34.3375 54.6488 34.3614 54.6488 34.3862V37.6362C54.6488 37.6611 54.6587 37.6849 54.6763 37.7025C54.6939 37.7201 54.7177 37.73 54.7426 37.73H63.6582C63.6831 37.73 63.7069 37.7201 63.7245 37.7025C63.7421 37.6849 63.752 37.6611 63.752 37.6362V34.3862Z" fill="#FAF9F6"/>
  <path d="M44.6389 33.2394H33.6857C33.0109 33.2394 32.4639 33.7864 32.4639 34.4613V34.5144C32.4639 35.1892 33.0109 35.7363 33.6857 35.7363H44.6389C45.3137 35.7363 45.8607 35.1892 45.8607 34.5144V34.4613C45.8607 33.7864 45.3137 33.2394 44.6389 33.2394Z" fill="#FAF9F6"/>
</svg>