<svg xmlns="http://www.w3.org/2000/svg" width="80" height="81" viewBox="0 0 80 81" fill="none">
  <path d="M7.95285 45.369C9.66378 43.5784 11.5185 41.8862 13.1982 40.0784C13.2149 40.0604 13.224 40.0367 13.2234 40.0121C13.2228 39.9876 13.2126 39.9642 13.195 39.9471C12.3435 39.1174 12.4997 38.2862 13.2778 37.494C14.6914 36.0565 16.1107 34.6456 17.5357 33.2612C17.5665 33.2317 17.5851 33.1917 17.588 33.149C17.5909 33.1062 17.5778 33.0638 17.5513 33.0299C16.5711 31.7831 15.8211 30.4091 15.3013 28.9081C15.27 28.8174 15.2081 28.7607 15.1153 28.7378C11.1325 27.769 10.2028 23.4909 12.32 20.3346C12.3523 20.2867 12.3492 20.2419 12.3107 20.2003C11.4497 19.2534 11.2513 18.3862 11.2528 17.0253C11.2528 14.7159 11.0528 11.8784 11.3857 9.84244C12.3841 3.72682 18.2575 1.96744 23.6232 1.48932C30.3216 0.892442 35.8169 2.89557 37.3544 10.0674C37.3659 10.1216 37.3997 10.1487 37.456 10.1487C41.5278 10.1706 44.9857 9.45025 47.4232 13.2753C49.481 16.5034 47.7466 19.394 44.4435 20.519C42.6747 21.1221 40.8226 21.4138 38.8872 21.394C38.8684 21.3938 38.8498 21.3973 38.8323 21.4044C38.8149 21.4114 38.799 21.4219 38.7857 21.4351C38.7723 21.4483 38.7617 21.4641 38.7544 21.4814C38.7472 21.4988 38.7435 21.5174 38.7435 21.5362C38.7294 26.0049 37.9247 30.9456 34.795 34.4049C34.7883 34.4128 34.7847 34.4229 34.7849 34.433C34.7852 34.4432 34.7894 34.4527 34.7966 34.4596L38.0419 37.7049C38.0838 37.7469 38.1362 37.7766 38.1935 37.7909L41.1716 38.5128C41.181 38.5149 41.1907 38.5148 41.2001 38.5127C41.2094 38.5105 41.2182 38.5063 41.2257 38.5003C41.2332 38.4943 41.2392 38.4867 41.2434 38.478C41.2476 38.4693 41.2497 38.4599 41.2497 38.4503C41.2497 35.8232 41.2497 33.1909 41.2497 30.5534C41.2497 29.4643 41.5544 28.9034 42.6857 28.9034C54.3034 28.9013 65.9211 28.9013 77.5388 28.9034C78.37 28.9034 78.6325 29.4487 78.6325 30.2237C78.6325 41.4112 78.6304 52.5982 78.6263 63.7846C78.6247 64.9924 77.8763 65.1534 76.8153 65.1534C74.1112 65.1513 71.4205 65.1508 68.7435 65.1518C68.723 65.1518 68.7032 65.1595 68.6881 65.1734C68.673 65.1873 68.6638 65.2064 68.6622 65.2268C68.4862 67.4643 67.4206 68.9221 65.4653 69.6003C64.4935 69.9367 63.5601 70.1101 62.6653 70.1206C59.2643 70.1612 55.8627 70.1628 52.4607 70.1253C50.9857 70.1096 49.3195 70.3325 47.4622 70.794C47.4409 70.7992 47.4219 70.8115 47.4083 70.8287C47.3947 70.846 47.3873 70.8673 47.3872 70.8893C47.3778 72.7185 47.3763 74.5419 47.3825 76.3596C47.3872 78.0409 44.8841 78.2299 44.8825 76.1065C44.8825 74.5763 44.8825 73.0456 44.8825 71.5143C44.8824 71.4951 44.8777 71.4762 44.8687 71.4591C44.8598 71.4421 44.8469 71.4275 44.8312 71.4165C44.8154 71.4054 44.7972 71.3984 44.7782 71.3958C44.7591 71.3933 44.7397 71.3953 44.7216 71.4018C41.1695 72.7008 37.5846 73.9529 33.9669 75.1581C30.9185 76.1737 27.6357 77.1956 24.4825 77.4862C20.6872 77.8346 17.2935 75.6893 14.9685 72.8581C14.9616 72.8491 14.9521 72.8425 14.9412 72.8393C14.9304 72.8361 14.9188 72.8365 14.9082 72.8403C14.8976 72.8442 14.8885 72.8513 14.8822 72.8606C14.8759 72.87 14.8727 72.8812 14.8732 72.8924C14.8867 73.9914 14.8846 75.0956 14.8669 76.2049C14.8372 78.0065 12.3466 77.944 12.3763 76.1659C12.4148 73.8753 12.457 71.5628 12.5028 69.2284C12.5031 69.2172 12.501 69.206 12.4969 69.1956C12.4927 69.1852 12.4865 69.1757 12.4787 69.1677C12.4708 69.1597 12.4615 69.1533 12.4511 69.149C12.4408 69.1447 12.4297 69.1424 12.4185 69.1424C11.4435 69.1299 9.34035 69.0784 8.83097 68.0534C6.80493 63.9857 4.77107 59.9221 2.72941 55.8628C2.59816 55.6013 2.53149 55.344 2.52941 55.0909C2.50753 51.7206 5.72628 47.6987 7.95285 45.369ZM21.2372 11.3018C21.1497 13.1206 18.7466 13.0112 18.7575 11.4424C18.7794 8.74244 19.6622 6.38463 21.406 4.369C21.4102 4.36419 21.4129 4.35819 21.4136 4.35182C21.4143 4.34544 21.413 4.33901 21.41 4.33337C21.4069 4.32774 21.4022 4.32319 21.3964 4.32034C21.3907 4.31749 21.3842 4.31648 21.3778 4.31744C17.4591 4.92369 13.7482 6.99869 13.745 11.4768C13.7429 13.4945 13.7461 15.5122 13.7544 17.5299C13.7591 18.6003 14.1982 18.8878 15.256 18.8971C16.1013 18.9049 17.2372 19.0315 18.0263 18.7549C19.6575 18.1846 20.6919 16.7409 21.7716 15.2331C23.345 13.0331 25.7341 10.994 28.4232 10.3628C30.2013 9.94557 32.7466 10.1549 34.7653 10.1503C34.7777 10.1503 34.7898 10.1476 34.801 10.1423C34.8121 10.137 34.8218 10.1293 34.8295 10.1196C34.8372 10.11 34.8426 10.0988 34.8453 10.0867C34.848 10.0747 34.8479 10.0622 34.845 10.0503C34.1502 7.10025 32.3456 5.19713 29.431 4.34088C28.5622 4.08567 27.7888 4.00442 27.1107 4.09713C23.4138 4.60494 21.406 7.74244 21.2372 11.3018ZM22.1888 18.869C22.1861 18.8719 22.1844 18.8755 22.1839 18.8794C22.1833 18.8833 22.184 18.8873 22.1858 18.8909C22.1877 18.8946 22.1905 18.8977 22.1941 18.8999C22.1977 18.9021 22.2018 18.9033 22.206 18.9034C24.2424 18.8992 26.2857 18.9003 28.3357 18.9065C30.195 18.9128 31.6419 17.1018 32.6778 15.7706C33.5919 14.5956 34.4419 13.6487 35.5388 12.7346C35.5465 12.7288 35.552 12.7206 35.5548 12.7113C35.5575 12.7021 35.5571 12.6922 35.5538 12.6831C35.5505 12.674 35.5444 12.6662 35.5363 12.6609C35.5283 12.6556 35.5187 12.6529 35.5091 12.6534C33.7768 12.6492 32.0372 12.6497 30.2903 12.6549C26.4763 12.6659 24.2872 16.2409 22.1888 18.869ZM45.3997 17.0753C46.2044 16.1815 45.7216 15.344 45.1091 14.4534C43.2044 11.6831 40.2278 12.5987 37.8435 14.0971C37.8182 14.1125 37.7985 14.1356 37.7873 14.1632C37.776 14.1907 37.7738 14.2212 37.781 14.2503C38.156 15.743 38.4294 17.2534 38.6013 18.7815C38.6096 18.8544 38.6502 18.8914 38.7232 18.8924C40.7482 18.9221 43.981 18.6518 45.3997 17.0753ZM13.7747 24.1846C13.8794 25.6456 14.8638 26.2924 16.2544 26.394C17.0966 26.4565 17.4294 27.0534 17.6747 27.8565C18.9169 31.9331 22.5841 35.4534 27.1091 35.1159C29.6575 34.9253 31.8966 34.0753 33.5263 32.0268C36.806 27.9065 36.6544 20.9924 35.6685 16.2034C35.6331 16.0273 35.5695 16.0169 35.4778 16.1721C35.3872 16.3253 35.195 16.4612 35.1091 16.6065C33.945 18.5362 32.0388 20.5987 29.8497 21.2018C29.3664 21.3362 28.6784 21.4034 27.7857 21.4034C23.6263 21.4023 19.4653 21.4013 15.3028 21.4003C13.8497 21.4003 13.6982 23.1049 13.7747 24.1846ZM59.5935 59.1487C61.1669 59.7049 61.7591 61.0018 62.0044 62.5659C62.0138 62.6232 62.0476 62.6518 62.106 62.6518H76.1716C76.1923 62.6518 76.2122 62.6436 76.2268 62.6289C76.2415 62.6143 76.2497 62.5944 76.2497 62.5737V31.4799C76.2497 31.4592 76.2415 31.4394 76.2268 31.4247C76.2122 31.41 76.1923 31.4018 76.1716 31.4018H66.3278C66.3067 31.4018 66.2864 31.4104 66.2715 31.4256C66.2565 31.4409 66.2482 31.4615 66.2482 31.4831C66.2523 34.2695 66.2513 37.0555 66.245 39.8409C66.2435 40.994 65.595 41.8065 64.3747 41.1659C62.9851 40.4378 61.5857 39.7367 60.1763 39.0628C60.1284 39.0398 60.081 39.0404 60.0341 39.0643C58.5633 39.8247 57.0851 40.5711 55.5997 41.3034C54.7278 41.7331 53.7497 41.0612 53.7497 40.1909C53.7497 37.2763 53.7497 34.3727 53.7497 31.4799C53.7497 31.4592 53.7413 31.4394 53.7264 31.4247C53.7114 31.41 53.6912 31.4018 53.67 31.4018H43.8278C43.8071 31.4018 43.7873 31.41 43.7726 31.4247C43.7579 31.4394 43.7497 31.4592 43.7497 31.4799V60.0737C43.7498 60.0845 43.7524 60.0951 43.7572 60.1047C43.7621 60.1144 43.7691 60.1227 43.7777 60.1292C43.7863 60.1357 43.7963 60.1402 43.8069 60.1422C43.8175 60.1442 43.8284 60.1438 43.8388 60.1409C45.1367 59.768 46.4487 59.4357 47.7747 59.144C48.4997 58.9857 49.0331 58.906 49.3747 58.9049C52.0456 58.8976 54.7169 58.8987 57.3888 58.9081C58.4107 58.9112 59.1455 58.9914 59.5935 59.1487ZM60.2247 36.4112C61.3851 36.957 62.5211 37.5242 63.6325 38.1128C63.6447 38.1192 63.6583 38.1225 63.672 38.1221C63.6858 38.1218 63.6992 38.1179 63.711 38.1108C63.7228 38.1037 63.7326 38.0937 63.7394 38.0817C63.7462 38.0697 63.7497 38.0562 63.7497 38.0424V31.4799C63.7497 31.4592 63.7415 31.4394 63.7268 31.4247C63.7122 31.41 63.6923 31.4018 63.6716 31.4018H56.3278C56.3071 31.4018 56.2873 31.41 56.2726 31.4247C56.2579 31.4394 56.2497 31.4592 56.2497 31.4799V38.0424C56.2497 38.1081 56.2794 38.1273 56.3388 38.1003C57.3898 37.6065 58.4247 37.0898 59.4435 36.5503C59.6653 36.4346 60.0325 36.3221 60.2247 36.4112ZM24.3122 39.2284C24.3201 39.2185 24.3259 39.207 24.3291 39.1947C24.3323 39.1824 24.3329 39.1696 24.3308 39.1571C24.3288 39.1446 24.3241 39.1326 24.3171 39.122C24.3101 39.1114 24.301 39.1024 24.2903 39.0956L18.9278 35.5628C18.9106 35.5516 18.8901 35.5465 18.8697 35.5485C18.8492 35.5505 18.8301 35.5594 18.8153 35.5737L15.5638 38.8253C15.5549 38.8343 15.5479 38.8451 15.5435 38.857C15.539 38.8688 15.5371 38.8815 15.5378 38.8942C15.5385 38.9068 15.5419 38.9192 15.5478 38.9305C15.5536 38.9418 15.5617 38.9517 15.5716 38.9596L20.9294 43.3424C20.9388 43.3502 20.9496 43.3561 20.9612 43.3596C20.9729 43.3631 20.9851 43.3643 20.9972 43.363C21.0093 43.3616 21.0211 43.3579 21.0317 43.352C21.0423 43.346 21.0516 43.338 21.0591 43.3284L24.3122 39.2284ZM35.9716 39.2003C35.9807 39.1832 35.984 39.1637 35.9812 39.1446C35.9784 39.1255 35.9696 39.1077 35.956 39.094L33.4732 36.6174C33.4623 36.6069 33.4489 36.5992 33.4343 36.5951C33.4197 36.5911 33.4043 36.5907 33.3896 36.5942C33.3748 36.5976 33.3611 36.6046 33.3498 36.6147C33.3385 36.6248 33.3298 36.6376 33.3247 36.6518L32.6419 38.6081C32.6369 38.6221 32.6354 38.6371 32.6376 38.6518C32.6398 38.6665 32.6456 38.6805 32.6544 38.6924L34.6669 41.4128C34.6761 41.4251 34.6883 41.4348 34.7022 41.4412C34.7162 41.4475 34.7316 41.4502 34.7469 41.4489C34.7622 41.4477 34.777 41.4425 34.7898 41.434C34.8026 41.4255 34.813 41.4139 34.82 41.4002L35.9716 39.2003ZM26.7591 37.6268C26.7153 37.6195 26.6742 37.6372 26.6357 37.6799C26.6298 37.6863 26.6255 37.694 26.623 37.7023C26.6206 37.7106 26.62 37.7193 26.6213 37.7278C26.6227 37.7364 26.6259 37.7445 26.6308 37.7517C26.6358 37.7588 26.6422 37.7647 26.6497 37.769C27.6169 38.3253 28.2982 40.6253 28.6935 41.644C28.6983 41.6565 28.7069 41.6673 28.718 41.675C28.729 41.6826 28.7421 41.6867 28.7554 41.6867C28.7687 41.6867 28.7816 41.6826 28.7924 41.675C28.8031 41.6673 28.8111 41.6565 28.8153 41.644L30.4997 37.1253C30.5041 37.1129 30.505 37.0995 30.5023 37.0866C30.4996 37.0738 30.4934 37.0619 30.4844 37.0525C30.4755 37.043 30.4641 37.0364 30.4516 37.0332C30.4391 37.0301 30.426 37.0305 30.4138 37.0346C29.4857 37.3284 27.7185 37.7815 26.7591 37.6268ZM9.91222 46.9987C8.60805 48.2997 7.44139 49.7706 6.41222 51.4112C5.9466 52.1534 4.7341 54.3549 5.11222 55.1268C6.97368 58.9351 8.8393 62.7482 10.7091 66.5659C10.7208 66.5897 10.7379 66.6106 10.759 66.6268C10.7801 66.6431 10.8048 66.6543 10.831 66.6596C14.9013 67.4706 18.4013 65.6549 19.7185 61.7096C19.7351 61.6596 19.7299 61.6122 19.7028 61.5674C18.5737 59.7185 17.4419 57.8716 16.3075 56.0268C15.3278 54.4346 17.4607 52.994 18.5013 54.7659C19.9555 57.2398 21.4023 59.718 22.8419 62.2002C23.9638 64.1315 25.2841 65.3799 27.6325 65.2581C28.168 65.2299 28.9742 65.032 30.0513 64.6643C33.6305 63.4393 37.2268 62.2492 40.8403 61.094C40.8912 61.0777 40.9356 61.0458 40.9671 61.0028C40.9986 60.9598 41.0155 60.9081 41.0153 60.8549V41.2799C41.0153 41.2442 41.0033 41.2096 40.9812 41.1815C40.9591 41.1535 40.9282 41.1337 40.8935 41.1253L37.9669 40.4253C37.9075 40.4117 37.8648 40.432 37.8388 40.4862C37.2721 41.6341 36.7127 42.7857 36.1607 43.9409C35.4075 45.5143 34.3857 45.5518 33.3872 44.1612C32.7445 43.2674 32.0956 42.3805 31.4403 41.5003C31.4335 41.4911 31.4243 41.484 31.4137 41.4796C31.4031 41.4753 31.3916 41.4738 31.3803 41.4754C31.369 41.477 31.3583 41.4816 31.3493 41.4887C31.3404 41.4958 31.3335 41.5052 31.3294 41.5159C30.794 42.8888 30.2377 44.2669 29.6607 45.6503C29.5273 45.968 29.2976 46.1612 28.9716 46.2299C27.9919 46.4362 27.6528 45.8799 27.3013 45.0331C26.7877 43.8029 26.282 42.5773 25.7841 41.3565C25.7805 41.3472 25.7745 41.3391 25.7667 41.3329C25.7589 41.3267 25.7496 41.3227 25.7398 41.3212C25.7299 41.3198 25.7199 41.321 25.7106 41.3247C25.7014 41.3285 25.6933 41.3346 25.6872 41.3424C24.6383 42.7049 23.5721 44.0633 22.4888 45.4174C21.931 46.1159 21.2653 46.8956 20.3138 46.0987C18.6086 44.6706 16.8997 43.2482 15.1872 41.8315C15.1456 41.7961 15.1054 41.7976 15.0669 41.8362C13.3247 43.5393 11.631 45.2831 9.91222 46.9987ZM53.3888 67.6518C56.5263 67.6726 59.6638 67.6581 62.8013 67.6081C64.1966 67.5862 65.9888 67.0784 66.2169 65.4237C66.2304 65.3258 66.1883 65.2763 66.0903 65.2753C62.9133 65.2357 59.7721 65.1966 56.6669 65.1581C56.17 65.1518 55.8221 65.1008 55.6232 65.0049C54.8153 64.6159 54.8091 63.2409 55.5732 62.8299C56.2997 62.4378 58.4997 62.6581 59.4028 62.6471C59.4664 62.6461 59.4924 62.6143 59.481 62.5518C59.3263 61.6534 58.7278 61.4049 57.8419 61.4049C55.2815 61.4018 52.7211 61.4002 50.1607 61.4002C48.545 61.4002 46.9638 61.8487 45.4388 62.3081C40.2919 63.8581 35.2669 65.7096 30.1544 67.3424C26.8122 68.4096 23.5903 67.3362 21.5435 64.4737C21.5049 64.4195 21.4685 64.4216 21.4341 64.4799C20.0664 66.8206 18.0622 68.3174 15.4216 68.9706C15.4023 68.9755 15.3845 68.9848 15.3696 68.9979C15.3546 69.0109 15.3429 69.0273 15.3355 69.0457C15.328 69.0641 15.325 69.084 15.3267 69.1038C15.3283 69.1236 15.3346 69.1427 15.345 69.1596C17.3482 72.3862 20.6872 75.6612 24.845 75.0799C26.3044 74.8758 27.7919 74.5518 29.3075 74.1081C34.2685 72.6549 39.1341 70.9081 44.0122 69.2081C47.0487 68.1497 50.1742 67.631 53.3888 67.6518Z" fill="#FAF9F6"/>
  <path d="M51.3062 50.1581H48.6906C48.0374 50.1581 47.5078 50.6876 47.5078 51.3409V51.4628C47.5078 52.116 48.0374 52.6456 48.6906 52.6456H51.3062C51.9595 52.6456 52.4891 52.116 52.4891 51.4628V51.3409C52.4891 50.6876 51.9595 50.1581 51.3062 50.1581Z" fill="#FAF9F6"/>
  <path d="M53.7889 53.9034H48.7076C48.0423 53.9034 47.5029 54.4428 47.5029 55.1081V55.1956C47.5029 55.861 48.0423 56.4003 48.7076 56.4003H53.7889C54.4542 56.4003 54.9936 55.861 54.9936 55.1956V55.1081C54.9936 54.4428 54.4542 53.9034 53.7889 53.9034Z" fill="#FAF9F6"/>
</svg>