<svg width="219" height="74" viewBox="0 0 219 74" fill="none" xmlns="http://www.w3.org/2000/svg">
<g clip-path="url(#clip0_505_1417)">
<path d="M7.63675 13.8952C11.0381 13.6688 15.3834 12.3691 17.9441 15.6863C19.384 17.5486 20.3884 19.6588 20.9574 22.0169C24.8178 38.0405 26.0012 56.3015 26.7642 73.5084C26.7668 73.5627 26.7584 73.6169 26.7394 73.6678C26.7205 73.7187 26.6914 73.7652 26.6539 73.8045C26.6164 73.8438 26.5713 73.8751 26.5213 73.8964C26.4714 73.9178 26.4176 73.9288 26.3633 73.9287H0.484976C0.356352 73.9287 0.232996 73.8776 0.142046 73.7867C0.0510952 73.6957 0 73.5724 0 73.4437V0.57448C0 0.521316 0.0211198 0.470329 0.0587128 0.432736C0.0963057 0.395143 0.147293 0.374023 0.200458 0.374023H73.2443C73.3358 0.374037 73.4237 0.410631 73.489 0.475933C73.5543 0.541235 73.5918 0.630027 73.5935 0.723206L73.7875 11.6966C73.7918 11.9035 73.725 11.9294 73.587 11.7742C73.0051 11.1189 72.4554 10.4572 71.9381 9.78902C66.6292 2.9541 55.8951 8.79967 59.9818 15.9708C61.4109 18.4798 65.7627 20.1869 66.2736 23.1291C66.8685 26.5563 64.2238 31.8716 62.2709 34.8397C55.2312 45.5134 47.3789 55.5427 38.714 64.9276C38.3691 65.3026 38.1838 65.2358 38.1579 64.7271C37.2979 45.6514 36.4379 24.5776 29.3766 7.16369C29.3163 7.01682 29.2069 6.89564 29.0675 6.82121C28.9281 6.74678 28.7675 6.72382 28.6136 6.75631L7.28111 11.3151C7.18315 11.3365 7.09408 11.3841 7.02507 11.452C6.95605 11.5198 6.91015 11.6049 6.89313 11.6966C6.76811 12.3734 6.85648 13.02 7.15825 13.6365C7.20028 13.7204 7.26822 13.7898 7.35343 13.8359C7.43863 13.8819 7.53725 13.9026 7.63675 13.8952Z" fill="#391085"/>
<path d="M35.9723 73.812C35.3473 73.8077 35.2589 73.5878 35.7072 73.1524C45.4067 63.6296 54.2613 53.3934 62.271 42.4437C66.4224 36.7727 70.3927 30.1512 72.9146 23.5814C73.8328 21.1802 74.0871 21.6178 73.6776 24.8941C73.6129 25.3898 73.5806 25.864 73.5806 26.3167C73.5159 42.0557 73.5332 57.6935 73.6323 73.23C73.6332 73.3155 73.6173 73.4003 73.5855 73.4795C73.5537 73.5587 73.5067 73.6307 73.4471 73.6915C73.3876 73.7522 73.3167 73.8004 73.2387 73.8333C73.1606 73.8662 73.0768 73.8831 72.9922 73.8831L35.9723 73.812Z" fill="#391085"/>
<path d="M97.2606 14.3398C97.0216 14.2066 96.5776 14.1349 95.9287 14.1247C95.7455 14.1213 95.5803 14.0711 95.4574 13.9812C94.6838 13.4074 96.359 13.6175 96.651 13.6124C99.6275 13.5867 105.227 12.9617 107.819 14.3245C113.424 17.2753 109.95 23.054 105.309 24.1452C105.114 24.1896 105.025 24.2818 105.042 24.4218C105.05 24.4814 105.085 24.5438 105.145 24.6019C105.205 24.6599 105.286 24.7111 105.381 24.7497C108.951 26.179 109.448 29.7189 107.583 32.7056C104.417 37.7825 95.2217 36.3122 90.1961 36.471C90.1188 36.4741 90.0436 36.4518 89.9849 36.4083C89.9263 36.3647 89.8883 36.3031 89.8785 36.2353C89.7965 35.7094 90.1568 35.5113 90.9594 35.6411C91.9054 35.7948 92.539 35.3132 92.86 34.1964L98.0188 16.1277C98.2443 15.3388 97.9915 14.7428 97.2606 14.3398ZM99.3764 23.5099C108.649 25.1134 110.078 12.7466 101.564 15.0673C101.489 15.0877 101.42 15.1277 101.364 15.1833C101.309 15.239 101.268 15.3084 101.246 15.3849L99.0229 22.9413C99.0047 23.0015 98.9996 23.0648 99.008 23.1273C99.0163 23.1897 99.0379 23.2497 99.0712 23.3034C99.1046 23.3571 99.1491 23.4033 99.2017 23.4389C99.2543 23.4745 99.3138 23.4987 99.3764 23.5099ZM103.961 32.4956C105.386 30.6462 105.56 27.4751 103.639 25.9177C102.455 24.9597 100.437 24.8111 98.8846 24.8777C98.7621 24.8835 98.6442 24.9287 98.5477 25.0069C98.4511 25.085 98.3808 25.1922 98.3467 25.3132L95.816 34.2271C95.7917 34.3126 95.7871 34.4024 95.8025 34.4898C95.8179 34.5772 95.8528 34.6599 95.9047 34.7315C95.9566 34.8031 96.024 34.8618 96.1018 34.9032C96.1797 34.9445 96.2659 34.9673 96.3539 34.97C99.3815 35.0417 101.928 35.139 103.961 32.4956Z" fill="#262626"/>
<path d="M115.524 30.4057C115.058 32.8596 116.692 34.3811 119.013 34.4375C120.98 34.4887 122.737 33.3104 124.361 32.2909C124.75 32.0502 125.17 32.2756 124.817 32.7213C122.809 35.2315 118.751 37.4703 115.555 36.3842C112.532 35.3545 111.892 31.6045 112.911 28.8329C114.489 24.5331 117.445 22.0279 121.779 21.3176C126.641 20.5184 127.512 25.0419 124.095 27.419C121.783 29.031 119.026 29.9395 115.826 30.1444C115.753 30.1486 115.684 30.1766 115.629 30.2239C115.575 30.2712 115.538 30.3352 115.524 30.4057ZM122.752 22.3575C119.207 21.7735 116.39 25.9795 115.744 28.9559C115.739 28.9828 115.741 29.0106 115.749 29.0366C115.758 29.0627 115.773 29.0862 115.793 29.1051C115.812 29.1239 115.837 29.1375 115.863 29.1445C115.89 29.1516 115.917 29.1519 115.944 29.1454C119.059 28.459 121.052 28.126 123.06 25.5133C123.856 24.475 123.893 23.5034 123.173 22.5983C123.07 22.4728 122.921 22.3873 122.752 22.3575Z" fill="#262626"/>
<path d="M155.995 27.1779C155.404 28.5509 155.575 28.6789 156.508 27.5621C157.529 25.8852 158.724 24.3483 160.094 22.9515C160.51 23.1666 160.731 23.5013 160.755 23.9556C157.459 26.9542 155.138 30.5693 153.792 34.8009C153.424 35.9689 152.532 36.8244 151.318 36.4146C151.142 36.3537 150.996 36.2269 150.911 36.0607C150.826 35.8945 150.808 35.7019 150.862 35.5232L153.839 25.6871C153.982 25.2158 154.064 24.7155 154.084 24.1861C154.115 23.445 153.769 23.1991 153.044 23.4484C152.522 23.6328 152.076 23.9317 151.707 24.3449C150.391 25.8255 148.936 27.2957 148.034 29.0478C146.928 31.1994 146.05 33.4518 145.401 35.805C145.38 35.8844 145.342 35.9574 145.289 36.018C145.237 36.0785 145.172 36.1249 145.099 36.1533C144.375 36.4334 143.762 36.5171 143.26 36.4044C143.184 36.3873 143.113 36.3549 143.05 36.3091C142.988 36.2632 142.935 36.2049 142.896 36.1378C142.856 36.0706 142.831 35.996 142.821 35.9185C142.812 35.841 142.818 35.7623 142.84 35.6872L146.154 23.9761C146.417 23.0471 146.236 22.5877 145.611 22.598C145.334 22.6031 143.89 22.5468 143.874 22.0857C143.872 22.0387 143.903 21.9908 143.961 21.9518C144.019 21.9128 144.1 21.8855 144.187 21.8756L148.695 21.348C148.794 21.3365 148.895 21.3498 148.987 21.3865C149.08 21.4233 149.162 21.4823 149.225 21.5582C149.288 21.634 149.33 21.724 149.348 21.8199C149.365 21.9158 149.357 22.0143 149.325 22.1062C148.755 23.7592 148.335 25.3729 148.065 26.9474C147.973 27.5109 148.465 27.0908 148.557 26.9371C149.843 24.7445 152.419 20.7998 155.468 21.2968C157.983 21.7117 156.61 25.3388 155.995 27.1779Z" fill="#262626"/>
<path d="M160.755 23.9556C160.731 23.5013 160.51 23.1666 160.094 22.9515C161.17 21.7937 163.67 20.4361 165.007 21.9217C166.446 23.5252 163.531 30.7435 162.394 33.8173C161.426 36.4402 164.459 33.3203 164.71 33.0386C164.776 32.9653 164.849 32.906 164.923 32.8652C164.997 32.8244 165.069 32.8031 165.135 32.8029C166.733 32.8029 162.04 36.3839 161.549 36.5478C158.962 37.4136 159.597 34.4423 160.032 33.1205C160.876 30.5864 161.69 28.0471 162.476 25.5027C162.886 24.1656 162.824 22.4955 160.755 23.9556Z" fill="#262626"/>
<path d="M169.661 35.4879C169.034 34.9393 168.561 34.2274 168.269 33.3928C167.977 32.5582 167.872 31.6173 167.959 30.6237C168.046 29.6302 168.324 28.6035 168.777 27.6022C169.23 26.601 169.849 25.6449 170.598 24.7884C172.113 23.0586 174.068 21.8399 176.033 21.4002C177.999 20.9606 179.814 21.336 181.08 22.444C181.707 22.9926 182.179 23.7045 182.472 24.5391C182.764 25.3737 182.869 26.3146 182.782 27.3082C182.695 28.3017 182.417 29.3284 181.964 30.3297C181.511 31.3309 180.892 32.287 180.142 33.1435C178.628 34.8732 176.673 36.092 174.707 36.5317C172.742 36.9713 170.926 36.5959 169.661 35.4879ZM172.396 35.5004C173.318 35.9132 174.513 35.6168 175.717 34.6765C176.92 33.7362 178.034 32.229 178.814 30.4864C179.2 29.6236 179.492 28.729 179.674 27.8536C179.855 26.9782 179.923 26.1393 179.873 25.3846C179.823 24.63 179.656 23.9745 179.381 23.4554C179.107 22.9364 178.73 22.5641 178.274 22.3597C177.351 21.947 176.156 22.2433 174.953 23.1836C173.749 24.1239 172.635 25.6312 171.855 27.3737C171.469 28.2366 171.177 29.1312 170.995 30.0066C170.814 30.8819 170.746 31.7209 170.796 32.4755C170.846 33.2302 171.013 33.8857 171.288 34.4047C171.562 34.9237 171.939 35.2961 172.396 35.5004Z" fill="#262626"/>
<path d="M190.96 24.1711C191.098 24.289 191.247 24.1967 191.349 24.0738C192.493 22.7282 193.677 21.8641 194.899 21.4816C198.665 20.3084 200.744 23.249 200.079 26.7429C199.003 32.3627 194.003 38.5103 187.65 36.1384C187.617 36.1258 187.582 36.1199 187.547 36.1209C187.512 36.122 187.478 36.13 187.448 36.1445C187.417 36.159 187.389 36.1796 187.368 36.2051C187.346 36.2305 187.331 36.2601 187.322 36.292L185.826 42.1835C185.807 42.2562 185.814 42.3345 185.845 42.4065C185.876 42.4785 185.931 42.5404 186.001 42.5831C186.405 42.829 188.572 43.2798 188.332 43.6691C188.298 43.7258 188.24 43.7717 188.165 43.8016C188.09 43.8316 188 43.8442 187.906 43.8382C185.594 43.6811 183.28 43.6862 180.965 43.8535C180.729 43.8689 180.089 43.7665 180.294 43.4437C180.327 43.39 180.384 43.3424 180.459 43.3049C180.534 43.2675 180.625 43.2413 180.724 43.2285C182.968 42.9468 183.122 41.4867 183.787 39.2736C185.318 34.178 186.805 28.9594 188.25 23.6178C188.431 22.9553 188.176 22.6137 187.486 22.5933C187.24 22.583 185.796 22.4498 185.76 22.1117C185.755 22.0513 185.785 21.9901 185.845 21.9412C185.904 21.8923 185.988 21.8597 186.077 21.8504L191.088 21.3125C191.123 21.3089 191.158 21.3122 191.191 21.3222C191.224 21.3322 191.254 21.3485 191.279 21.3699C191.303 21.3913 191.321 21.4172 191.332 21.4455C191.342 21.4738 191.345 21.5037 191.339 21.5328L190.929 23.7613C190.911 23.8584 190.904 23.9504 190.91 24.0241C190.915 24.0978 190.933 24.1492 190.96 24.1711ZM196.482 23.3053C195.598 22.776 194.763 22.7333 193.977 23.1773C189.945 25.4519 189.064 29.6834 188.034 33.915C187.884 34.5332 188.099 34.9669 188.68 35.2162C194.121 37.5728 197.486 28.7203 197.281 24.6373C197.251 24.0533 196.984 23.6093 196.482 23.3053Z" fill="#262626"/>
<path d="M132.609 28.5301C135.801 28.1305 136.549 26.2555 137.855 23.612C138.721 21.8549 139.955 20.8354 141.964 22.0085C143.166 22.7121 143.379 23.472 142.604 24.2883C141.381 25.5656 140.428 25.4238 139.745 23.8631C139.496 23.2961 139.238 23.2927 138.972 23.8528C138.121 25.6322 137.076 27.2818 135.837 28.8016C135.792 28.8564 135.768 28.9256 135.769 28.9974C135.77 29.0693 135.796 29.1394 135.842 29.1961C137.768 31.5424 138.378 34.5034 141.118 35.9276C141.576 36.1667 141.549 36.2931 141.036 36.3067L137.717 36.3989C137.578 36.4018 137.441 36.3635 137.319 36.2883C137.198 36.2132 137.098 36.1042 137.03 35.9737C135.816 33.6684 134.679 30.569 132.486 29.0577C132.452 29.0341 132.413 29.0187 132.371 29.0128C132.33 29.0068 132.288 29.0104 132.248 29.0232C132.209 29.0361 132.173 29.0579 132.143 29.087C132.113 29.1161 132.09 29.1516 132.076 29.1909C131.441 30.9976 130.91 32.8231 130.483 34.6674C130.124 36.2145 129.336 36.8241 127.773 36.2914C127.692 36.2638 127.626 36.2054 127.587 36.1282C127.548 36.051 127.539 35.9609 127.563 35.8764L130.944 23.9758C131.146 23.2654 130.874 22.9375 130.13 22.9922L129.141 23.0588C129.06 23.0645 128.98 23.0466 128.914 23.0077C128.849 22.9688 128.8 22.9111 128.777 22.8436C128.439 21.86 132.696 21.7012 133.424 21.6243C133.509 21.6151 133.594 21.6277 133.673 21.6612C133.752 21.6946 133.822 21.7479 133.877 21.8164C133.932 21.8848 133.97 21.9665 133.988 22.0544C134.007 22.1423 134.004 22.2338 133.982 22.321L132.404 28.3047C132.396 28.3328 132.396 28.3625 132.403 28.391C132.41 28.4194 132.424 28.446 132.444 28.4682C132.464 28.4904 132.49 28.5076 132.519 28.5184C132.547 28.5292 132.578 28.5332 132.609 28.5301Z" fill="#262626"/>
<path d="M92.1771 56.525C91.1971 55.545 90.7071 54.355 90.7071 52.955C90.7071 51.555 91.1971 50.365 92.1771 49.385C93.1571 48.405 94.3471 47.915 95.7471 47.915C97.1471 47.915 98.3371 48.405 99.3171 49.385C100.297 50.365 100.787 51.555 100.787 52.955C100.787 54.355 100.297 55.545 99.3171 56.525C98.3371 57.505 97.1471 57.995 95.7471 57.995C94.3471 57.995 93.1571 57.505 92.1771 56.525ZM92.9051 55.853C93.6797 56.6276 94.6271 57.015 95.7471 57.015C96.8671 57.015 97.8097 56.6276 98.5751 55.853C99.3497 55.069 99.7371 54.103 99.7371 52.955C99.7371 51.807 99.3497 50.8456 98.5751 50.071C97.8097 49.287 96.8671 48.895 95.7471 48.895C94.6271 48.895 93.6797 49.287 92.9051 50.071C92.1397 50.8456 91.7571 51.807 91.7571 52.955C91.7571 54.103 92.1397 55.069 92.9051 55.853ZM107.715 55.965L108.415 56.595C108.228 56.8283 107.981 57.0616 107.673 57.295C107.02 57.7616 106.334 57.995 105.615 57.995C104.691 57.995 103.898 57.6543 103.235 56.973C102.582 56.2916 102.255 55.4656 102.255 54.495C102.255 53.5243 102.582 52.6983 103.235 52.017C103.898 51.3356 104.691 50.995 105.615 50.995C106.343 50.995 107.015 51.219 107.631 51.667C107.883 51.8536 108.121 52.073 108.345 52.325L107.645 53.025C107.496 52.8196 107.323 52.633 107.127 52.465C106.679 52.0916 106.175 51.905 105.615 51.905C104.971 51.905 104.411 52.157 103.935 52.661C103.468 53.1556 103.235 53.767 103.235 54.495C103.235 55.223 103.468 55.839 103.935 56.343C104.411 56.8376 104.971 57.085 105.615 57.085C106.147 57.085 106.665 56.8983 107.169 56.525C107.384 56.3476 107.566 56.161 107.715 55.965ZM111.49 57.855V52.045H109.11V51.135H114.85V52.045H112.47V57.855H111.49ZM121.156 55.965L121.786 56.595C121.609 56.8376 121.371 57.071 121.072 57.295C120.419 57.7616 119.723 57.995 118.986 57.995C118.062 57.995 117.269 57.6543 116.606 56.973C115.953 56.2916 115.626 55.4656 115.626 54.495C115.626 53.5243 115.953 52.6983 116.606 52.017C117.259 51.3356 118.029 50.995 118.916 50.995C119.84 50.995 120.605 51.3123 121.212 51.947C121.828 52.5816 122.136 53.3843 122.136 54.355C122.136 54.4016 122.122 54.523 122.094 54.719L122.066 54.859L116.606 54.845C116.643 55.4516 116.891 55.979 117.348 56.427C117.815 56.8656 118.361 57.085 118.986 57.085C119.555 57.085 120.092 56.8983 120.596 56.525C120.839 56.329 121.025 56.1423 121.156 55.965ZM116.606 54.005H121.156C121.081 53.3983 120.834 52.899 120.414 52.507C120.003 52.1056 119.504 51.905 118.916 51.905C118.328 51.905 117.815 52.1103 117.376 52.521C116.937 52.9316 116.681 53.4263 116.606 54.005ZM123.882 57.855V51.135H124.862V54.705L128.222 51.135H129.412L126.822 53.865L129.692 57.855H128.572L126.192 54.565L124.862 55.965V57.855H123.882ZM129.83 57.855V56.875C129.886 56.9123 129.942 56.9356 129.998 56.945C130.119 56.9916 130.25 57.015 130.39 57.015C130.679 57.015 130.903 56.931 131.062 56.763C131.23 56.595 131.37 56.217 131.482 55.629C131.594 55.0316 131.65 54.187 131.65 53.095V51.135H136.55V57.855H135.57V52.045H132.63V53.095C132.63 54.0843 132.579 54.9103 132.476 55.573C132.383 56.2263 132.238 56.7256 132.042 57.071C131.846 57.4163 131.627 57.659 131.384 57.799C131.151 57.9296 130.866 57.995 130.53 57.995C130.362 57.995 130.199 57.9716 130.04 57.925C129.993 57.9156 129.923 57.8923 129.83 57.855ZM143.824 55.965L144.454 56.595C144.277 56.8376 144.039 57.071 143.74 57.295C143.087 57.7616 142.391 57.995 141.654 57.995C140.73 57.995 139.937 57.6543 139.274 56.973C138.621 56.2916 138.294 55.4656 138.294 54.495C138.294 53.5243 138.621 52.6983 139.274 52.017C139.927 51.3356 140.697 50.995 141.584 50.995C142.508 50.995 143.273 51.3123 143.88 51.947C144.496 52.5816 144.804 53.3843 144.804 54.355C144.804 54.4016 144.79 54.523 144.762 54.719L144.734 54.859L139.274 54.845C139.311 55.4516 139.559 55.979 140.016 56.427C140.483 56.8656 141.029 57.085 141.654 57.085C142.223 57.085 142.76 56.8983 143.264 56.525C143.507 56.329 143.693 56.1423 143.824 55.965ZM139.274 54.005H143.824C143.749 53.3983 143.502 52.899 143.082 52.507C142.671 52.1056 142.172 51.905 141.584 51.905C140.996 51.905 140.483 52.1103 140.044 52.521C139.605 52.9316 139.349 53.4263 139.274 54.005ZM146.55 57.855V51.135H147.53V54.005H151.38V51.135H152.36V57.855H151.38V54.915H147.53V57.855H146.55ZM154.602 57.855V51.135H155.582V56.175L159.642 51.135H160.482V57.855H159.502V52.815L155.442 57.855H154.602ZM167.763 55.965L168.393 56.595C168.216 56.8376 167.978 57.071 167.679 57.295C167.026 57.7616 166.331 57.995 165.593 57.995C164.669 57.995 163.876 57.6543 163.213 56.973C162.56 56.2916 162.233 55.4656 162.233 54.495C162.233 53.5243 162.56 52.6983 163.213 52.017C163.867 51.3356 164.637 50.995 165.523 50.995C166.447 50.995 167.213 51.3123 167.819 51.947C168.435 52.5816 168.743 53.3843 168.743 54.355C168.743 54.4016 168.729 54.523 168.701 54.719L168.673 54.859L163.213 54.845C163.251 55.4516 163.498 55.979 163.955 56.427C164.422 56.8656 164.968 57.085 165.593 57.085C166.163 57.085 166.699 56.8983 167.203 56.525C167.446 56.329 167.633 56.1423 167.763 55.965ZM163.213 54.005H167.763C167.689 53.3983 167.441 52.899 167.021 52.507C166.611 52.1056 166.111 51.905 165.523 51.905C164.935 51.905 164.422 52.1103 163.983 52.521C163.545 52.9316 163.288 53.4263 163.213 54.005ZM173.428 57.855V51.135H176.508C177.134 51.135 177.628 51.2983 177.992 51.625C178.356 51.9516 178.538 52.3716 178.538 52.885C178.538 53.2956 178.398 53.6503 178.118 53.949C177.997 54.0703 177.857 54.1823 177.698 54.285C177.913 54.3596 178.1 54.4623 178.258 54.593C178.632 54.9103 178.818 55.3443 178.818 55.895C178.818 56.5016 178.627 56.9823 178.244 57.337C177.871 57.6823 177.339 57.855 176.648 57.855H173.428ZM174.408 53.865H176.508C177.208 53.865 177.558 53.5616 177.558 52.955C177.558 52.3483 177.208 52.045 176.508 52.045H174.408V53.865ZM174.408 56.945H176.648C177.442 56.945 177.838 56.5716 177.838 55.825C177.838 55.0783 177.442 54.705 176.648 54.705H174.408V56.945ZM185.674 55.965L186.304 56.595C186.126 56.8376 185.888 57.071 185.59 57.295C184.936 57.7616 184.241 57.995 183.504 57.995C182.58 57.995 181.786 57.6543 181.124 56.973C180.47 56.2916 180.144 55.4656 180.144 54.495C180.144 53.5243 180.47 52.6983 181.124 52.017C181.777 51.3356 182.547 50.995 183.434 50.995C184.358 50.995 185.123 51.3123 185.73 51.947C186.346 52.5816 186.654 53.3843 186.654 54.355C186.654 54.4016 186.64 54.523 186.612 54.719L186.584 54.859L181.124 54.845C181.161 55.4516 181.408 55.979 181.866 56.427C182.332 56.8656 182.878 57.085 183.504 57.085C184.073 57.085 184.61 56.8983 185.114 56.525C185.356 56.329 185.543 56.1423 185.674 55.965ZM181.124 54.005H185.674C185.599 53.3983 185.352 52.899 184.932 52.507C184.521 52.1056 184.022 51.905 183.434 51.905C182.846 51.905 182.332 52.1103 181.894 52.521C181.455 52.9316 181.198 53.4263 181.124 54.005ZM188.399 60.795V51.135H189.379V52.115C189.538 51.9003 189.729 51.7136 189.953 51.555C190.457 51.1816 191.036 50.995 191.689 50.995C192.613 50.995 193.393 51.3263 194.027 51.989C194.662 52.6516 194.979 53.487 194.979 54.495C194.979 55.503 194.662 56.3383 194.027 57.001C193.393 57.6636 192.613 57.995 191.689 57.995C191.036 57.995 190.457 57.8083 189.953 57.435C189.729 57.2763 189.538 57.0896 189.379 56.875V60.795H188.399ZM191.689 57.085C192.333 57.085 192.879 56.8423 193.327 56.357C193.775 55.8716 193.999 55.251 193.999 54.495C193.999 53.739 193.775 53.1183 193.327 52.633C192.879 52.1476 192.333 51.905 191.689 51.905C191.083 51.905 190.546 52.157 190.079 52.661C189.613 53.165 189.379 53.7763 189.379 54.495C189.379 55.2136 189.613 55.825 190.079 56.329C190.546 56.833 191.083 57.085 191.689 57.085ZM200.785 57.855V56.945C200.645 57.141 200.468 57.3183 200.253 57.477C199.759 57.8223 199.213 57.995 198.615 57.995C197.934 57.995 197.365 57.799 196.907 57.407C196.459 57.0056 196.235 56.5483 196.235 56.035C196.235 54.8963 196.889 54.2196 198.195 54.005L200.785 53.585C200.785 53.0903 200.627 52.689 200.309 52.381C200.001 52.0636 199.6 51.905 199.105 51.905C198.62 51.905 198.158 52.0683 197.719 52.395C197.514 52.5723 197.346 52.7356 197.215 52.885L196.585 52.255C196.763 52.0216 196.982 51.8116 197.243 51.625C197.813 51.205 198.433 50.995 199.105 50.995C199.871 50.995 200.505 51.2423 201.009 51.737C201.513 52.2316 201.765 52.8476 201.765 53.585V57.855H200.785ZM200.785 54.845V54.425L198.475 54.845C197.635 54.9943 197.215 55.391 197.215 56.035C197.215 56.3336 197.337 56.5856 197.579 56.791C197.831 56.987 198.177 57.085 198.615 57.085C199.259 57.085 199.782 56.8796 200.183 56.469C200.585 56.0583 200.785 55.517 200.785 54.845ZM203.999 57.855V51.135H204.979V54.005H208.829V51.135H209.809V57.855H208.829V54.915H204.979V57.855H203.999ZM210.932 59.535V56.945H211.422C211.646 56.7116 211.842 56.4036 212.01 56.021C212.411 55.1623 212.612 54.187 212.612 53.095V51.135H217.232V56.945H218.282V59.535H217.302V57.855H211.912V59.535H210.932ZM212.472 56.945H216.252V52.045H213.592V53.095C213.592 54.1496 213.405 55.1156 213.032 55.993C212.864 56.3663 212.677 56.6836 212.472 56.945Z" fill="#262626"/>
</g>
<defs>
<clipPath id="clip0_505_1417">
<rect width="218.867" height="73.5547" fill="white" transform="translate(0 0.374023)"/>
</clipPath>
</defs>
</svg>
