<svg width="208" height="46" viewBox="0 0 208 46" fill="none" xmlns="http://www.w3.org/2000/svg">
<g clip-path="url(#clip0_501_1739)">
<path d="M4.77591 8.45591C6.90303 8.31437 9.62057 7.50154 11.222 9.57609C12.1224 10.7407 12.7506 12.0604 13.1065 13.5351C15.5207 23.556 16.2607 34.9762 16.7379 45.7371C16.7396 45.7711 16.7343 45.805 16.7224 45.8368C16.7106 45.8687 16.6924 45.8977 16.6689 45.9223C16.6455 45.9469 16.6173 45.9665 16.586 45.9798C16.5548 45.9932 16.5212 46 16.4872 46H0.303297C0.222857 46 0.145712 45.968 0.0888333 45.9112C0.0319542 45.8543 0 45.7771 0 45.6967V0.125363C0 0.0921146 0.013208 0.0602277 0.0367181 0.0367177C0.0602281 0.0132076 0.092115 0 0.125363 0H45.8059C45.8631 8.77305e-06 45.9181 0.0228941 45.9589 0.0637329C45.9997 0.104572 46.0232 0.160101 46.0243 0.218374L46.1456 7.08097C46.1483 7.21037 46.1065 7.22655 46.0202 7.12949C45.6563 6.71971 45.3125 6.30588 44.989 5.888C41.6689 1.61354 34.956 5.26927 37.5117 9.75402C38.4055 11.3231 41.127 12.3907 41.4465 14.2307C41.8186 16.374 40.1646 19.6981 38.9433 21.5543C34.5408 28.2295 29.6301 34.5017 24.2112 40.3708C23.9955 40.6054 23.8796 40.5636 23.8634 40.2454C23.3255 28.3158 22.7877 15.1365 18.3717 4.24615C18.334 4.15431 18.2656 4.07852 18.1784 4.03198C18.0912 3.98543 17.9907 3.97107 17.8945 3.99138L4.5535 6.84237C4.49224 6.85576 4.43653 6.88554 4.39337 6.92798C4.35021 6.97043 4.3215 7.02364 4.31086 7.08097C4.23267 7.50423 4.28794 7.90863 4.47666 8.29415C4.50295 8.34663 4.54544 8.39003 4.59872 8.41883C4.65201 8.44763 4.71368 8.46054 4.77591 8.45591Z" fill="white"/>
<path d="M22.4967 45.9271C22.1058 45.9244 22.0506 45.7869 22.3309 45.5146C28.3969 39.5592 33.9344 33.1577 38.9435 26.3099C41.5397 22.7633 44.0227 18.6223 45.5999 14.5137C46.1741 13.012 46.3332 13.2857 46.077 15.3346C46.0366 15.6446 46.0164 15.9412 46.0164 16.2243C45.9759 26.0673 45.9867 35.8469 46.0487 45.5632C46.0493 45.6166 46.0393 45.6696 46.0194 45.7192C45.9995 45.7687 45.9701 45.8138 45.9329 45.8518C45.8957 45.8897 45.8514 45.9199 45.8025 45.9405C45.7537 45.961 45.7013 45.9716 45.6484 45.9716L22.4967 45.9271Z" fill="white"/>
<path d="M66.8191 5.54989C66.6696 5.46659 66.392 5.42174 65.9862 5.41533C65.8716 5.41325 65.7683 5.38181 65.6914 5.32562C65.2076 4.9668 66.2553 5.09815 66.4379 5.09495C68.2993 5.07893 71.8011 4.68806 73.4222 5.54028C76.9272 7.38568 74.755 10.9996 71.8524 11.682C71.7306 11.7098 71.6751 11.7674 71.6858 11.855C71.6902 11.8923 71.7125 11.9313 71.7499 11.9676C71.7873 12.0039 71.8384 12.036 71.8972 12.0601C74.1303 12.9539 74.441 15.1678 73.2748 17.0356C71.2949 20.2106 65.544 19.2911 62.4011 19.3904C62.3528 19.3924 62.3057 19.3784 62.269 19.3512C62.2323 19.3239 62.2086 19.2854 62.2024 19.243C62.1512 18.9141 62.3765 18.7902 62.8784 18.8714C63.4701 18.9675 63.8663 18.6663 64.0671 17.9679L67.2933 6.66802C67.4343 6.17463 67.2762 5.80193 66.8191 5.54989ZM68.1423 11.2847C73.9412 12.2875 74.8351 4.5535 69.5104 6.00483C69.4633 6.0176 69.4203 6.04261 69.3855 6.07742C69.3507 6.11223 69.3253 6.15565 69.3117 6.20347L67.9213 10.9291C67.9099 10.9667 67.9067 11.0064 67.9119 11.0454C67.9171 11.0845 67.9306 11.122 67.9515 11.1556C67.9723 11.1892 68.0001 11.2181 68.033 11.2403C68.0659 11.2626 68.1032 11.2777 68.1423 11.2847ZM71.0097 16.9042C71.9004 15.7477 72.0093 13.7645 70.8079 12.7905C70.0678 12.1914 68.8055 12.0985 67.8348 12.1402C67.7581 12.1438 67.6844 12.172 67.624 12.2209C67.5636 12.2698 67.5197 12.3368 67.4984 12.4125L65.9157 17.9871C65.9005 18.0406 65.8976 18.0967 65.9072 18.1514C65.9169 18.2061 65.9387 18.2578 65.9712 18.3025C66.0036 18.3473 66.0458 18.3841 66.0944 18.4099C66.1431 18.4357 66.197 18.45 66.2521 18.4517C68.1455 18.4965 69.7378 18.5574 71.0097 16.9042Z" fill="white"/>
<path d="M78.2409 15.5972C77.9494 17.1319 78.9714 18.0834 80.4227 18.1186C81.653 18.1507 82.7519 17.4138 83.7675 16.7762C84.011 16.6257 84.2737 16.7666 84.0526 17.0454C82.7967 18.6152 80.2593 20.0153 78.2601 19.3361C76.3699 18.6921 75.9694 16.3469 76.607 14.6137C77.5937 11.9246 79.4423 10.3579 82.1528 9.91366C85.1932 9.41386 85.7379 12.2428 83.6009 13.7294C82.1549 14.7375 80.4313 15.3057 78.4299 15.4338C78.3844 15.4365 78.3411 15.454 78.3069 15.4836C78.2727 15.5132 78.2494 15.5532 78.2409 15.5972ZM82.7615 10.564C80.5445 10.1988 78.7824 12.8291 78.3787 14.6906C78.3755 14.7074 78.3766 14.7248 78.3819 14.741C78.3872 14.7573 78.3965 14.7721 78.4089 14.7838C78.4213 14.7956 78.4365 14.8041 78.453 14.8085C78.4696 14.8129 78.487 14.8131 78.5036 14.8091C80.4515 14.3798 81.6978 14.1715 82.9537 12.5376C83.4514 11.8883 83.4749 11.2806 83.0242 10.7146C82.96 10.6361 82.8668 10.5827 82.7615 10.564Z" fill="white"/>
<path d="M103.551 13.5786C103.182 14.4372 103.288 14.5173 103.871 13.8189C104.51 12.7701 105.258 11.809 106.114 10.9354C106.375 11.07 106.513 11.2793 106.527 11.5634C104.466 13.4387 103.015 15.6995 102.173 18.3459C101.943 19.0763 101.385 19.6114 100.626 19.3551C100.516 19.317 100.424 19.2377 100.371 19.1337C100.318 19.0298 100.307 18.9093 100.341 18.7976L102.202 12.6463C102.292 12.3515 102.343 12.0386 102.356 11.7075C102.375 11.244 102.159 11.0903 101.706 11.2462C101.379 11.3615 101.1 11.5484 100.87 11.8069C100.046 12.7328 99.1362 13.6523 98.5724 14.748C97.8803 16.0936 97.3314 17.5022 96.9256 18.9738C96.9126 19.0235 96.8887 19.0691 96.8559 19.107C96.823 19.1449 96.7821 19.1739 96.7366 19.1917C96.2838 19.3668 95.9004 19.4191 95.5864 19.3486C95.5391 19.338 95.4945 19.3177 95.4554 19.2891C95.4163 19.2604 95.3834 19.2239 95.3588 19.1819C95.3342 19.1399 95.3184 19.0933 95.3123 19.0448C95.3063 18.9963 95.3102 18.9471 95.3237 18.9001L97.3966 11.5762C97.561 10.9952 97.4478 10.7079 97.057 10.7143C96.884 10.7175 95.9805 10.6823 95.9709 10.394C95.9695 10.3646 95.9889 10.3347 96.0252 10.3102C96.0615 10.2858 96.112 10.2688 96.1663 10.2626L98.9857 9.93261C99.0476 9.92543 99.1105 9.93372 99.1685 9.95671C99.2264 9.97971 99.2775 10.0166 99.3169 10.0641C99.3563 10.1115 99.3827 10.1678 99.3937 10.2277C99.4047 10.2877 99.3999 10.3493 99.3797 10.4068C99.023 11.4405 98.7603 12.4498 98.5916 13.4344C98.5339 13.7868 98.8415 13.5241 98.8992 13.428C99.7033 12.0567 101.315 9.58981 103.221 9.90058C104.794 10.1601 103.936 12.4284 103.551 13.5786Z" fill="white"/>
<path d="M106.527 11.5634C106.512 11.2793 106.374 11.07 106.114 10.9355C106.787 10.2114 108.35 9.36238 109.186 10.2915C110.087 11.2943 108.264 15.8085 107.552 17.7308C106.947 19.3711 108.844 17.42 109 17.2438C109.042 17.1979 109.088 17.1609 109.134 17.1353C109.18 17.1098 109.225 17.0965 109.266 17.0964C110.266 17.0964 107.331 19.3359 107.024 19.4384C105.406 19.9798 105.803 18.1216 106.075 17.295C106.603 15.7102 107.112 14.1222 107.604 12.531C107.86 11.6948 107.821 10.6503 106.527 11.5634Z" fill="white"/>
<path d="M112.097 18.7755C111.705 18.4325 111.409 17.9872 111.227 17.4653C111.044 16.9433 110.978 16.3549 111.033 15.7335C111.087 15.1122 111.261 14.4701 111.544 13.8439C111.827 13.2178 112.215 12.6198 112.683 12.0842C113.63 11.0024 114.853 10.2403 116.082 9.9653C117.312 9.69034 118.447 9.92513 119.238 10.618C119.63 10.9611 119.926 11.4063 120.109 11.9283C120.291 12.4502 120.357 13.0387 120.303 13.66C120.248 14.2814 120.075 14.9235 119.791 15.5496C119.508 16.1758 119.121 16.7737 118.652 17.3094C117.705 18.3911 116.482 19.1533 115.253 19.4283C114.024 19.7032 112.889 19.4684 112.097 18.7755ZM113.807 18.7834C114.384 19.0415 115.131 18.8561 115.884 18.2681C116.637 17.68 117.334 16.7374 117.821 15.6477C118.063 15.1081 118.245 14.5486 118.359 14.0011C118.473 13.4537 118.515 12.929 118.484 12.4571C118.452 11.9852 118.348 11.5752 118.176 11.2506C118.005 10.926 117.769 10.6932 117.483 10.5654C116.906 10.3072 116.159 10.4926 115.406 11.0806C114.654 11.6687 113.957 12.6113 113.469 13.701C113.228 14.2406 113.045 14.8001 112.932 15.3476C112.818 15.895 112.776 16.4197 112.807 16.8916C112.838 17.3636 112.943 17.7735 113.115 18.0981C113.286 18.4227 113.522 18.6555 113.807 18.7834Z" fill="white"/>
<path d="M125.417 11.6981C125.503 11.7718 125.596 11.7141 125.66 11.6372C126.376 10.7957 127.116 10.2553 127.881 10.0161C130.236 9.28244 131.536 11.1214 131.12 13.3064C130.447 16.821 127.32 20.6656 123.347 19.1822C123.327 19.1744 123.305 19.1707 123.283 19.1713C123.261 19.172 123.24 19.177 123.221 19.1861C123.201 19.1952 123.184 19.2081 123.171 19.224C123.157 19.2399 123.148 19.2584 123.142 19.2784L122.207 22.9628C122.195 23.0083 122.199 23.0572 122.218 23.1022C122.238 23.1473 122.272 23.186 122.316 23.2127C122.569 23.3664 123.924 23.6484 123.773 23.8919C123.752 23.9273 123.716 23.956 123.669 23.9747C123.622 23.9935 123.566 24.0014 123.507 23.9976C122.061 23.8993 120.614 23.9025 119.166 24.0072C119.019 24.0168 118.618 23.9527 118.747 23.7509C118.768 23.7173 118.803 23.6875 118.85 23.6641C118.897 23.6407 118.954 23.6243 119.016 23.6163C120.419 23.4401 120.515 22.527 120.932 21.143C121.888 17.9563 122.819 14.6926 123.722 11.3521C123.835 10.9377 123.676 10.7242 123.245 10.7113C123.091 10.7049 122.188 10.6216 122.165 10.4102C122.162 10.3724 122.181 10.3341 122.218 10.3035C122.255 10.273 122.308 10.2526 122.364 10.2468L125.497 9.91039C125.519 9.90813 125.541 9.9102 125.562 9.91643C125.583 9.92266 125.601 9.93288 125.617 9.94627C125.632 9.95966 125.643 9.97584 125.65 9.99353C125.656 10.0112 125.658 10.0299 125.654 10.0481L125.398 11.4418C125.387 11.5025 125.382 11.5601 125.386 11.6062C125.389 11.6522 125.4 11.6844 125.417 11.6981ZM128.871 11.1567C128.317 10.8256 127.795 10.7989 127.304 11.0766C124.783 12.4991 124.232 15.1454 123.588 17.7918C123.494 18.1784 123.628 18.4496 123.991 18.6056C127.394 20.0793 129.499 14.5431 129.37 11.9897C129.351 11.6244 129.185 11.3468 128.871 11.1567Z" fill="white"/>
<path d="M88.9253 14.4244C90.9213 14.1745 91.3891 13.0019 92.206 11.3487C92.7475 10.2498 93.5196 9.61225 94.7755 10.3459C95.5273 10.7859 95.6608 11.2612 95.176 11.7716C94.4113 12.5704 93.8154 12.4818 93.3882 11.5057C93.2323 11.1512 93.0711 11.149 92.9045 11.4993C92.3726 12.6121 91.719 13.6437 90.9437 14.5942C90.9158 14.6285 90.9009 14.6717 90.9015 14.7167C90.9021 14.7616 90.9181 14.8055 90.9469 14.8409C92.1516 16.3082 92.5328 18.1601 94.2469 19.0507C94.5331 19.2002 94.516 19.2793 94.1956 19.2878L92.1195 19.3455C92.033 19.3472 91.9469 19.3233 91.8711 19.2763C91.7952 19.2293 91.7325 19.1611 91.6902 19.0795C90.9309 17.6378 90.2197 15.6995 88.8484 14.7544C88.827 14.7396 88.8024 14.73 88.7766 14.7263C88.7508 14.7225 88.7245 14.7248 88.6997 14.7328C88.6749 14.7409 88.6523 14.7545 88.6337 14.7727C88.615 14.7909 88.6008 14.8131 88.5921 14.8377C88.1948 15.9676 87.8627 17.1092 87.5957 18.2626C87.3715 19.2301 86.8781 19.6114 85.9009 19.2782C85.8505 19.2609 85.8088 19.2244 85.7844 19.1761C85.7599 19.1279 85.7546 19.0715 85.7695 19.0187L87.8841 11.5762C88.0101 11.1319 87.8403 10.9269 87.3747 10.9611L86.7563 11.0027C86.7057 11.0063 86.6559 10.9951 86.6147 10.9708C86.5736 10.9464 86.5434 10.9103 86.5289 10.8681C86.3174 10.253 88.9798 10.1537 89.4347 10.1056C89.4878 10.0999 89.5414 10.1078 89.5907 10.1287C89.64 10.1496 89.6838 10.1829 89.7181 10.2257C89.7524 10.2686 89.7763 10.3197 89.7878 10.3746C89.7993 10.4296 89.7979 10.4868 89.7839 10.5414L88.7972 14.2834C88.7922 14.301 88.7919 14.3196 88.7963 14.3374C88.8006 14.3552 88.8095 14.3718 88.8221 14.3857C88.8348 14.3996 88.8508 14.4104 88.8687 14.4171C88.8867 14.4239 88.9061 14.4264 88.9253 14.4244Z" fill="white"/>
<path d="M67.5853 38.2881V36.9581C66.1853 36.9207 65.0653 36.5241 64.2253 35.7681C63.3853 35.0121 62.9653 34.0787 62.9653 32.9681C62.9653 31.8574 63.3853 30.9241 64.2253 30.1681C65.0653 29.4121 66.1853 29.0154 67.5853 28.9781V27.9281H68.6353V28.9781C70.0353 29.0154 71.1553 29.4121 71.9953 30.1681C72.8353 30.9241 73.2553 31.8574 73.2553 32.9681C73.2553 34.0787 72.8353 35.0121 71.9953 35.7681C71.1553 36.5241 70.0353 36.9207 68.6353 36.9581V38.2881H67.5853ZM67.5853 35.9781V29.9581C66.456 29.9954 65.5786 30.2894 64.9533 30.8401C64.328 31.3907 64.0153 32.1001 64.0153 32.9681C64.0153 33.8361 64.328 34.5454 64.9533 35.0961C65.5786 35.6467 66.456 35.9407 67.5853 35.9781ZM68.6353 29.9581V35.9781C69.7646 35.9407 70.642 35.6467 71.2673 35.0961C71.8926 34.5454 72.2053 33.8361 72.2053 32.9681C72.2053 32.1001 71.8926 31.3907 71.2673 30.8401C70.642 30.2894 69.7646 29.9954 68.6353 29.9581ZM79.2015 38.0081V37.0981C79.0615 37.2941 78.8842 37.4714 78.6695 37.6301C78.1748 37.9754 77.6288 38.1481 77.0315 38.1481C76.3502 38.1481 75.7808 37.9521 75.3235 37.5601C74.8755 37.1587 74.6515 36.7014 74.6515 36.1881C74.6515 35.0494 75.3048 34.3727 76.6115 34.1581L79.2015 33.7381C79.2015 33.2434 79.0428 32.8421 78.7255 32.5341C78.4175 32.2167 78.0162 32.0581 77.5215 32.0581C77.0362 32.0581 76.5742 32.2214 76.1355 32.5481C75.9302 32.7254 75.7622 32.8887 75.6315 33.0381L75.0015 32.4081C75.1788 32.1747 75.3982 31.9647 75.6595 31.7781C76.2288 31.3581 76.8495 31.1481 77.5215 31.1481C78.2868 31.1481 78.9215 31.3954 79.4255 31.8901C79.9295 32.3847 80.1815 33.0007 80.1815 33.7381V38.0081H79.2015ZM79.2015 34.9981V34.5781L76.8915 34.9981C76.0515 35.1474 75.6315 35.5441 75.6315 36.1881C75.6315 36.4867 75.7528 36.7387 75.9955 36.9441C76.2475 37.1401 76.5928 37.2381 77.0315 37.2381C77.6755 37.2381 78.1982 37.0327 78.5995 36.6221C79.0008 36.2114 79.2015 35.6701 79.2015 34.9981ZM87.3849 36.1181L88.0849 36.7481C87.8983 36.9814 87.6509 37.2147 87.3429 37.4481C86.6896 37.9147 86.0036 38.1481 85.2849 38.1481C84.3609 38.1481 83.5676 37.8074 82.9049 37.1261C82.2516 36.4447 81.9249 35.6187 81.9249 34.6481C81.9249 33.6774 82.2516 32.8514 82.9049 32.1701C83.5676 31.4887 84.3609 31.1481 85.2849 31.1481C86.0129 31.1481 86.6849 31.3721 87.3009 31.8201C87.5529 32.0067 87.7909 32.2261 88.0149 32.4781L87.3149 33.1781C87.1656 32.9727 86.9929 32.7861 86.7969 32.6181C86.3489 32.2447 85.8449 32.0581 85.2849 32.0581C84.6409 32.0581 84.0809 32.3101 83.6049 32.8141C83.1383 33.3087 82.9049 33.9201 82.9049 34.6481C82.9049 35.3761 83.1383 35.9921 83.6049 36.4961C84.0809 36.9907 84.6409 37.2381 85.2849 37.2381C85.8169 37.2381 86.3349 37.0514 86.8389 36.6781C87.0536 36.5007 87.2356 36.3141 87.3849 36.1181ZM93.68 38.0081V37.0981C93.54 37.2941 93.3627 37.4714 93.148 37.6301C92.6533 37.9754 92.1073 38.1481 91.51 38.1481C90.8287 38.1481 90.2593 37.9521 89.802 37.5601C89.354 37.1587 89.13 36.7014 89.13 36.1881C89.13 35.0494 89.7833 34.3727 91.09 34.1581L93.68 33.7381C93.68 33.2434 93.5213 32.8421 93.204 32.5341C92.896 32.2167 92.4947 32.0581 92 32.0581C91.5147 32.0581 91.0527 32.2214 90.614 32.5481C90.4087 32.7254 90.2407 32.8887 90.11 33.0381L89.48 32.4081C89.6573 32.1747 89.8767 31.9647 90.138 31.7781C90.7073 31.3581 91.328 31.1481 92 31.1481C92.7653 31.1481 93.4 31.3954 93.904 31.8901C94.408 32.3847 94.66 33.0007 94.66 33.7381V38.0081H93.68ZM93.68 34.9981V34.5781L91.37 34.9981C90.53 35.1474 90.11 35.5441 90.11 36.1881C90.11 36.4867 90.2313 36.7387 90.474 36.9441C90.726 37.1401 91.0713 37.2381 91.51 37.2381C92.154 37.2381 92.6767 37.0327 93.078 36.6221C93.4793 36.2114 93.68 35.6701 93.68 34.9981ZM95.7734 39.6881V37.0981H96.2634C96.4874 36.8647 96.6834 36.5567 96.8514 36.1741C97.2528 35.3154 97.4534 34.3401 97.4534 33.2481V31.2881H102.073V37.0981H103.123V39.6881H102.143V38.0081H96.7534V39.6881H95.7734ZM97.3134 37.0981H101.093V32.1981H98.4334V33.2481C98.4334 34.3027 98.2468 35.2687 97.8734 36.1461C97.7054 36.5194 97.5188 36.8367 97.3134 37.0981ZM104.659 38.0081V31.2881H105.639V34.1581H109.489V31.2881H110.469V38.0081H109.489V35.0681H105.639V38.0081H104.659ZM118.074 37.1401C117.411 37.8121 116.604 38.1481 115.652 38.1481C114.7 38.1481 113.888 37.8121 113.216 37.1401C112.553 36.4587 112.222 35.6281 112.222 34.6481C112.222 33.6681 112.553 32.8421 113.216 32.1701C113.888 31.4887 114.7 31.1481 115.652 31.1481C116.604 31.1481 117.411 31.4887 118.074 32.1701C118.746 32.8421 119.082 33.6681 119.082 34.6481C119.082 35.6281 118.746 36.4587 118.074 37.1401ZM113.916 36.4821C114.401 36.9861 114.98 37.2381 115.652 37.2381C116.324 37.2381 116.898 36.9907 117.374 36.4961C117.859 35.9921 118.102 35.3761 118.102 34.6481C118.102 33.9201 117.859 33.3087 117.374 32.8141C116.898 32.3101 116.324 32.0581 115.652 32.0581C114.98 32.0581 114.401 32.3101 113.916 32.8141C113.44 33.3087 113.202 33.9201 113.202 34.6481C113.202 35.3667 113.44 35.9781 113.916 36.4821ZM125.873 36.1181L126.503 36.7481C126.326 36.9907 126.088 37.2241 125.789 37.4481C125.136 37.9147 124.44 38.1481 123.703 38.1481C122.779 38.1481 121.986 37.8074 121.323 37.1261C120.67 36.4447 120.343 35.6187 120.343 34.6481C120.343 33.6774 120.67 32.8514 121.323 32.1701C121.976 31.4887 122.746 31.1481 123.633 31.1481C124.557 31.1481 125.322 31.4654 125.929 32.1001C126.545 32.7347 126.853 33.5374 126.853 34.5081C126.853 34.5547 126.839 34.6761 126.811 34.8721L126.783 35.0121L121.323 34.9981C121.36 35.6047 121.608 36.1321 122.065 36.5801C122.532 37.0187 123.078 37.2381 123.703 37.2381C124.272 37.2381 124.809 37.0514 125.313 36.6781C125.556 36.4821 125.742 36.2954 125.873 36.1181ZM121.323 34.1581H125.873C125.798 33.5514 125.551 33.0521 125.131 32.6601C124.72 32.2587 124.221 32.0581 123.633 32.0581C123.045 32.0581 122.532 32.2634 122.093 32.6741C121.654 33.0847 121.398 33.5794 121.323 34.1581ZM136.9 37.1401C136.237 37.8121 135.43 38.1481 134.478 38.1481C133.526 38.1481 132.714 37.8121 132.042 37.1401C131.379 36.4587 131.048 35.6281 131.048 34.6481C131.048 33.6681 131.379 32.8421 132.042 32.1701C132.714 31.4887 133.526 31.1481 134.478 31.1481C135.43 31.1481 136.237 31.4887 136.9 32.1701C137.572 32.8421 137.908 33.6681 137.908 34.6481C137.908 35.6281 137.572 36.4587 136.9 37.1401ZM132.742 36.4821C133.227 36.9861 133.806 37.2381 134.478 37.2381C135.15 37.2381 135.724 36.9907 136.2 36.4961C136.685 35.9921 136.928 35.3761 136.928 34.6481C136.928 33.9201 136.685 33.3087 136.2 32.8141C135.724 32.3101 135.15 32.0581 134.478 32.0581C133.806 32.0581 133.227 32.3101 132.742 32.8141C132.266 33.3087 132.028 33.9201 132.028 34.6481C132.028 35.3667 132.266 35.9781 132.742 36.4821ZM144.629 36.1181L145.329 36.7481C145.142 36.9814 144.895 37.2147 144.587 37.4481C143.934 37.9147 143.248 38.1481 142.529 38.1481C141.605 38.1481 140.812 37.8074 140.149 37.1261C139.496 36.4447 139.169 35.6187 139.169 34.6481C139.169 33.6774 139.496 32.8514 140.149 32.1701C140.812 31.4887 141.605 31.1481 142.529 31.1481C143.257 31.1481 143.929 31.3721 144.545 31.8201C144.797 32.0067 145.035 32.2261 145.259 32.4781L144.559 33.1781C144.41 32.9727 144.237 32.7861 144.041 32.6181C143.593 32.2447 143.089 32.0581 142.529 32.0581C141.885 32.0581 141.325 32.3101 140.849 32.8141C140.382 33.3087 140.149 33.9201 140.149 34.6481C140.149 35.3761 140.382 35.9921 140.849 36.4961C141.325 36.9907 141.885 37.2381 142.529 37.2381C143.061 37.2381 143.579 37.0514 144.083 36.6781C144.298 36.5007 144.48 36.3141 144.629 36.1181ZM148.404 38.0081V32.1981H146.024V31.2881H151.764V32.1981H149.384V38.0081H148.404ZM158.07 36.1181L158.7 36.7481C158.523 36.9907 158.285 37.2241 157.986 37.4481C157.333 37.9147 156.637 38.1481 155.9 38.1481C154.976 38.1481 154.183 37.8074 153.52 37.1261C152.867 36.4447 152.54 35.6187 152.54 34.6481C152.54 33.6774 152.867 32.8514 153.52 32.1701C154.173 31.4887 154.943 31.1481 155.83 31.1481C156.754 31.1481 157.519 31.4654 158.126 32.1001C158.742 32.7347 159.05 33.5374 159.05 34.5081C159.05 34.5547 159.036 34.6761 159.008 34.8721L158.98 35.0121L153.52 34.9981C153.557 35.6047 153.805 36.1321 154.262 36.5801C154.729 37.0187 155.275 37.2381 155.9 37.2381C156.469 37.2381 157.006 37.0514 157.51 36.6781C157.753 36.4821 157.939 36.2954 158.07 36.1181ZM153.52 34.1581H158.07C157.995 33.5514 157.748 33.0521 157.328 32.6601C156.917 32.2587 156.418 32.0581 155.83 32.0581C155.242 32.0581 154.729 32.2634 154.29 32.6741C153.851 33.0847 153.595 33.5794 153.52 34.1581ZM160.796 38.0081V31.2881H161.776V34.8581L165.136 31.2881H166.326L163.736 34.0181L166.606 38.0081H165.486L163.106 34.7181L161.776 36.1181V38.0081H160.796ZM166.744 38.0081V37.0281C166.8 37.0654 166.856 37.0887 166.912 37.0981C167.033 37.1447 167.164 37.1681 167.304 37.1681C167.593 37.1681 167.817 37.0841 167.976 36.9161C168.144 36.7481 168.284 36.3701 168.396 35.7821C168.508 35.1847 168.564 34.3401 168.564 33.2481V31.2881H173.464V38.0081H172.484V32.1981H169.544V33.2481C169.544 34.2374 169.493 35.0634 169.39 35.7261C169.297 36.3794 169.152 36.8787 168.956 37.2241C168.76 37.5694 168.541 37.8121 168.298 37.9521C168.065 38.0827 167.78 38.1481 167.444 38.1481C167.276 38.1481 167.113 38.1247 166.954 38.0781C166.907 38.0687 166.837 38.0454 166.744 38.0081ZM180.738 36.1181L181.368 36.7481C181.191 36.9907 180.953 37.2241 180.654 37.4481C180.001 37.9147 179.305 38.1481 178.568 38.1481C177.644 38.1481 176.851 37.8074 176.188 37.1261C175.535 36.4447 175.208 35.6187 175.208 34.6481C175.208 33.6774 175.535 32.8514 176.188 32.1701C176.841 31.4887 177.611 31.1481 178.498 31.1481C179.422 31.1481 180.187 31.4654 180.794 32.1001C181.41 32.7347 181.718 33.5374 181.718 34.5081C181.718 34.5547 181.704 34.6761 181.676 34.8721L181.648 35.0121L176.188 34.9981C176.225 35.6047 176.473 36.1321 176.93 36.5801C177.397 37.0187 177.943 37.2381 178.568 37.2381C179.137 37.2381 179.674 37.0514 180.178 36.6781C180.421 36.4821 180.607 36.2954 180.738 36.1181ZM176.188 34.1581H180.738C180.663 33.5514 180.416 33.0521 179.996 32.6601C179.585 32.2587 179.086 32.0581 178.498 32.0581C177.91 32.0581 177.397 32.2634 176.958 32.6741C176.519 33.0847 176.263 33.5794 176.188 34.1581ZM183.464 38.0081V31.2881H184.444V34.1581H188.294V31.2881H189.274V38.0081H188.294V35.0681H184.444V38.0081H183.464ZM191.516 38.0081V31.2881H192.496V36.3281L196.556 31.2881H197.396V38.0081H196.416V32.9681L192.356 38.0081H191.516ZM204.678 36.1181L205.308 36.7481C205.13 36.9907 204.892 37.2241 204.594 37.4481C203.94 37.9147 203.245 38.1481 202.508 38.1481C201.584 38.1481 200.79 37.8074 200.128 37.1261C199.474 36.4447 199.148 35.6187 199.148 34.6481C199.148 33.6774 199.474 32.8514 200.128 32.1701C200.781 31.4887 201.551 31.1481 202.438 31.1481C203.362 31.1481 204.127 31.4654 204.734 32.1001C205.35 32.7347 205.658 33.5374 205.658 34.5081C205.658 34.5547 205.644 34.6761 205.616 34.8721L205.588 35.0121L200.128 34.9981C200.165 35.6047 200.412 36.1321 200.87 36.5801C201.336 37.0187 201.882 37.2381 202.508 37.2381C203.077 37.2381 203.614 37.0514 204.118 36.6781C204.36 36.4821 204.547 36.2954 204.678 36.1181ZM200.128 34.1581H204.678C204.603 33.5514 204.356 33.0521 203.936 32.6601C203.525 32.2587 203.026 32.0581 202.438 32.0581C201.85 32.0581 201.336 32.2634 200.898 32.6741C200.459 33.0847 200.202 33.5794 200.128 34.1581Z" fill="white"/>
</g>
<defs>
<clipPath id="clip0_501_1739">
<rect width="207.195" height="46" fill="white"/>
</clipPath>
</defs>
</svg>
